<svg width="110" height="125" viewBox="0 0 110 125" fill="none" xmlns="http://www.w3.org/2000/svg">
<rect width="110" height="125" rx="5" fill="#FFF8E1"/>
<path fill-rule="evenodd" clip-rule="evenodd" d="M55.0001 28.0002C41.7452 28.0002 31 38.7452 31 52.0002C31 65.2548 41.7452 76.0001 55.0001 76.0001C68.255 76.0001 79 65.2548 79 52.0002C79 38.7452 68.255 28.0002 55.0001 28.0002ZM46.1582 50.6857C47.1347 50.6857 47.9265 49.3514 47.9265 47.705C47.9265 46.0587 47.1347 44.7243 46.1582 44.7243C45.1814 44.7243 44.3897 46.0587 44.3897 47.705C44.3897 49.3514 45.1814 50.6857 46.1582 50.6857ZM43.8742 56.4949C43.554 55.6949 44.5446 55.0307 45.1629 55.6313C53.8741 64.0936 61.3307 59.2478 64.843 55.8425C65.4565 55.2475 66.455 55.9289 66.1216 56.7156C64.2945 61.0293 60.0231 64.0556 55.0435 64.0556C49.9792 64.0556 45.6475 60.9257 43.8742 56.4949ZM65.6102 47.705C65.6102 49.3514 64.8184 50.6857 63.842 50.6857C62.8652 50.6857 62.0734 49.3514 62.0734 47.705C62.0734 46.0587 62.8652 44.7243 63.842 44.7243C64.8184 44.7243 65.6102 46.0587 65.6102 47.705Z" fill="#FFB300"/>
<path d="M23.5508 87.2129L19.6836 99H16.5684L21.8516 84.7812H23.834L23.5508 87.2129ZM26.7637 99L22.8867 87.2129L22.5742 84.7812H24.5762L29.8887 99H26.7637ZM26.5879 93.707V96.002H19.0781V93.707H26.5879ZM34.5367 96.9492L36.8805 88.4336H39.8199L36.2555 99H34.4781L34.5367 96.9492ZM32.9254 88.4336L35.2789 96.959L35.3277 99H33.5406L29.9762 88.4336H32.9254ZM46.2062 99.1953C45.3859 99.1953 44.6503 99.0651 43.9992 98.8047C43.3482 98.5378 42.7948 98.1699 42.3391 97.7012C41.8898 97.2324 41.5448 96.6888 41.3039 96.0703C41.063 95.4453 40.9426 94.7812 40.9426 94.0781V93.6875C40.9426 92.8867 41.0565 92.1543 41.2844 91.4902C41.5122 90.8262 41.8378 90.25 42.2609 89.7617C42.6906 89.2734 43.2115 88.8991 43.8234 88.6387C44.4354 88.3717 45.1255 88.2383 45.8937 88.2383C46.6424 88.2383 47.3065 88.362 47.8859 88.6094C48.4654 88.8568 48.9504 89.2083 49.341 89.6641C49.7382 90.1198 50.0376 90.6667 50.2395 91.3047C50.4413 91.9362 50.5422 92.6393 50.5422 93.4141V94.5859H42.1437V92.7109H47.7785V92.4961C47.7785 92.1055 47.7069 91.7572 47.5637 91.4512C47.427 91.1387 47.2186 90.8913 46.9387 90.709C46.6587 90.5267 46.3007 90.4355 45.8645 90.4355C45.4934 90.4355 45.1743 90.5169 44.9074 90.6797C44.6405 90.8424 44.4224 91.0703 44.2531 91.3633C44.0904 91.6562 43.9667 92.0013 43.882 92.3984C43.8039 92.7891 43.7648 93.2188 43.7648 93.6875V94.0781C43.7648 94.5013 43.8234 94.8919 43.9406 95.25C44.0643 95.6081 44.2368 95.9173 44.4582 96.1777C44.6861 96.4382 44.9595 96.64 45.2785 96.7832C45.604 96.9264 45.9719 96.998 46.382 96.998C46.8898 96.998 47.3618 96.9004 47.798 96.7051C48.2408 96.5033 48.6216 96.2005 48.9406 95.7969L50.3078 97.2812C50.0865 97.6003 49.7837 97.9062 49.3996 98.1992C49.022 98.4922 48.5663 98.7331 48.0324 98.9219C47.4986 99.1042 46.8898 99.1953 46.2062 99.1953ZM55.3563 90.7383V99H52.5438V88.4336H55.1902L55.3563 90.7383ZM58.5398 88.3652L58.491 90.9727C58.3543 90.9531 58.1883 90.9368 57.993 90.9238C57.8042 90.9043 57.6316 90.8945 57.4754 90.8945C57.0783 90.8945 56.7332 90.9466 56.4402 91.0508C56.1538 91.1484 55.9129 91.2949 55.7176 91.4902C55.5288 91.6855 55.3855 91.9232 55.2879 92.2031C55.1967 92.4831 55.1447 92.8021 55.1316 93.1602L54.5652 92.9844C54.5652 92.3008 54.6336 91.6725 54.7703 91.0996C54.907 90.5202 55.1056 90.0156 55.366 89.5859C55.6329 89.1562 55.9585 88.8242 56.3426 88.5898C56.7267 88.3555 57.1661 88.2383 57.6609 88.2383C57.8172 88.2383 57.9767 88.2513 58.1395 88.2773C58.3022 88.2969 58.4357 88.3262 58.5398 88.3652ZM65.6391 96.6172V91.9102C65.6391 91.5716 65.5837 91.2819 65.473 91.041C65.3624 90.7936 65.1898 90.6016 64.9555 90.4648C64.7276 90.3281 64.4314 90.2598 64.0668 90.2598C63.7543 90.2598 63.4841 90.3151 63.2562 90.4258C63.0284 90.5299 62.8526 90.6829 62.7289 90.8848C62.6052 91.0801 62.5434 91.3112 62.5434 91.5781H59.7309C59.7309 91.1289 59.835 90.7025 60.0434 90.2988C60.2517 89.8952 60.5544 89.5404 60.9516 89.2344C61.3487 88.9219 61.8207 88.6777 62.3676 88.502C62.921 88.3262 63.5395 88.2383 64.223 88.2383C65.0434 88.2383 65.7725 88.375 66.4105 88.6484C67.0486 88.9219 67.5499 89.332 67.9145 89.8789C68.2855 90.4258 68.4711 91.1094 68.4711 91.9297V96.4512C68.4711 97.0306 68.5069 97.5059 68.5785 97.877C68.6501 98.2415 68.7543 98.5605 68.891 98.834V99H66.0492C65.9125 98.7135 65.8083 98.3555 65.7367 97.9258C65.6716 97.4896 65.6391 97.0534 65.6391 96.6172ZM66.0102 92.5645L66.0297 94.1562H64.4574C64.0863 94.1562 63.7641 94.1986 63.4906 94.2832C63.2172 94.3678 62.9926 94.4883 62.8168 94.6445C62.641 94.7943 62.5108 94.9701 62.4262 95.1719C62.348 95.3737 62.309 95.5951 62.309 95.8359C62.309 96.0768 62.3643 96.2949 62.475 96.4902C62.5857 96.679 62.7452 96.8288 62.9535 96.9395C63.1618 97.0436 63.406 97.0957 63.6859 97.0957C64.1091 97.0957 64.477 97.0111 64.7895 96.8418C65.102 96.6725 65.3428 96.4642 65.5121 96.2168C65.6879 95.9694 65.779 95.735 65.7855 95.5137L66.5277 96.7051C66.4236 96.972 66.2803 97.2487 66.098 97.5352C65.9223 97.8216 65.6977 98.0918 65.4242 98.3457C65.1508 98.5931 64.822 98.7982 64.4379 98.9609C64.0538 99.1172 63.598 99.1953 63.0707 99.1953C62.4001 99.1953 61.7914 99.0618 61.2445 98.7949C60.7042 98.5215 60.2745 98.1471 59.9555 97.6719C59.643 97.1901 59.4867 96.6432 59.4867 96.0312C59.4867 95.4779 59.5909 94.9863 59.7992 94.5566C60.0076 94.127 60.3135 93.7656 60.7172 93.4727C61.1273 93.1732 61.6384 92.9486 62.2504 92.7988C62.8624 92.6426 63.572 92.5645 64.3793 92.5645H66.0102ZM77.7285 88.4336H80.2773V98.6484C80.2773 99.612 80.0625 100.429 79.6328 101.1C79.2096 101.777 78.6172 102.288 77.8555 102.633C77.0938 102.984 76.2083 103.16 75.1992 103.16C74.7565 103.16 74.2878 103.102 73.793 102.984C73.3047 102.867 72.8359 102.685 72.3867 102.438C71.944 102.19 71.5729 101.878 71.2734 101.5L72.5137 99.8398C72.8392 100.217 73.2168 100.51 73.6465 100.719C74.0762 100.934 74.5514 101.041 75.0723 101.041C75.5801 101.041 76.0098 100.947 76.3613 100.758C76.7129 100.576 76.9831 100.305 77.1719 99.9473C77.3607 99.5957 77.4551 99.1693 77.4551 98.668V90.875L77.7285 88.4336ZM70.6191 93.8438V93.6387C70.6191 92.8314 70.7168 92.099 70.9121 91.4414C71.1139 90.7773 71.3971 90.2077 71.7617 89.7324C72.1328 89.2572 72.582 88.8893 73.1094 88.6289C73.6367 88.3685 74.2324 88.2383 74.8965 88.2383C75.5996 88.2383 76.1888 88.3685 76.6641 88.6289C77.1393 88.8893 77.5299 89.2604 77.8359 89.7422C78.1419 90.2174 78.3796 90.7806 78.5488 91.4316C78.7246 92.0762 78.8613 92.7826 78.959 93.5508V94C78.8613 94.7357 78.7148 95.4193 78.5195 96.0508C78.3242 96.6823 78.0671 97.2357 77.748 97.7109C77.429 98.1797 77.0319 98.5443 76.5566 98.8047C76.0879 99.0651 75.528 99.1953 74.877 99.1953C74.2259 99.1953 73.6367 99.0618 73.1094 98.7949C72.5885 98.528 72.1426 98.1536 71.7715 97.6719C71.4004 97.1901 71.1139 96.6237 70.9121 95.9727C70.7168 95.3216 70.6191 94.612 70.6191 93.8438ZM73.4316 93.6387V93.8438C73.4316 94.2799 73.474 94.6868 73.5586 95.0645C73.6432 95.4421 73.7734 95.7773 73.9492 96.0703C74.1315 96.3568 74.3561 96.5814 74.623 96.7441C74.8965 96.9004 75.2188 96.9785 75.5898 96.9785C76.1042 96.9785 76.5241 96.8711 76.8496 96.6562C77.1751 96.4349 77.4193 96.1322 77.582 95.748C77.7448 95.3639 77.8392 94.9212 77.8652 94.4199V93.1406C77.8522 92.7305 77.7969 92.3626 77.6992 92.0371C77.6016 91.7051 77.4648 91.4219 77.2891 91.1875C77.1133 90.9531 76.8854 90.7708 76.6055 90.6406C76.3255 90.5104 75.9935 90.4453 75.6094 90.4453C75.2383 90.4453 74.916 90.5299 74.6426 90.6992C74.3757 90.862 74.151 91.0866 73.9688 91.373C73.793 91.6595 73.6595 91.998 73.5684 92.3887C73.4772 92.7728 73.4316 93.1895 73.4316 93.6387ZM87.7281 99.1953C86.9078 99.1953 86.1721 99.0651 85.5211 98.8047C84.8701 98.5378 84.3167 98.1699 83.8609 97.7012C83.4117 97.2324 83.0667 96.6888 82.8258 96.0703C82.5849 95.4453 82.4645 94.7812 82.4645 94.0781V93.6875C82.4645 92.8867 82.5784 92.1543 82.8063 91.4902C83.0341 90.8262 83.3596 90.25 83.7828 89.7617C84.2125 89.2734 84.7333 88.8991 85.3453 88.6387C85.9573 88.3717 86.6474 88.2383 87.4156 88.2383C88.1643 88.2383 88.8284 88.362 89.4078 88.6094C89.9872 88.8568 90.4723 89.2083 90.8629 89.6641C91.26 90.1198 91.5595 90.6667 91.7613 91.3047C91.9632 91.9362 92.0641 92.6393 92.0641 93.4141V94.5859H83.6656V92.7109H89.3004V92.4961C89.3004 92.1055 89.2288 91.7572 89.0855 91.4512C88.9488 91.1387 88.7405 90.8913 88.4605 90.709C88.1806 90.5267 87.8225 90.4355 87.3863 90.4355C87.0152 90.4355 86.6962 90.5169 86.4293 90.6797C86.1624 90.8424 85.9443 91.0703 85.775 91.3633C85.6122 91.6562 85.4885 92.0013 85.4039 92.3984C85.3258 92.7891 85.2867 93.2188 85.2867 93.6875V94.0781C85.2867 94.5013 85.3453 94.8919 85.4625 95.25C85.5862 95.6081 85.7587 95.9173 85.9801 96.1777C86.2079 96.4382 86.4814 96.64 86.8004 96.7832C87.1259 96.9264 87.4938 96.998 87.9039 96.998C88.4117 96.998 88.8837 96.9004 89.3199 96.7051C89.7626 96.5033 90.1435 96.2005 90.4625 95.7969L91.8297 97.2812C91.6083 97.6003 91.3056 97.9062 90.9215 98.1992C90.5439 98.4922 90.0882 98.7331 89.5543 98.9219C89.0204 99.1042 88.4117 99.1953 87.7281 99.1953Z" fill="#FFB300"/>
</svg>
