<svg width="123" height="123" viewBox="0 0 123 123" fill="none" xmlns="http://www.w3.org/2000/svg">
<path d="M30.4463 74.9109L26.5791 86.698H23.4639L28.7471 72.4792H30.7295L30.4463 74.9109ZM33.6592 86.698L29.7822 74.9109L29.4697 72.4792H31.4717L36.7842 86.698H33.6592ZM33.4834 81.405V83.7H25.9736V81.405H33.4834ZM41.4322 84.6472L43.776 76.1316H46.7154L43.151 86.698H41.3736L41.4322 84.6472ZM39.8209 76.1316L42.1744 84.657L42.2232 86.698H40.4361L36.8717 76.1316H39.8209ZM53.1018 86.8933C52.2814 86.8933 51.5458 86.7631 50.8947 86.5027C50.2437 86.2358 49.6903 85.8679 49.2346 85.3992C48.7854 84.9304 48.4403 84.3868 48.1994 83.7683C47.9585 83.1433 47.8381 82.4792 47.8381 81.7761V81.3855C47.8381 80.5847 47.952 79.8523 48.1799 79.1882C48.4077 78.5242 48.7333 77.948 49.1564 77.4597C49.5861 76.9714 50.107 76.5971 50.7189 76.3367C51.3309 76.0697 52.021 75.9363 52.7893 75.9363C53.538 75.9363 54.202 76.06 54.7814 76.3074C55.3609 76.5548 55.8459 76.9063 56.2365 77.3621C56.6337 77.8178 56.9331 78.3647 57.135 79.0027C57.3368 79.6342 57.4377 80.3373 57.4377 81.1121V82.2839H49.0393V80.4089H54.674V80.1941C54.674 79.8035 54.6024 79.4552 54.4592 79.1492C54.3225 78.8367 54.1141 78.5893 53.8342 78.407C53.5542 78.2247 53.1962 78.1335 52.76 78.1335C52.3889 78.1335 52.0699 78.2149 51.8029 78.3777C51.536 78.5404 51.3179 78.7683 51.1486 79.0613C50.9859 79.3542 50.8622 79.6993 50.7775 80.0964C50.6994 80.4871 50.6604 80.9167 50.6604 81.3855V81.7761C50.6604 82.1993 50.7189 82.5899 50.8361 82.948C50.9598 83.3061 51.1324 83.6153 51.3537 83.8757C51.5816 84.1361 51.855 84.338 52.174 84.4812C52.4995 84.6244 52.8674 84.696 53.2775 84.696C53.7854 84.696 54.2574 84.5984 54.6936 84.4031C55.1363 84.2013 55.5171 83.8985 55.8361 83.4949L57.2033 84.9792C56.982 85.2983 56.6792 85.6042 56.2951 85.8972C55.9175 86.1902 55.4618 86.4311 54.9279 86.6199C54.3941 86.8022 53.7854 86.8933 53.1018 86.8933ZM62.2518 78.4363V86.698H59.4393V76.1316H62.0857L62.2518 78.4363ZM65.4354 76.0632L65.3865 78.6707C65.2498 78.6511 65.0838 78.6348 64.8885 78.6218C64.6997 78.6023 64.5271 78.5925 64.3709 78.5925C63.9738 78.5925 63.6287 78.6446 63.3357 78.7488C63.0493 78.8464 62.8084 78.9929 62.6131 79.1882C62.4243 79.3835 62.2811 79.6212 62.1834 79.9011C62.0923 80.1811 62.0402 80.5001 62.0271 80.8582L61.4607 80.6824C61.4607 79.9988 61.5291 79.3705 61.6658 78.7976C61.8025 78.2182 62.0011 77.7136 62.2615 77.2839C62.5285 76.8542 62.854 76.5222 63.2381 76.2878C63.6222 76.0535 64.0617 75.9363 64.5564 75.9363C64.7127 75.9363 64.8722 75.9493 65.035 75.9753C65.1977 75.9949 65.3312 76.0242 65.4354 76.0632ZM72.5346 84.3152V79.6082C72.5346 79.2696 72.4792 78.9799 72.3686 78.739C72.2579 78.4916 72.0854 78.2996 71.851 78.1628C71.6231 78.0261 71.3269 77.9578 70.9623 77.9578C70.6498 77.9578 70.3796 78.0131 70.1518 78.1238C69.9239 78.2279 69.7481 78.3809 69.6244 78.5828C69.5007 78.7781 69.4389 79.0092 69.4389 79.2761H66.6264C66.6264 78.8269 66.7305 78.4005 66.9389 77.9968C67.1472 77.5932 67.4499 77.2384 67.8471 76.9324C68.2442 76.6199 68.7162 76.3757 69.2631 76.2C69.8165 76.0242 70.435 75.9363 71.1186 75.9363C71.9389 75.9363 72.668 76.073 73.3061 76.3464C73.9441 76.6199 74.4454 77.03 74.81 77.5769C75.1811 78.1238 75.3666 78.8074 75.3666 79.6277V84.1492C75.3666 84.7286 75.4024 85.2039 75.474 85.575C75.5456 85.9395 75.6498 86.2585 75.7865 86.532V86.698H72.9447C72.808 86.4115 72.7038 86.0535 72.6322 85.6238C72.5671 85.1876 72.5346 84.7514 72.5346 84.3152ZM72.9057 80.2625L72.9252 81.8542H71.3529C70.9818 81.8542 70.6596 81.8966 70.3861 81.9812C70.1127 82.0658 69.8881 82.1863 69.7123 82.3425C69.5365 82.4923 69.4063 82.6681 69.3217 82.8699C69.2436 83.0717 69.2045 83.2931 69.2045 83.5339C69.2045 83.7748 69.2598 83.9929 69.3705 84.1882C69.4812 84.377 69.6407 84.5268 69.849 84.6375C70.0574 84.7416 70.3015 84.7937 70.5814 84.7937C71.0046 84.7937 71.3725 84.7091 71.685 84.5398C71.9975 84.3705 72.2383 84.1622 72.4076 83.9148C72.5834 83.6674 72.6745 83.433 72.6811 83.2117L73.4232 84.4031C73.3191 84.67 73.1758 84.9467 72.9936 85.2332C72.8178 85.5196 72.5932 85.7898 72.3197 86.0437C72.0463 86.2911 71.7175 86.4962 71.3334 86.6589C70.9493 86.8152 70.4936 86.8933 69.9662 86.8933C69.2956 86.8933 68.6869 86.7598 68.14 86.4929C67.5997 86.2195 67.17 85.8451 66.851 85.3699C66.5385 84.8881 66.3822 84.3412 66.3822 83.7292C66.3822 83.1759 66.4864 82.6843 66.6947 82.2546C66.9031 81.825 67.209 81.4636 67.6127 81.1707C68.0229 80.8712 68.5339 80.6466 69.1459 80.4968C69.7579 80.3406 70.4675 80.2625 71.2748 80.2625H72.9057ZM84.624 76.1316H87.1729V86.3464C87.1729 87.31 86.958 88.127 86.5283 88.7976C86.1051 89.4747 85.5127 89.9858 84.751 90.3308C83.9893 90.6824 83.1038 90.8582 82.0947 90.8582C81.652 90.8582 81.1833 90.7996 80.6885 90.6824C80.2002 90.5652 79.7314 90.3829 79.2822 90.1355C78.8395 89.8881 78.4684 89.5756 78.1689 89.198L79.4092 87.5378C79.7347 87.9154 80.1123 88.2084 80.542 88.4167C80.9717 88.6316 81.4469 88.739 81.9678 88.739C82.4756 88.739 82.9053 88.6446 83.2568 88.4558C83.6084 88.2735 83.8786 88.0033 84.0674 87.6453C84.2562 87.2937 84.3506 86.8673 84.3506 86.366V78.573L84.624 76.1316ZM77.5146 81.5417V81.3367C77.5146 80.5294 77.6123 79.797 77.8076 79.1394C78.0094 78.4753 78.2926 77.9057 78.6572 77.4304C79.0283 76.9552 79.4775 76.5873 80.0049 76.3269C80.5322 76.0665 81.1279 75.9363 81.792 75.9363C82.4951 75.9363 83.0843 76.0665 83.5596 76.3269C84.0348 76.5873 84.4255 76.9584 84.7314 77.4402C85.0374 77.9154 85.2751 78.4786 85.4443 79.1296C85.6201 79.7742 85.7568 80.4806 85.8545 81.2488V81.698C85.7568 82.4337 85.6104 83.1173 85.415 83.7488C85.2197 84.3803 84.9626 84.9337 84.6436 85.4089C84.3245 85.8777 83.9274 86.2423 83.4521 86.5027C82.9834 86.7631 82.4235 86.8933 81.7725 86.8933C81.1214 86.8933 80.5322 86.7598 80.0049 86.4929C79.484 86.226 79.0381 85.8516 78.667 85.3699C78.2959 84.8881 78.0094 84.3217 77.8076 83.6707C77.6123 83.0196 77.5146 82.31 77.5146 81.5417ZM80.3271 81.3367V81.5417C80.3271 81.9779 80.3695 82.3848 80.4541 82.7625C80.5387 83.1401 80.6689 83.4753 80.8447 83.7683C81.027 84.0548 81.2516 84.2794 81.5186 84.4421C81.792 84.5984 82.1143 84.6765 82.4854 84.6765C82.9997 84.6765 83.4196 84.5691 83.7451 84.3542C84.0706 84.1329 84.3148 83.8302 84.4775 83.446C84.6403 83.0619 84.7347 82.6192 84.7607 82.1179V80.8386C84.7477 80.4285 84.6924 80.0606 84.5947 79.7351C84.4971 79.4031 84.3604 79.1199 84.1846 78.8855C84.0088 78.6511 83.7809 78.4688 83.501 78.3386C83.221 78.2084 82.889 78.1433 82.5049 78.1433C82.1338 78.1433 81.8115 78.2279 81.5381 78.3972C81.2712 78.56 81.0465 78.7846 80.8643 79.071C80.6885 79.3575 80.555 79.696 80.4639 80.0867C80.3727 80.4708 80.3271 80.8875 80.3271 81.3367ZM94.6236 86.8933C93.8033 86.8933 93.0676 86.7631 92.4166 86.5027C91.7656 86.2358 91.2122 85.8679 90.7564 85.3992C90.3072 84.9304 89.9622 84.3868 89.7213 83.7683C89.4804 83.1433 89.36 82.4792 89.36 81.7761V81.3855C89.36 80.5847 89.4739 79.8523 89.7018 79.1882C89.9296 78.5242 90.2551 77.948 90.6783 77.4597C91.108 76.9714 91.6288 76.5971 92.2408 76.3367C92.8528 76.0697 93.5429 75.9363 94.3111 75.9363C95.0598 75.9363 95.7239 76.06 96.3033 76.3074C96.8827 76.5548 97.3678 76.9063 97.7584 77.3621C98.1555 77.8178 98.455 78.3647 98.6568 79.0027C98.8587 79.6342 98.9596 80.3373 98.9596 81.1121V82.2839H90.5611V80.4089H96.1959V80.1941C96.1959 79.8035 96.1243 79.4552 95.9811 79.1492C95.8443 78.8367 95.636 78.5893 95.3561 78.407C95.0761 78.2247 94.718 78.1335 94.2818 78.1335C93.9107 78.1335 93.5917 78.2149 93.3248 78.3777C93.0579 78.5404 92.8398 78.7683 92.6705 79.0613C92.5077 79.3542 92.3841 79.6993 92.2994 80.0964C92.2213 80.4871 92.1822 80.9167 92.1822 81.3855V81.7761C92.1822 82.1993 92.2408 82.5899 92.358 82.948C92.4817 83.3061 92.6542 83.6153 92.8756 83.8757C93.1035 84.1361 93.3769 84.338 93.6959 84.4812C94.0214 84.6244 94.3893 84.696 94.7994 84.696C95.3072 84.696 95.7792 84.5984 96.2154 84.4031C96.6581 84.2013 97.039 83.8985 97.358 83.4949L98.7252 84.9792C98.5038 85.2983 98.2011 85.6042 97.817 85.8972C97.4394 86.1902 96.9837 86.4311 96.4498 86.6199C95.916 86.8022 95.3072 86.8933 94.6236 86.8933Z" fill="#212121"/>
<path d="M0.395508 61.099C0.395509 44.8945 6.8327 29.3538 18.291 17.8955C29.7493 6.4372 45.29 1.73849e-06 61.4945 0C77.6989 -1.73848e-06 93.2397 6.43719 104.698 17.8955C116.156 29.3537 122.593 44.8945 122.593 61.099L91.375 61.099C91.375 53.1742 88.2269 45.5739 82.6232 39.9702C77.0195 34.3665 69.4193 31.2184 61.4945 31.2184C53.5697 31.2184 45.9694 34.3665 40.3657 39.9702C34.7621 45.5739 31.6139 53.1742 31.6139 61.099H0.395508Z" fill="#D9D9D9"/>
<path opacity="0.5" d="M0.395508 61.099C0.395509 48.1961 4.48028 35.6245 12.0644 25.1859C19.6485 14.7473 30.3425 6.97759 42.6139 2.9904L52.2609 32.6809C46.2596 34.6308 41.0296 38.4306 37.3206 43.5356C33.6116 48.6406 31.6139 54.7888 31.6139 61.099H0.395508Z" fill="#EF5350"/>
<path opacity="0.5" d="M42.5813 3.00099C54.8504 -0.993084 68.069 -1.00049 80.3425 2.97982L70.7121 32.6757C64.7097 30.7291 58.2452 30.7328 52.245 32.6861L42.5813 3.00099Z" fill="#FFC107"/>
<path opacity="0.5" d="M80.2573 2.95226C92.5367 6.91459 103.246 14.6626 110.852 25.0858L85.6327 43.4867C81.9134 38.3892 76.6757 34.6 70.6705 32.6622L80.2573 2.95226Z" fill="#00E676"/>
<path opacity="0.5" d="M110.822 25.0451C118.436 35.462 122.556 48.022 122.593 60.9247L91.3749 61.0138C91.3569 54.7036 89.3417 48.5612 85.6182 43.4668L110.822 25.0451Z" fill="#00C853"/>
<path opacity="0.5" d="M0.395508 61.099C0.395509 48.1961 4.48028 35.6245 12.0644 25.1859L37.3206 43.5356C33.6116 48.6406 31.6139 54.7888 31.6139 61.099H0.395508Z" fill="#D32F2F"/>
<path fill-rule="evenodd" clip-rule="evenodd" d="M65.4644 53.4808L59.4849 24.9786L55.4148 53.8149C54.3579 55.0575 53.7425 56.6825 53.8011 58.4413C53.926 62.1915 57.0673 65.1304 60.8175 65.0055C64.5677 64.8807 67.5066 61.7393 67.3817 57.9891C67.3232 56.2305 66.6013 54.6504 65.4644 53.4808Z" fill="#393939"/>
</svg>
