<svg width="48" height="48" viewBox="0 0 48 48" fill="none" xmlns="http://www.w3.org/2000/svg">
<path fill-rule="evenodd" clip-rule="evenodd" d="M24.0001 0.000244141C10.7452 0.000244141 0 10.7452 0 24.0002C0 37.2548 10.7452 48.0001 24.0001 48.0001C37.255 48.0001 48 37.2548 48 24.0002C48 10.7452 37.255 0.000244141 24.0001 0.000244141ZM15.1582 22.6857C16.1347 22.6857 16.9265 21.3514 16.9265 19.705C16.9265 18.0587 16.1347 16.7243 15.1582 16.7243C14.1814 16.7243 13.3897 18.0587 13.3897 19.705C13.3897 21.3514 14.1814 22.6857 15.1582 22.6857ZM12.8742 28.4949C12.554 27.6949 13.5446 27.0307 14.1629 27.6313C22.8741 36.0936 30.3307 31.2478 33.843 27.8425C34.4565 27.2475 35.455 27.9289 35.1216 28.7156C33.2945 33.0293 29.0231 36.0556 24.0435 36.0556C18.9792 36.0556 14.6475 32.9257 12.8742 28.4949ZM34.6102 19.705C34.6102 21.3514 33.8184 22.6857 32.842 22.6857C31.8652 22.6857 31.0734 21.3514 31.0734 19.705C31.0734 18.0587 31.8652 16.7243 32.842 16.7243C33.8184 16.7243 34.6102 18.0587 34.6102 19.705Z" fill="#FFB300"/>
</svg>
