<svg width="554" height="493" viewBox="0 0 554 493" fill="none" xmlns="http://www.w3.org/2000/svg">
<g clip-path="url(#clip0_238_15464)">
<path d="M291.597 15.7109C288.168 15.7109 285.379 18.5014 285.379 21.9303V313.701C285.379 317.13 288.168 319.92 291.597 319.92H491.863C495.292 319.92 498.082 317.13 498.082 313.701V21.9303C498.082 18.5014 495.292 15.7109 491.863 15.7109H291.597ZM491.863 320.197H291.597C288.016 320.197 285.102 317.283 285.102 313.701V21.9303C285.102 18.3474 288.016 15.4338 291.597 15.4338H491.863C495.445 15.4338 498.359 18.3474 498.359 21.9303V313.701C498.359 317.283 495.445 320.197 491.863 320.197Z" fill="#DADBD8"/>
<path d="M60.6588 15.7109C57.2306 15.7109 54.4411 18.5014 54.4411 21.9303V313.701C54.4411 317.13 57.2306 319.92 60.6588 319.92H260.926C264.355 319.92 267.144 317.13 267.144 313.701V21.9303C267.144 18.5014 264.355 15.7109 260.926 15.7109H60.6588ZM260.926 320.197H60.6588C57.0773 320.197 54.1641 317.283 54.1641 313.701V21.9303C54.1641 18.3474 57.0773 15.4338 60.6588 15.4338H260.926C264.507 15.4338 267.421 18.3474 267.421 21.9303V313.701C267.421 317.283 264.507 320.197 260.926 320.197Z" fill="#DADBD8"/>
<path d="M0 345.219H554V344.942H0V345.219Z" fill="#DADBD8"/>
<path d="M57.2529 360.749H75.0475V361.026H57.2529V360.749Z" fill="#DADBD8"/>
<path d="M188.75 357.746H248.061V358.023H188.75V357.746Z" fill="#DADBD8"/>
<path d="M76.1553 371.045H116.32V371.322H76.1553V371.045Z" fill="#DADBD8"/>
<path d="M419.214 357.879H467.069V357.602H419.214V357.879Z" fill="#DADBD8"/>
<path d="M476.94 357.602H483.954V357.879H476.94V357.602Z" fill="#DADBD8"/>
<path d="M350.363 364.506H410.073V364.783H350.363V364.506Z" fill="#DADBD8"/>
<path d="M326.401 350.495C333.038 355.807 334.114 365.494 328.804 372.133C323.494 378.773 313.808 379.848 307.171 374.537C300.534 369.225 299.458 359.538 304.769 352.9C310.078 346.26 319.763 345.184 326.401 350.495ZM287.566 348.7C285.702 352.366 284.611 356.287 284.236 360.246L278.137 361.512L279.462 373.452L285.692 373.348C286.924 377.129 288.85 380.714 291.474 383.883L288.064 389.077L297.444 396.582L301.761 392.116C305.428 393.98 309.347 395.073 313.307 395.445L314.571 401.547L326.509 400.22L326.406 393.991C330.186 392.756 333.771 390.83 336.938 388.207L342.131 391.617L349.635 382.236L345.17 377.916C347.032 374.25 348.125 370.329 348.498 366.369L354.598 365.104L353.272 353.163L347.043 353.268C345.81 349.486 343.883 345.901 341.261 342.733L344.67 337.538L335.291 330.033L330.973 334.5C327.306 332.636 323.386 331.543 319.429 331.169L318.162 325.069L306.225 326.395L306.329 332.626C302.548 333.859 298.964 335.785 295.797 338.408L290.604 334.998L283.101 344.38L287.566 348.7Z" fill="#EDEDEB"/>
<path d="M255.14 346.745C259.947 350.592 260.727 357.61 256.88 362.419C253.034 367.229 246.018 368.008 241.209 364.16C236.401 360.313 235.621 353.295 239.468 348.486C243.315 343.677 250.331 342.897 255.14 346.745ZM227.007 345.443C225.656 348.099 224.866 350.939 224.594 353.808L220.176 354.725L221.136 363.375L225.649 363.299C226.542 366.039 227.937 368.637 229.838 370.932L227.368 374.694L234.162 380.131L237.29 376.895C239.946 378.246 242.786 379.036 245.654 379.308L246.571 383.728L255.218 382.766L255.143 378.254C257.882 377.36 260.478 375.964 262.773 374.064L266.536 376.534L271.97 369.738L268.736 366.61C270.086 363.953 270.877 361.113 271.147 358.245L275.566 357.327L274.606 348.677L270.093 348.753C269.2 346.014 267.804 343.416 265.905 341.121L268.375 337.359L261.58 331.922L258.452 335.158C255.796 333.807 252.956 333.016 250.088 332.744L249.172 328.324L240.524 329.286L240.6 333.799C237.861 334.694 235.263 336.088 232.97 337.988L229.207 335.518L223.772 342.315L227.007 345.443Z" fill="#EDEDEB"/>
<path d="M272.547 390.426C274.519 392.004 274.839 394.883 273.262 396.855C271.684 398.828 268.805 399.148 266.834 397.57C264.862 395.992 264.542 393.114 266.119 391.141C267.697 389.168 270.575 388.848 272.547 390.426ZM261.008 389.893C260.454 390.983 260.131 392.147 260.019 393.324L258.206 393.7L258.601 397.247L260.452 397.216C260.818 398.34 261.39 399.405 262.169 400.347L261.157 401.89L263.943 404.12L265.226 402.793C266.316 403.347 267.48 403.672 268.657 403.783L269.032 405.596L272.579 405.201L272.549 403.35C273.672 402.984 274.737 402.41 275.678 401.632L277.222 402.645L279.451 399.857L278.123 398.574C278.677 397.484 279.002 396.32 279.113 395.143L280.926 394.767L280.531 391.22L278.681 391.25C278.314 390.127 277.742 389.061 276.962 388.12L277.976 386.576L275.188 384.346L273.905 385.674C272.816 385.12 271.652 384.795 270.476 384.684L270.099 382.871L266.553 383.266L266.584 385.117C265.46 385.483 264.395 386.055 263.454 386.835L261.911 385.822L259.682 388.61L261.008 389.893Z" fill="#EDEDEB"/>
<path d="M513.322 215.799C517.841 241.592 500.599 266.167 474.81 270.686C449.022 275.205 424.453 257.96 419.935 232.166C415.417 206.373 432.658 181.799 458.447 177.279C484.236 172.759 508.803 190.005 513.322 215.799Z" fill="#E7E8E5"/>
<path d="M504.27 217.386C507.912 238.178 494.013 257.988 473.225 261.632C452.436 265.275 432.631 251.373 428.988 230.58C425.346 209.787 439.245 189.978 460.034 186.334C480.822 182.691 500.627 196.593 504.27 217.386Z" fill="white"/>
<path d="M492.963 219.367C495.512 233.915 485.788 247.775 471.243 250.324C456.698 252.873 442.842 243.146 440.293 228.599C437.745 214.051 447.47 200.191 462.015 197.643C476.558 195.094 490.415 204.821 492.963 219.367Z" fill="#EDEDEB"/>
<path d="M483.296 221.062C484.909 230.269 478.755 239.041 469.549 240.654C460.344 242.268 451.574 236.112 449.961 226.904C448.348 217.697 454.503 208.925 463.708 207.312C472.913 205.698 481.683 211.854 483.296 221.062Z" fill="#DADBD8"/>
<path d="M473.178 222.693C473.814 226.324 471.388 229.784 467.757 230.42C464.126 231.057 460.668 228.629 460.031 224.997C459.395 221.366 461.823 217.907 465.453 217.271C469.083 216.633 472.542 219.062 473.178 222.693Z" fill="#EDEDEB"/>
<path d="M509.816 189.876L509.853 187.976C509.881 186.575 510.526 185.256 511.615 184.374L517.309 179.76L516.174 184.943L509.816 189.876Z" fill="#E7E8E5"/>
<path d="M509.769 189.607L511.581 190.174C512.92 190.592 514.375 190.398 515.557 189.645L521.736 185.706L516.461 185.139L509.769 189.607Z" fill="#E7E8E5"/>
<path d="M467.123 224.037C472.89 219.563 478.657 215.089 484.424 210.616C493.612 203.489 502.799 196.362 511.988 189.235C514.09 187.604 516.193 185.972 518.294 184.342C519.139 183.687 517.954 182.518 517.12 183.166C511.352 187.64 505.585 192.114 499.817 196.587C490.63 203.715 481.442 210.842 472.255 217.969C470.153 219.6 468.05 221.231 465.947 222.861C465.104 223.516 466.287 224.685 467.123 224.037Z" fill="#DADBD8"/>
<path d="M103.819 83.1246C103.819 83.1246 119.234 96.7348 123.4 85.1859C123.4 85.1859 124.171 81.7005 126.291 77.3229C128.41 72.9454 130.873 65.6986 123.051 60.6417C115.228 55.5848 103.95 50.5069 103.95 50.5069L89.2383 71.7385C89.2383 71.7385 95.1869 77.4925 96.2854 86.579C97.2349 94.4364 96.6135 96.951 97.573 96.8845C98.5321 96.8191 101.258 95.7851 102.998 91.6924C104.738 87.5985 103.819 83.1246 103.819 83.1246Z" fill="#EDEDEB"/>
<path d="M90.0146 36.6444L106.058 47.7656L87.5831 74.4287L71.54 63.3064L90.0146 36.6444Z" fill="#DADBD8"/>
<path d="M174.465 22.8019C174.465 22.8019 150.565 9.04754 148.184 25.3375C148.184 25.3375 148.104 30.124 146.491 36.4443C144.878 42.7646 143.58 52.946 155.213 57.4953C166.846 62.0458 183.027 65.6963 183.027 65.6963L196.673 33.8577C196.673 33.8577 187.316 27.8898 183.439 16.2445C180.088 6.1739 180.231 2.70288 178.989 3.04755C177.745 3.3911 174.44 5.48015 173.25 11.3239C172.059 17.1676 174.465 22.8019 174.465 22.8019Z" fill="#EDEDEB"/>
<path d="M205.049 80.1787L180.99 69.8632L198.128 29.8802L222.186 40.1957L205.049 80.1787Z" fill="#DADBD8"/>
<path d="M315.066 155.287C318.942 158.386 319.571 164.043 316.47 167.92C313.369 171.796 307.714 172.423 303.839 169.323C299.963 166.222 299.336 160.566 302.436 156.69C305.537 152.813 311.192 152.185 315.066 155.287ZM292.392 154.237C291.304 156.378 290.667 158.667 290.449 160.98L286.887 161.718L287.661 168.69L291.299 168.629C292.018 170.836 293.142 172.93 294.674 174.78L292.684 177.813L298.16 182.195L300.681 179.587C302.821 180.674 305.11 181.313 307.421 181.531L308.16 185.093L315.13 184.318L315.07 180.681C317.277 179.961 319.37 178.836 321.219 177.304L324.251 179.296L328.632 173.818L326.025 171.296C327.113 169.155 327.751 166.867 327.968 164.555L331.529 163.816L330.756 156.844L327.119 156.905C326.399 154.697 325.275 152.604 323.743 150.754L325.733 147.722L320.257 143.34L317.736 145.948C315.596 144.859 313.307 144.221 310.996 144.003L310.257 140.441L303.287 141.215L303.347 144.853C301.14 145.573 299.047 146.697 297.199 148.229L294.166 146.238L289.785 151.716L292.392 154.237Z" fill="#EDEDEB"/>
<path d="M65.305 240.288C69.1799 243.389 69.8083 249.045 66.7082 252.921C63.6074 256.798 57.9523 257.425 54.0774 254.324C50.2019 251.224 49.5739 245.568 52.6746 241.692C55.7749 237.815 61.4295 237.187 65.305 240.288ZM42.6303 239.239C41.5423 241.379 40.9052 243.669 40.6866 245.982L37.125 246.72L37.8993 253.692L41.5366 253.631C42.2559 255.838 43.3809 257.932 44.9121 259.781L42.9216 262.815L48.398 267.197L50.9192 264.589C53.0594 265.676 55.3481 266.315 57.6593 266.533L58.3982 270.095L65.3681 269.32L65.3075 265.683C67.5149 264.962 69.608 263.838 71.4569 262.306L74.4892 264.298L78.8701 258.819L76.2633 256.298C77.3509 254.157 77.9885 251.869 78.2066 249.557L81.7679 248.817L80.9939 241.846L77.357 241.907C76.6368 239.699 75.5124 237.606 73.9811 235.756L75.9716 232.723L70.4952 228.341L67.974 230.948C65.8338 229.86 63.5451 229.223 61.2339 229.005L60.4947 225.443L53.5251 226.217L53.5857 229.855C51.3783 230.575 49.2857 231.699 47.4363 233.23L44.4044 231.24L40.0235 236.718L42.6303 239.239Z" fill="#EDEDEB"/>
<path d="M270.126 161.749C272.098 163.328 272.417 166.206 270.84 168.178C269.262 170.151 266.384 170.471 264.412 168.893C262.44 167.315 262.121 164.437 263.698 162.464C265.276 160.492 268.154 160.171 270.126 161.749ZM258.587 161.216C258.033 162.305 257.709 163.47 257.598 164.646L255.785 165.023L256.179 168.571L258.03 168.54C258.396 169.663 258.968 170.728 259.747 171.67L258.735 173.213L261.521 175.443L262.804 174.116C263.893 174.67 265.059 174.995 266.235 175.106L266.611 176.919L270.158 176.524L270.127 174.674C271.251 174.307 272.315 173.734 273.256 172.955L274.8 173.968L277.029 171.181L275.703 169.897C276.257 168.808 276.58 167.643 276.691 166.466L278.504 166.09L278.11 162.542L276.259 162.573C275.893 161.45 275.32 160.384 274.541 159.443L275.554 157.899L272.767 155.67L271.484 156.997C270.395 156.443 269.23 156.118 268.054 156.008L267.678 154.195L264.131 154.589L264.162 156.44C263.038 156.807 261.973 157.379 261.033 158.158L259.489 157.145L257.26 159.932L258.587 161.216Z" fill="#EDEDEB"/>
<path d="M241.767 125.699C243.738 127.278 244.058 130.156 242.48 132.129C240.902 134.101 238.024 134.42 236.053 132.842C234.08 131.264 233.76 128.386 235.338 126.413C236.916 124.441 239.794 124.122 241.767 125.699ZM230.227 125.166C229.674 126.255 229.349 127.42 229.237 128.597L227.426 128.972L227.819 132.52L229.671 132.49C230.036 133.613 230.609 134.679 231.388 135.62L230.375 137.163L233.162 139.393L234.445 138.065C235.534 138.62 236.699 138.944 237.875 139.055L238.251 140.868L241.799 140.474L241.768 138.623C242.891 138.256 243.956 137.684 244.897 136.904L246.44 137.918L248.669 135.13L247.343 133.846C247.896 132.757 248.221 131.592 248.332 130.415L250.144 130.04L249.75 126.492L247.899 126.523C247.533 125.399 246.961 124.334 246.182 123.392L247.195 121.85L244.407 119.62L243.125 120.946C242.036 120.392 240.87 120.068 239.695 119.957L239.318 118.144L235.771 118.538L235.802 120.389C234.679 120.756 233.614 121.328 232.673 122.108L231.13 121.095L228.901 123.882L230.227 125.166Z" fill="#DADBD8"/>
<path d="M519.004 482.155C519.004 488.145 412.414 493 280.926 493C149.439 493 42.8467 488.145 42.8467 482.155C42.8467 476.165 149.439 471.31 280.926 471.31C412.414 471.31 519.004 476.165 519.004 482.155Z" fill="#F3F2F1"/>
<path d="M326.026 440.306C328.582 440.166 330.993 438.922 332.877 437.189C334.76 435.456 336.159 433.258 337.315 430.975C340.388 424.913 341.872 418.054 341.585 411.264C341.523 409.808 341.373 408.319 340.747 407.004C340.122 405.687 338.94 404.557 337.497 404.35C335.344 404.039 333.465 405.76 332.098 407.452C325.887 415.134 322.694 425.192 323.333 435.05C323.491 437.462 324.295 439.793 326.026 440.306Z" fill="#406FBF"/>
<path d="M314.597 426.949C316.697 422.582 316.852 417.41 315.463 412.767C314.074 408.125 311.22 404 307.686 400.687C303.81 397.052 298.833 394.261 293.52 394.232C291.255 394.221 288.803 394.828 287.413 396.617C285.933 398.521 286.054 401.228 286.704 403.55C287.767 407.354 290.024 410.739 292.72 413.625C295.416 416.511 298.554 418.942 301.684 421.348C305.212 424.061 309.022 426.871 313.46 427.21" fill="#406FBF"/>
<path d="M314.282 441.682C313.656 436.775 309.846 432.719 305.391 430.574C300.936 428.429 295.89 427.902 290.952 427.655C289.851 427.6 288.726 427.56 287.674 427.887C286.624 428.214 285.644 428.981 285.362 430.046C284.992 431.44 285.876 432.839 286.799 433.947C292.209 440.442 300.673 444.276 309.123 444.06C310.1 444.034 311.096 443.954 311.999 443.579C312.902 443.203 313.709 442.489 313.98 441.55" fill="#406FBF"/>
<path d="M336.699 407.961C329.147 426.431 323.534 445.657 319.962 465.29C319.867 465.813 320.668 466.038 320.763 465.511C324.335 445.879 329.948 426.652 337.502 408.182C337.703 407.687 336.9 407.472 336.699 407.961Z" fill="#17282F"/>
<path d="M320.447 459.601C320.736 450.566 320.008 441.436 317.438 432.738C314.906 424.172 310.559 416.244 304.61 409.574C300.859 405.368 296.533 401.722 291.892 398.537C291.448 398.233 291.033 398.954 291.472 399.255C299.384 404.683 306.254 411.553 311.069 419.896C315.426 427.446 317.953 435.917 319.017 444.544C319.632 449.538 319.777 454.575 319.616 459.601C319.598 460.136 320.429 460.135 320.447 459.601Z" fill="#17282F"/>
<path d="M319.955 446.822C312.879 438.614 302.996 432.895 292.318 430.982C291.795 430.889 291.571 431.69 292.097 431.785C302.65 433.675 312.373 439.296 319.367 447.41C319.716 447.817 320.302 447.226 319.955 446.822Z" fill="#17282F"/>
<path d="M303.938 465.986V455.367H333.515V465.986C333.515 465.986 334.083 484.761 323.656 486.467H318.727H313.797C303.37 484.761 303.938 465.986 303.938 465.986Z" fill="#406FBF"/>
<path d="M323.656 486.467H313.797C304.398 484.928 303.934 469.524 303.933 466.501C303.933 466.169 303.938 465.986 303.938 465.986V455.367H318.727H333.515V465.986C333.515 465.986 333.521 466.166 333.521 466.491C333.522 469.491 333.065 484.927 323.656 486.467Z" fill="#254583"/>
<path d="M174.176 394.515C174.176 394.515 149.702 403.32 159.964 414.972C159.964 414.972 163.358 417.95 166.92 422.968C170.481 427.985 177.012 435.13 187.383 429.536C197.752 423.941 210.251 414.527 210.251 414.527L195.678 385.283C195.678 385.283 185.677 388.373 174.935 384.057C165.648 380.324 163.239 378.103 162.728 379.207C162.217 380.311 161.702 383.964 165.179 388.387C168.656 392.809 174.176 394.515 174.176 394.515Z" fill="#406FBF"/>
<path d="M180.093 431.577C173.833 431.577 169.56 426.688 166.92 422.968C163.358 417.951 159.964 414.973 159.964 414.973C158.186 412.954 157.45 411.018 157.45 409.201C157.451 400.532 174.177 394.516 174.177 394.516C174.177 394.516 168.657 392.809 165.18 388.387C162.953 385.553 162.363 383.036 162.362 381.303C162.361 380.33 162.545 379.604 162.729 379.208C162.817 379.016 162.965 378.924 163.195 378.924C164.288 378.924 167.267 380.976 174.936 384.057C179.352 385.831 183.642 386.354 187.165 386.354C192.21 386.354 195.678 385.283 195.678 385.283L210.251 414.527C210.251 414.527 197.753 423.941 187.383 429.536C184.7 430.983 182.276 431.577 180.093 431.577Z" fill="#A4C3E9"/>
<path d="M234.105 407.518L212.006 418.534L193.705 381.808L215.804 370.791L234.105 407.518Z" fill="#406FBF"/>
<path d="M211.187 384.154C211.187 385.817 209.839 387.167 208.176 387.167C206.512 387.167 205.163 385.817 205.163 384.154C205.163 382.49 206.512 381.14 208.176 381.14C209.839 381.14 211.187 382.49 211.187 384.154Z" fill="white"/>
<path d="M377.855 356.026H152.227C148.484 356.026 145.45 352.992 145.45 349.247V170.78C145.45 167.036 148.484 164.001 152.227 164.001H377.855C381.598 164.001 384.633 167.036 384.633 170.78V349.247C384.633 352.992 381.598 356.026 377.855 356.026Z" fill="#406FBF"/>
<path d="M377.855 356.026H152.227C148.484 356.026 145.45 352.992 145.45 349.247V170.78C145.45 167.036 148.484 164.001 152.227 164.001H377.855C381.598 164.001 384.633 167.036 384.633 170.78V319.92V320.197V344.942V345.219V349.247C384.633 352.992 381.598 356.026 377.855 356.026ZM167.416 242.765C164.274 242.765 161.728 245.312 161.728 248.454V329.292C161.728 332.434 164.274 334.982 167.416 334.982H210.407C213.548 334.982 216.094 332.434 216.094 329.292V248.454C216.094 245.312 213.548 242.765 210.407 242.765H167.416ZM292.868 237.158C292.057 237.158 291.4 237.815 291.4 238.626V241.297C291.4 242.108 292.057 242.765 292.868 242.765H313.639C314.45 242.765 315.107 242.108 315.107 241.297V238.626C315.107 237.815 314.45 237.158 313.639 237.158H292.868ZM254.415 237.158C253.604 237.158 252.947 237.815 252.947 238.626V241.297C252.947 242.108 253.604 242.765 254.415 242.765H284.717C285.527 242.765 286.184 242.108 286.184 241.297V238.626C286.184 237.815 285.527 237.158 284.717 237.158H254.415ZM226.197 237.158C225.386 237.158 224.729 237.815 224.729 238.626V241.297C224.729 242.108 225.386 242.765 226.197 242.765H246.403C247.213 242.765 247.872 242.108 247.872 241.297V238.626C247.872 237.815 247.213 237.158 246.403 237.158H226.197ZM178.241 172.611C176.173 172.611 174.495 174.289 174.495 176.358C174.495 178.428 176.173 180.106 178.241 180.106C180.311 180.106 181.988 178.428 181.988 176.358C181.988 174.289 180.311 172.611 178.241 172.611ZM168.112 172.611C166.043 172.611 164.366 174.289 164.366 176.358C164.366 178.428 166.043 180.106 168.112 180.106C170.181 180.106 171.858 178.428 171.858 176.358C171.858 174.289 170.181 172.611 168.112 172.611ZM157.982 172.611C155.913 172.611 154.236 174.289 154.236 176.358C154.236 178.428 155.913 180.106 157.982 180.106C160.05 180.106 161.728 178.428 161.728 176.358C161.728 174.289 160.05 172.611 157.982 172.611Z" fill="#A4C3E9"/>
<path d="M365.306 232.017H225.609C224.116 232.017 222.906 230.805 222.906 229.312V195.841C222.906 194.349 224.116 193.138 225.609 193.138H365.306C366.799 193.138 368.009 194.349 368.009 195.841V229.312C368.009 230.805 366.799 232.017 365.306 232.017Z" fill="#406FBF"/>
<path d="M227.143 256.379C263.244 256.379 299.345 256.379 335.444 256.379C345.575 256.379 355.705 256.379 365.836 256.379C367.974 256.379 367.979 253.054 365.836 253.054C329.735 253.054 293.634 253.054 257.533 253.054C247.404 253.054 237.273 253.054 227.143 253.054C225.003 253.054 225 256.379 227.143 256.379Z" fill="#17282F"/>
<path d="M227.143 265.298C263.244 265.298 299.345 265.298 335.444 265.298C345.575 265.298 355.705 265.298 365.836 265.298C367.974 265.298 367.979 261.973 365.836 261.973C329.735 261.973 293.634 261.973 257.533 261.973C247.404 261.973 237.273 261.973 227.143 261.973C225.003 261.973 225 265.298 227.143 265.298Z" fill="#17282F"/>
<path d="M227.143 302.504C263.244 302.504 299.345 302.504 335.444 302.504C345.575 302.504 355.705 302.504 365.836 302.504C367.974 302.504 367.979 299.179 365.836 299.179C329.735 299.179 293.634 299.179 257.533 299.179C247.404 299.179 237.273 299.179 227.143 299.179C225.003 299.179 225 302.504 227.143 302.504Z" fill="#17282F"/>
<path d="M227.143 312.213C263.244 312.213 299.345 312.213 335.444 312.213C345.575 312.213 355.705 312.213 365.836 312.213C367.974 312.213 367.979 308.888 365.836 308.888C329.735 308.888 293.634 308.888 257.533 308.888C247.404 308.888 237.273 308.888 227.143 308.888C225.003 308.888 225 312.213 227.143 312.213Z" fill="#17282F"/>
<path d="M227.143 321.055C248.955 321.055 270.767 321.055 292.579 321.055C298.745 321.055 304.912 321.055 311.078 321.055C313.217 321.055 313.22 317.73 311.078 317.73C289.266 317.73 267.454 317.73 245.642 317.73C239.475 317.73 233.309 317.73 227.143 317.73C225.003 317.73 225 321.055 227.143 321.055Z" fill="#17282F"/>
<path d="M227.143 293.59C263.244 293.59 299.345 293.59 335.444 293.59C345.575 293.59 355.705 293.59 365.836 293.59C367.974 293.59 367.979 290.265 365.836 290.265C329.735 290.265 293.634 290.265 257.533 290.265C247.404 290.265 237.273 290.265 227.143 290.265C225.003 290.265 225 293.59 227.143 293.59Z" fill="#17282F"/>
<path d="M227.143 274.217C250.635 274.217 274.127 274.217 297.617 274.217C299.757 274.217 299.76 270.892 297.617 270.892C274.127 270.892 250.635 270.892 227.143 270.892C225.003 270.892 225 274.217 227.143 274.217Z" fill="#17282F"/>
<path d="M210.407 334.981H167.417C164.275 334.981 161.729 332.434 161.729 329.292V248.453C161.729 245.312 164.275 242.765 167.417 242.765H210.407C213.549 242.765 216.095 245.312 216.095 248.453V329.292C216.095 332.434 213.549 334.981 210.407 334.981Z" fill="#759ED9"/>
<path d="M206.195 212.577C206.195 223.096 197.67 231.623 187.154 231.623C176.637 231.623 168.112 223.096 168.112 212.577C168.112 202.059 176.637 193.531 187.154 193.531C197.67 193.531 206.195 202.059 206.195 212.577Z" fill="#406FBF"/>
<path d="M157.981 180.105C155.913 180.105 154.235 178.428 154.235 176.357C154.235 174.288 155.913 172.61 157.981 172.61C160.05 172.61 161.728 174.288 161.728 176.357C161.728 178.428 160.05 180.105 157.981 180.105Z" fill="#759ED9"/>
<path d="M168.112 180.105C166.044 180.105 164.366 178.428 164.366 176.357C164.366 174.288 166.044 172.61 168.112 172.61C170.181 172.61 171.859 174.288 171.859 176.357C171.859 178.428 170.181 180.105 168.112 180.105Z" fill="#759ED9"/>
<path d="M178.241 180.105C176.173 180.105 174.495 178.428 174.495 176.357C174.495 174.288 176.173 172.61 178.241 172.61C180.311 172.61 181.987 174.288 181.987 176.357C181.987 178.428 180.311 180.105 178.241 180.105Z" fill="#759ED9"/>
<path d="M224.834 214.493C232.281 210.003 240.912 206.594 249.62 205.735C253.816 205.321 258.185 205.712 261.862 207.927C265.161 209.914 267.926 213.547 267.425 217.587C267.166 219.675 265.857 221.531 263.783 222.125C262.046 222.623 260.334 221.911 259.442 220.348C257.792 217.458 259.021 213.918 261.274 211.761C267.125 206.159 275.956 208.595 282.361 211.634C289.51 215.025 296.981 219.799 305.262 218.338C308.392 217.785 311.608 216.074 313.168 213.195C314.553 210.642 314.201 207.57 312.251 205.398C310.338 203.268 307.252 202.956 305.053 204.842C302.512 207.018 302.354 210.621 303.705 213.489C306.653 219.754 314.636 222.691 321.138 221.191C328.264 219.549 332.73 213.193 338.466 209.215C344.593 204.966 352.583 204.017 359.599 206.483C361.396 207.115 363.079 207.99 364.661 209.047C365.553 209.644 366.386 208.205 365.5 207.612C359.55 203.637 351.944 202.485 345.045 204.337C341.61 205.259 338.554 206.963 335.778 209.16C332.867 211.466 330.285 214.171 327.285 216.364C324.208 218.613 320.723 220.103 316.855 219.91C313.115 219.724 309.436 218.074 306.913 215.29C305.471 213.697 304.297 211.552 304.509 209.339C304.684 207.499 305.967 205.55 307.899 205.255C309.621 204.991 311.087 206.235 311.822 207.693C312.649 209.335 312.498 211.13 311.544 212.685C309.434 216.125 304.926 217.131 301.177 216.917C296.704 216.661 292.474 214.809 288.516 212.842C281.786 209.5 274.614 205.427 266.831 207.146C261.212 208.387 255.409 213.484 257.407 219.796C258.269 222.519 260.754 224.396 263.671 223.858C267.041 223.235 269.114 220.089 269.146 216.792C269.22 209.119 261.367 204.582 254.604 204.006C250.221 203.631 245.765 204.486 241.545 205.597C237.464 206.673 233.487 208.149 229.682 209.974C227.737 210.908 225.843 211.943 223.995 213.057C223.08 213.609 223.914 215.047 224.834 214.493Z" fill="white"/>
<path d="M246.403 242.766H226.197C225.386 242.766 224.729 242.108 224.729 241.297V238.626C224.729 237.815 225.386 237.158 226.197 237.158H246.403C247.213 237.158 247.871 237.815 247.871 238.626V241.297C247.871 242.108 247.213 242.766 246.403 242.766Z" fill="#759ED9"/>
<path d="M284.717 242.766H254.415C253.604 242.766 252.947 242.108 252.947 241.297V238.626C252.947 237.815 253.604 237.158 254.415 237.158H284.717C285.527 237.158 286.184 237.815 286.184 238.626V241.297C286.184 242.108 285.527 242.766 284.717 242.766Z" fill="#759ED9"/>
<path d="M313.639 242.766H292.868C292.057 242.766 291.4 242.108 291.4 241.297V238.626C291.4 237.815 292.057 237.158 292.868 237.158H313.639C314.45 237.158 315.107 237.815 315.107 238.626V241.297C315.107 242.108 314.45 242.766 313.639 242.766Z" fill="#759ED9"/>
<path d="M280.954 143.769H141.617C138.086 143.769 135.226 140.906 135.226 137.375V103.204C135.226 99.6728 138.086 96.8103 141.617 96.8103H280.954C284.484 96.8103 287.346 99.6728 287.346 103.204V137.375C287.346 140.906 284.484 143.769 280.954 143.769Z" fill="#406FBF"/>
<path d="M280.954 143.769H141.617C138.086 143.769 135.226 140.906 135.226 137.375V103.204C135.226 99.6728 138.086 96.8103 141.617 96.8103H280.954C284.484 96.8103 287.346 99.6728 287.346 103.204V137.375C287.346 140.906 284.484 143.769 280.954 143.769Z" fill="#406FBF"/>
<path d="M280.954 143.769H141.617C138.086 143.769 135.226 140.906 135.226 137.375V103.204C135.226 99.6728 138.086 96.8103 141.617 96.8103H280.954C284.484 96.8103 287.346 99.6728 287.346 103.204V137.375C287.346 139.189 286.592 140.826 285.378 141.99C285.289 142.076 285.196 142.159 285.101 142.24C283.986 143.193 282.538 143.769 280.954 143.769Z" fill="#A4C3E9"/>
<path d="M161.585 107.291L164.684 113.572C164.952 114.116 165.472 114.494 166.073 114.58L173.001 115.587C174.513 115.807 175.117 117.666 174.024 118.733L169.009 123.621C168.574 124.044 168.376 124.655 168.479 125.253L169.662 132.156C169.921 133.662 168.341 134.811 166.988 134.099L160.791 130.84C160.253 130.559 159.612 130.559 159.074 130.84L152.877 134.099C151.524 134.811 149.944 133.662 150.203 132.156L151.386 125.253C151.489 124.655 151.291 124.044 150.855 123.621L145.842 118.733C144.748 117.666 145.352 115.807 146.863 115.587L153.793 114.58C154.393 114.494 154.912 114.116 155.181 113.572L158.28 107.291C158.956 105.921 160.909 105.921 161.585 107.291Z" fill="#406FBF"/>
<path d="M196.622 107.291L199.72 113.572C199.989 114.116 200.508 114.494 201.108 114.58L208.038 115.587C209.549 115.807 210.153 117.666 209.059 118.733L204.046 123.621C203.611 124.044 203.413 124.655 203.515 125.253L204.698 132.156C204.957 133.662 203.376 134.811 202.023 134.099L195.826 130.84C195.289 130.559 194.648 130.559 194.11 130.84L187.913 134.099C186.56 134.811 184.98 133.662 185.238 132.156L186.422 125.253C186.525 124.655 186.326 124.044 185.892 123.621L180.878 118.733C179.784 117.666 180.388 115.807 181.9 115.587L188.828 114.58C189.429 114.494 189.949 114.116 190.217 113.572L193.316 107.291C193.992 105.921 195.945 105.921 196.622 107.291Z" fill="#406FBF"/>
<path d="M231.658 107.291L234.757 113.572C235.025 114.116 235.544 114.494 236.144 114.58L243.074 115.587C244.586 115.807 245.19 117.666 244.095 118.733L239.082 123.621C238.647 124.044 238.449 124.655 238.551 125.253L239.735 132.156C239.994 133.662 238.413 134.811 237.061 134.099L230.863 130.84C230.325 130.559 229.684 130.559 229.147 130.84L222.949 134.099C221.598 134.811 220.016 133.662 220.275 132.156L221.459 125.253C221.561 124.655 221.363 124.044 220.928 123.621L215.915 118.733C214.82 117.666 215.424 115.807 216.936 115.587L223.866 114.58C224.465 114.494 224.985 114.116 225.253 113.572L228.352 107.291C229.028 105.921 230.982 105.921 231.658 107.291Z" fill="#406FBF"/>
<path d="M266.694 107.291L269.794 113.572C270.062 114.116 270.581 114.494 271.182 114.58L278.11 115.587C279.623 115.807 280.226 117.666 279.132 118.733L274.118 123.621C273.684 124.044 273.485 124.655 273.588 125.253L274.772 132.156C275.03 133.662 273.45 134.811 272.097 134.099L265.899 130.84C265.363 130.559 264.721 130.559 264.184 130.84L257.987 134.099C256.634 134.811 255.053 133.662 255.312 132.156L256.495 125.253C256.597 124.655 256.4 124.044 255.965 123.621L250.951 118.733C249.857 117.666 250.461 115.807 251.973 115.587L258.902 114.58C259.502 114.494 260.021 114.116 260.29 113.572L263.388 107.291C264.065 105.921 266.019 105.921 266.694 107.291Z" fill="#406FBF"/>
<path d="M491.576 124.3C495.914 122.22 497.469 116.189 495.318 111.885C493.168 107.578 488.103 105.197 483.296 105.436C478.491 105.675 474.014 108.197 470.583 111.572C467.146 107.35 460.213 106.582 455.938 109.95C451.733 113.261 452.434 120.047 455.592 124.391C451.892 126.198 449.429 130.616 450.334 134.7C451.45 139.728 457.408 143.064 462.277 141.386C462.265 147.897 468.087 153.859 474.595 154.002C481.104 154.144 487.181 148.443 487.456 141.938C492.421 144.242 499.108 140.983 500.353 135.652C501.598 130.32 497.048 124.436 491.576 124.3Z" fill="#406FBF"/>
<path d="M460.511 148.617C460.511 150.144 459.273 151.382 457.745 151.382C456.218 151.382 454.98 150.144 454.98 148.617C454.98 147.09 456.218 145.852 457.745 145.852C459.273 145.852 460.511 147.09 460.511 148.617Z" fill="#406FBF"/>
<path d="M474.835 154.004C474.756 154.004 474.675 154.003 474.596 154.002C468.087 153.859 462.266 147.896 462.277 141.386C461.41 141.684 460.511 141.823 459.61 141.823C455.443 141.823 451.252 138.833 450.335 134.7C450.207 134.125 450.148 133.545 450.146 132.965C450.146 129.424 452.412 125.943 455.592 124.391C453.977 122.168 453.004 119.306 453.003 116.596C453.002 114.012 453.885 111.566 455.938 109.949C457.742 108.528 460.019 107.844 462.306 107.844C465.441 107.844 468.596 109.13 470.584 111.572C474.014 108.196 478.491 105.675 483.297 105.435C483.518 105.424 483.739 105.419 483.96 105.419C488.561 105.419 493.268 107.776 495.319 111.884C495.966 113.179 496.277 114.629 496.279 116.082C496.282 119.459 494.611 122.845 491.577 124.3C496.429 124.419 500.556 129.061 500.56 133.827C500.562 134.436 500.495 135.047 500.353 135.651C500.024 137.06 499.316 138.323 498.36 139.377C498.269 139.477 498.177 139.575 498.083 139.671C496.23 141.546 493.576 142.688 490.95 142.688C489.753 142.688 488.562 142.451 487.456 141.937C487.186 148.363 481.254 154.004 474.835 154.004Z" fill="#A4C3E9"/>
<path d="M457.745 151.382C456.218 151.382 454.98 150.144 454.98 148.617C454.98 147.09 456.218 145.852 457.745 145.852C459.273 145.852 460.511 147.09 460.511 148.617C460.511 150.144 459.273 151.382 457.745 151.382Z" fill="#A4C3E9"/>
<path d="M474.261 139.302C473.808 138.845 473.582 138.287 473.582 137.63C473.582 136.974 473.803 136.425 474.248 135.984C474.691 135.544 475.258 135.323 475.947 135.323C476.637 135.323 477.204 135.544 477.647 135.984C478.091 136.425 478.313 136.974 478.313 137.63C478.313 138.287 478.087 138.845 477.636 139.302C477.184 139.76 476.621 139.988 475.947 139.988C475.275 139.988 474.712 139.76 474.261 139.302ZM474.654 130.525C475.04 129.869 475.603 129.145 476.342 128.354C476.885 127.774 477.282 127.287 477.536 126.891C477.792 126.497 477.919 126.048 477.919 125.545C477.919 124.831 477.677 124.266 477.191 123.851C476.707 123.436 476.062 123.228 475.258 123.228C474.485 123.228 473.8 123.417 473.2 123.794C472.6 124.169 472.096 124.696 471.685 125.371L468.703 123.316C469.393 122.08 470.325 121.124 471.501 120.449C472.674 119.773 474.067 119.435 475.677 119.435C477.566 119.435 479.081 119.908 480.222 120.855C481.363 121.8 481.934 123.112 481.934 124.792C481.934 125.585 481.823 126.278 481.601 126.877C481.38 127.475 481.109 127.983 480.789 128.397C480.469 128.812 480.053 129.29 479.545 129.831C478.938 130.467 478.493 131.004 478.214 131.437C477.935 131.872 477.795 132.398 477.795 133.015H474.076C474.076 132.011 474.267 131.182 474.654 130.525Z" fill="#406FBF"/>
<path d="M97.3656 138.897H70.6212C65.041 138.897 60.5176 134.374 60.5176 128.791V111.486C60.5176 105.905 65.041 101.38 70.6212 101.38H97.3656C102.945 101.38 107.469 105.905 107.469 111.486V128.791C107.469 134.374 102.945 138.897 97.3656 138.897Z" fill="#406FBF"/>
<path d="M91.1211 120.99C91.1211 122.789 92.5792 124.248 94.3779 124.248C96.1767 124.248 97.6349 122.789 97.6349 120.99C97.6349 119.191 96.1767 117.733 94.3779 117.733C92.5792 117.733 91.1211 119.191 91.1211 120.99Z" fill="white"/>
<path d="M79.7744 120.99C79.7744 122.789 81.2327 124.248 83.0318 124.248C84.8301 124.248 86.2882 122.789 86.2882 120.99C86.2882 119.191 84.8301 117.733 83.0318 117.733C81.2327 117.733 79.7744 119.191 79.7744 120.99Z" fill="white"/>
<path d="M68.5166 120.99C68.5166 122.789 69.9747 124.248 71.7735 124.248C73.5723 124.248 75.0304 122.789 75.0304 120.99C75.0304 119.191 73.5723 117.733 71.7735 117.733C69.9747 117.733 68.5166 119.191 68.5166 120.99Z" fill="white"/>
<path d="M93.0146 137.457L100.682 145.127L102.255 135.326L93.0146 137.457Z" fill="#406FBF"/>
<path d="M442.092 79.7526C442.092 117.721 411.32 148.5 373.359 148.5C335.398 148.5 304.626 117.721 304.626 79.7526C304.626 41.7844 335.398 11.0042 373.359 11.0042C411.32 11.0042 442.092 41.7844 442.092 79.7526Z" fill="#406FBF"/>
<path d="M401.926 142.299C400.914 122.622 399.379 90.1429 399.835 82.4151C400.506 71.0967 394.866 61.5647 394.866 61.5647L379.384 58.1669L378.089 58.1214C378.089 58.1214 372.007 51.7014 379.102 41.3582C381.399 40.8562 383.953 38.8813 384.803 36.3545C385.148 34.9593 385.182 33.8178 384.991 32.9101L385.265 33.0098C385.265 33.0098 394.352 20.8303 388.288 16.7442C388.288 16.7442 380.136 15.6005 377.962 15.3811C375.576 12.9153 372.308 11.3216 368.677 11.1609C370.224 11.0567 371.786 11.0036 373.359 11.0036C411.32 11.0036 442.092 41.7838 442.092 79.752C442.092 107.527 425.627 131.452 401.926 142.299ZM339.967 139.856C328.666 133.561 319.325 124.17 313.09 112.831C315.733 114.884 318.413 116.265 320.988 116.509C321.318 116.54 321.644 116.556 321.97 116.556C330.626 116.556 337.725 105.742 342.083 97.127L343.016 97.6534C342.069 112.008 341.028 127.866 339.967 139.856ZM320.511 100.215C320.456 100.215 320.403 100.21 320.351 100.2C317.481 99.6715 310.25 92.2319 304.942 86.3849C304.732 84.2027 304.626 81.9885 304.626 79.752C304.626 44.6851 330.876 15.7501 364.794 11.5333C364.612 11.5754 364.431 11.6209 364.25 11.6707C347.468 16.7598 348.31 50.0612 363.774 50.9877C363.522 52.3243 363.124 53.8126 363.124 53.8126C363.126 53.8126 363.128 53.8126 363.131 53.8126C362.72 55.3132 362.264 56.6431 361.825 57.5684C359.27 57.666 355.062 58.0317 351.624 58.7365C350.953 58.8551 350.267 59.0191 349.571 59.2286C348.829 59.438 348.166 59.6696 347.615 59.9234C345.631 60.7413 343.607 61.9138 341.665 63.4543C334.912 70.1868 326.02 88.086 326.02 88.086L329.078 89.8071C325.7 95.3937 322.274 100.215 320.511 100.215Z" fill="#B8D2EF"/>
<path d="M394.865 61.5647L379.383 58.1668L364.138 57.6382C364.117 57.2326 347.963 58.0582 346.133 61.0261C344.783 63.2171 342.426 112.145 339.955 139.989C350.359 146.327 360.186 148.587 373.259 148.587C383.495 148.587 393.199 146.332 401.927 142.319C400.915 122.643 399.377 90.145 399.835 82.4151C400.505 71.0966 394.865 61.5647 394.865 61.5647Z" fill="#406FBF"/>
<path d="M346.755 86.722C345.973 88.0264 335.576 117.89 320.988 116.509C308.095 115.288 292.542 85.5594 292.542 85.5594L298.75 79.3345C298.75 79.3345 315.58 99.3215 320.351 100.2C324.343 100.936 338.291 72.9698 338.291 72.9698L346.755 86.722Z" fill="#F89FAB"/>
<path d="M280.905 77.3008C280.977 76.9329 282.004 75.7958 282.004 75.7958C282.004 75.7958 281.596 74.9713 281.578 74.569C281.522 73.4065 282.618 72.5265 283.685 72.0422C283.407 71.7363 283.459 69.1486 285.631 69.3304C284.862 67.9196 286.792 65.794 288.664 66.7216C289.52 67.1449 292.99 69.9354 294.01 70.5849C294.375 68.9735 295.161 67.5937 296.345 66.2517C296.744 65.7995 298.185 65.1323 298.788 65.2177C299.393 65.3008 299.061 65.9524 299.099 66.5542C299.138 67.1549 298.43 68.6144 298.332 69.2095C297.518 74.1213 298.204 76.9384 299.093 81.0223L292.885 86.3828C288.562 83.7696 288.741 83.0681 283.756 80.9901C281.968 80.2454 280.552 79.0895 280.905 77.3008Z" fill="#F89FAB"/>
<path d="M285.618 69.5593C286.263 70.0525 286.941 70.4991 287.652 70.8914C288.319 71.2583 289.071 71.7005 289.844 71.7658C290.515 71.8213 291.126 71.4644 291.455 70.8859C291.823 70.2398 291.766 69.4563 291.503 68.7836C291.387 68.4888 290.905 68.6173 291.022 68.9166C291.252 69.5028 291.332 70.1877 290.961 70.7363C290.57 71.3148 289.931 71.3524 289.316 71.1363C288.702 70.9213 288.111 70.5878 287.551 70.2597C286.967 69.9195 286.407 69.5394 285.87 69.1282C285.615 68.9343 285.367 69.3665 285.618 69.5593Z" fill="#F35E71"/>
<path d="M288.925 71.8008C289.384 72.1898 289.571 72.8537 289.269 73.3989C288.96 73.9586 288.334 74.1592 287.734 74.0107C287.058 73.8444 286.411 73.4709 285.797 73.1507C285.151 72.8149 284.52 72.4503 283.902 72.0624C283.629 71.8917 283.378 72.3228 283.651 72.4935C284.422 72.9778 285.216 73.4255 286.033 73.8289C286.76 74.1891 287.585 74.669 288.427 74.5415C289.076 74.444 289.637 73.9541 289.838 73.3324C290.054 72.6619 289.808 71.8983 289.277 71.4484C289.035 71.2412 288.68 71.5925 288.925 71.8008Z" fill="#F35E71"/>
<path d="M287.353 74.6618C287.831 74.9965 288.079 75.6293 287.907 76.1956C287.719 76.8229 287.122 77.2108 286.479 77.193C285.765 77.1731 285.06 76.8096 284.404 76.5591C283.677 76.2798 282.949 76.0017 282.221 75.7235C281.921 75.6083 281.791 76.0903 282.088 76.2045C283.021 76.5613 283.954 76.9193 284.887 77.2762C285.647 77.5665 286.498 77.8824 287.297 77.5443C288.694 76.9548 288.812 75.0774 287.605 74.2307C287.341 74.0467 287.092 74.4789 287.353 74.6618Z" fill="#F35E71"/>
<path d="M286.043 77.604C286.351 77.8467 286.479 78.2268 286.427 78.6125C286.371 79.0225 286.107 79.3538 285.756 79.5589C284.848 80.0875 283.777 79.7229 282.932 79.2508C282.652 79.0945 282.401 79.5245 282.681 79.6808C283.718 80.2615 285.075 80.6505 286.14 79.9047C286.578 79.5966 286.869 79.1488 286.925 78.6125C286.978 78.1093 286.8 77.5707 286.395 77.2515C286.289 77.1684 286.147 77.1496 286.043 77.2515C285.955 77.3369 285.936 77.5219 286.043 77.604Z" fill="#F35E71"/>
<path d="M293.571 71.4608C291.029 73.7127 290.386 77.433 291.985 80.4231C292.137 80.7057 292.566 80.4541 292.416 80.1715C290.916 77.3677 291.55 73.9155 293.924 71.8132C294.164 71.6004 293.811 71.2491 293.571 71.4608Z" fill="#F35E71"/>
<path d="M361.483 68.2187C358.958 76.526 347.542 100.2 347.542 100.2L326.021 88.0861C326.021 88.0861 334.912 70.1869 341.665 63.4543C352.026 55.229 364.737 57.5064 361.483 68.2187Z" fill="#406FBF"/>
<path d="M341.57 96.8389L334.912 93.0908L343.793 78.6349L341.57 96.8389Z" fill="#3563B7"/>
<path d="M364.587 44.2092L381.121 35.4109C381 36.5967 380.956 38.873 379.989 40.1353C371.525 51.1933 378.088 58.122 378.088 58.122C373.623 61.4168 363.701 62.9528 361.729 57.7651C363.123 55.0012 364.72 47.9506 364.587 44.2092Z" fill="#F89FAB"/>
<path d="M363.131 53.8125C363.128 53.8125 363.126 53.8125 363.124 53.8125C363.124 53.8125 363.522 52.3241 363.774 50.9876C363.785 50.9887 363.797 50.9898 363.808 50.9898C363.606 51.9584 363.377 52.9159 363.131 53.8125Z" fill="#8FA5CB"/>
<path d="M363.515 53.8174C363.388 53.8174 363.26 53.8163 363.131 53.8129C363.377 52.9164 363.606 51.9589 363.808 50.9903C364.017 51.0025 364.228 51.008 364.442 51.008C366.978 51.008 369.891 50.158 373.158 48.2152C372.091 50.8817 369.422 53.8174 363.515 53.8174Z" fill="#D78186"/>
<path d="M354.152 15.1928C352.043 18.7503 352.421 27.9243 358.387 26.6166C364.354 25.31 357.778 9.07758 354.152 15.1928Z" fill="#17282F"/>
<path d="M381.744 27.6933C380.02 37.7051 379.249 43.3871 373.587 47.9541C349.196 63.0328 344.432 17.6804 364.25 11.6704C374.41 8.87985 383.469 17.6815 381.744 27.6933Z" fill="#F89FAB"/>
<path d="M388.288 16.7445C388.288 16.7445 379.184 15.4678 377.653 15.3537C376.121 15.2384 374.563 20.6909 374.78 22.4652C374.997 24.2406 377.397 25.0197 377.334 26.7054C377.257 28.1483 374.839 32.3607 375.701 34.3056C376.684 35.0847 382.095 31.8509 382.095 31.8509L385.265 33.0101C385.265 33.0101 394.352 20.8305 388.288 16.7445Z" fill="#17282F"/>
<path d="M388.121 17.5363C389.078 16.6808 390.1 15.199 388.976 12.4284C388.976 13.182 388.019 14.0753 387.432 14.3945C386.845 12.1093 383.87 8.17616 375.52 6.31099C365.243 4.0258 362.551 7.499 359.55 5.95411C356.55 4.40923 360.302 3.22118 360.302 3.22118C360.302 3.22118 355.118 2.02096 353.446 5.9408C351.774 9.86175 353.217 16.7439 362.383 16.3106C371.55 15.8762 373.337 18.864 377.958 18.1237C381.329 17.7048 384.724 17.5086 388.121 17.5363Z" fill="#17282F"/>
<path d="M384.803 36.3546C383.034 41.6198 373.861 44.4901 375.035 36.625C375.71 28.9704 387.093 27.0864 384.803 36.3546Z" fill="#F89FAB"/>
<path d="M366.842 28.7861C366.844 31.2364 364.339 31.1722 364.383 28.744C364.381 26.2937 366.886 26.358 366.842 28.7861Z" fill="#17282F"/>
<path d="M357.125 29.269C357.126 31.7193 354.622 31.6561 354.666 29.228C354.663 26.7766 357.169 26.842 357.125 29.269Z" fill="#17282F"/>
<path d="M360.217 27.9021C360.217 27.9021 356.392 32.6697 355.116 34.6413C356.409 36.0953 358.947 35.7683 358.947 35.7683L360.217 27.9021Z" fill="#F35E71"/>
<path d="M370.054 24.4365C369.891 24.483 369.708 24.442 369.577 24.3146C368.018 22.7985 366.267 23.1576 366.249 23.162C364.123 22.2211 368.053 21.2736 370.254 23.6253C370.523 23.8724 370.403 24.3456 370.054 24.4365Z" fill="#17282F"/>
<path d="M377.874 36.2852C377.861 36.2852 377.848 36.284 377.835 36.2818C377.684 36.2607 377.577 36.1211 377.6 35.9693C377.72 35.1304 378.209 34.2449 378.867 33.5456C379.528 32.8518 380.364 32.3321 381.242 32.3276C381.247 32.3276 381.252 32.3276 381.256 32.3276C381.902 32.3276 382.545 32.6479 383.031 33.3317C383.12 33.4558 383.092 33.6298 382.968 33.7185C382.919 33.7539 382.863 33.7706 382.806 33.7706C382.72 33.7706 382.635 33.7307 382.581 33.6553C382.163 33.0823 381.718 32.8851 381.242 32.8818C381.238 32.8818 381.235 32.8818 381.232 32.8818C380.591 32.8818 379.857 33.3017 379.269 33.9268C378.678 34.5496 378.241 35.3664 378.148 36.0468C378.128 36.1854 378.01 36.2852 377.874 36.2852Z" fill="#D78186"/>
<path d="M352.879 23.2695C352.523 23.1609 352.425 22.6478 352.729 22.4228C354.831 20.7627 356.944 21.4819 357.042 21.503C357.634 21.6958 357.334 22.6334 356.739 22.4261C356.415 22.0593 354.555 22.4129 352.879 23.2695Z" fill="#17282F"/>
<path d="M360.319 39.2193C361.235 40.3431 362.068 41.53 362.811 42.7734C363.046 42.6803 363.29 42.5917 363.521 42.4864C366.73 41.1732 367.792 39.5086 367.976 38.0523C368.053 37.3397 367.962 36.6183 367.71 35.9456C367.577 35.5644 367.392 35.2031 367.159 34.8717C365.873 36.5862 362.984 38.0391 361.403 38.7506C360.708 39.0243 360.319 39.2193 360.319 39.2193Z" fill="#17282F"/>
<path d="M361.403 38.7322L362.168 39.7617C365.179 38.5194 367.135 37.2504 367.709 35.9283C367.576 35.546 367.391 35.1847 367.158 34.8544C365.865 36.5844 362.984 38.0218 361.403 38.7322Z" fill="white"/>
<path d="M363.481 42.5146C366.69 41.2014 367.752 39.5368 367.936 38.0817C366.726 38.6026 365.617 39.334 364.661 40.2416C364.041 40.8578 363.629 41.6524 363.481 42.5146Z" fill="#F0364D"/>
<path d="M341.946 96.1263C342.959 89.1533 343.971 82.1792 344.984 75.2061C345.059 74.6819 344.259 74.457 344.183 74.9845C343.17 81.9586 342.157 88.9317 341.145 95.9058C341.068 96.4289 341.869 96.655 341.946 96.1263Z" fill="#040606"/>
<path d="M415.919 127.89C415.197 119.72 410.455 92.4189 406.897 79.2996C405.951 75.8109 402.902 72.945 399.016 72.3166C397.541 72.0783 396.017 72.188 394.674 72.986C390.197 75.648 389.387 84.4219 391.448 91.877C393.817 100.445 398.669 113.557 401.083 125.211C401.286 126.187 401.452 133.815 401.578 142.498C406.581 140.333 411.305 137.309 415.699 133.919C415.952 131.169 416.035 129.206 415.919 127.89Z" fill="#F89FAB"/>
<path d="M406.708 72.3452C410.823 82.7915 415.319 99.2765 415.319 99.2765L391.99 104.568C389.325 96.3297 385.993 87.3452 386.783 78.722C387.999 67.0013 389.131 59.7401 396.326 61.8834C399.972 62.9706 404.281 66.1801 406.708 72.3452Z" fill="#406FBF"/>
<path d="M415.207 98.8759C407.838 100.639 400.467 102.403 393.097 104.168C393.268 104.264 393.438 104.361 393.609 104.457C392.063 97.2812 390.518 90.1042 388.973 82.9284C388.86 82.4053 388.059 82.627 388.172 83.1489C389.717 90.3259 391.262 97.5017 392.808 104.679C392.856 104.903 393.11 105.019 393.319 104.969C400.689 103.205 408.058 101.442 415.429 99.6772C415.948 99.5531 415.728 98.7507 415.207 98.8759Z" fill="#040606"/>
<path d="M384.611 134.162C384.544 134.162 384.475 134.143 384.404 134.102C371.939 126.829 360.691 117.589 351.142 106.769C350.871 106.464 351.15 106.047 351.455 106.047C351.549 106.047 351.646 106.086 351.729 106.181C361.235 116.952 372.415 126.145 384.823 133.384C385.214 133.612 384.974 134.162 384.611 134.162Z" fill="#2D5BB2"/>
<path d="M294.615 35.3903C287.318 25.4217 289.604 11.48 299.724 4.2499C309.843 -2.98025 323.961 -0.760448 331.26 9.20927C336.893 16.9049 336.792 26.9577 331.807 34.4738L333.561 40.9381L326.443 40.118C326.342 40.1923 326.253 40.2765 326.151 40.3497C316.031 47.5798 301.912 45.3589 294.615 35.3903Z" fill="#406FBF"/>
<path d="M293.432 5.52977C288.764 9.74219 286.088 15.9461 286.087 22.1611C286.087 23.3702 286.188 24.5793 286.396 25.774C286.449 26.0754 286.736 26.2771 287.038 26.2239C287.339 26.1718 287.541 25.8848 287.487 25.5834C287.291 24.453 287.195 23.3082 287.195 22.1611C287.193 16.2631 289.75 10.3384 294.174 6.35321C294.401 6.14819 294.419 5.79798 294.214 5.57079C294.01 5.34249 293.659 5.32475 293.432 5.52977Z" fill="#406FBF"/>
<path d="M287.08 28.9872C287.195 30.1664 287.56 31.3156 288.144 32.3473C288.294 32.6144 288.632 32.7075 288.898 32.5568C289.165 32.4061 289.258 32.0681 289.107 31.8021C288.6 30.9055 288.282 29.9015 288.182 28.8797C288.152 28.5749 287.882 28.3522 287.577 28.3821C287.273 28.412 287.05 28.6824 287.08 28.9872Z" fill="#406FBF"/>
<path d="M313.041 31.9277L301.901 23.944L304.687 20.0563L312.156 25.4091L322.06 13.142L325.781 16.1476L313.041 31.9277Z" fill="white"/>
<path d="M475.551 457.303L460.733 456.412L465.029 480.553L474.632 482.528L475.551 457.303Z" fill="#DADBD8"/>
<path d="M462.871 476.189L466.534 476.17C467.363 476.166 468.146 476.561 468.661 477.196C470.881 479.938 472.428 478.89 474.625 476.289C476.079 476.119 476.535 477.716 476.671 478.145L479.783 487.635C480.051 488.429 479.602 489.258 478.779 489.489C478.633 489.53 478.48 489.551 478.326 489.549C473.877 489.572 471.773 489.583 466.235 489.613L449.302 489.703C444.685 489.727 443.554 485.294 445.439 484.873C453.92 483.026 459.881 480.592 462.43 478.205C462.904 477.787 462.389 477.479 462.871 476.189Z" fill="#17282F"/>
<path d="M460.224 478.757C458.882 479.004 456.383 479.337 455.314 478.601C455.035 478.399 454.858 478.097 454.826 477.77C454.801 477.668 454.845 477.563 454.936 477.508C455.553 477.082 458.291 477.969 460.224 478.757ZM457.536 479.457C458.691 479.424 459.836 479.276 460.952 479.016C461.056 478.979 461.106 478.868 461.064 478.767L460.938 478.651C460.414 478.414 455.753 476.396 454.635 477.178C454.425 477.312 454.319 477.553 454.361 477.796C454.384 478.249 454.631 478.671 455.028 478.934C455.792 479.357 456.671 479.54 457.536 479.457Z" fill="#406FBF"/>
<path d="M457.612 474.971C459.202 474.963 460.221 477.468 460.571 478.471C459.047 477.725 456.884 475.945 456.988 475.248C456.986 475.192 456.98 475.032 457.445 474.983L457.612 474.971ZM460.905 479.028L461.048 479.027L461.1 478.822C461.092 478.639 459.848 474.344 457.347 474.631C456.728 474.714 456.56 475 456.546 475.239C456.435 476.382 459.401 478.523 460.798 479.062L460.905 479.028Z" fill="#406FBF"/>
<path d="M460.4 479.175C461.589 479.321 462.724 479.998 463.394 480.955C463.481 481.08 463.654 481.11 463.779 481.022C463.904 480.935 463.934 480.762 463.847 480.636C463.078 479.544 461.816 478.795 460.469 478.625C460.317 478.606 460.178 478.714 460.159 478.866C460.141 479.017 460.248 479.156 460.4 479.175Z" fill="#406FBF"/>
<path d="M458.187 480.822C459.376 480.968 460.511 481.645 461.181 482.601C461.268 482.727 461.441 482.758 461.566 482.669C461.692 482.581 461.721 482.409 461.634 482.284C460.865 481.19 459.603 480.442 458.256 480.272C458.104 480.253 457.965 480.362 457.946 480.513C457.928 480.665 458.035 480.804 458.187 480.823" fill="#406FBF"/>
<path d="M455.408 482.211C456.597 482.357 457.732 483.034 458.401 483.991C458.489 484.116 458.662 484.146 458.787 484.058C458.912 483.971 458.942 483.798 458.855 483.673C458.086 482.58 456.824 481.831 455.476 481.661C455.325 481.642 455.186 481.75 455.167 481.903C455.148 482.054 455.256 482.192 455.408 482.212" fill="#406FBF"/>
<path d="M414.093 455.747L398.679 453.863L401.72 479.079L411.322 481.056L414.093 455.747Z" fill="#DADBD8"/>
<path d="M399.561 474.716L403.225 474.696C404.054 474.693 404.836 475.089 405.351 475.724C407.572 478.465 409.119 477.416 411.315 474.816C412.77 474.647 413.225 476.244 413.361 476.672L416.472 486.162C416.742 486.955 416.293 487.785 415.47 488.017C415.323 488.057 415.171 488.077 415.017 488.076C410.568 488.1 408.463 488.11 402.926 488.14L385.991 488.23C381.375 488.255 380.244 483.822 382.13 483.4C390.61 481.552 396.571 479.119 399.121 476.732C399.594 476.315 399.079 476.006 399.561 474.716Z" fill="#17282F"/>
<path d="M396.914 477.285C395.572 477.531 393.073 477.864 392.004 477.128C391.727 476.927 391.548 476.624 391.517 476.297C391.492 476.196 391.535 476.09 391.626 476.035C392.243 475.609 394.981 476.496 396.914 477.285ZM394.226 477.983C395.382 477.951 396.526 477.803 397.642 477.543C397.746 477.506 397.797 477.395 397.755 477.295L397.628 477.178C397.104 476.941 392.443 474.923 391.325 475.705C391.116 475.84 391.01 476.08 391.051 476.323C391.075 476.776 391.322 477.198 391.718 477.461C392.482 477.884 393.362 478.067 394.226 477.983Z" fill="#406FBF"/>
<path d="M394.301 473.498C395.892 473.491 396.912 475.995 397.262 476.998C395.737 476.252 393.574 474.472 393.679 473.776C393.676 473.719 393.67 473.559 394.134 473.511L394.301 473.498ZM397.594 477.556L397.738 477.554L397.789 477.35C397.783 477.166 396.537 472.871 394.037 473.158C393.418 473.241 393.25 473.527 393.235 473.766C393.125 474.908 396.091 477.05 397.488 477.59L397.594 477.556Z" fill="#406FBF"/>
<path d="M397.089 477.702C398.278 477.849 399.414 478.526 400.083 479.482C400.172 479.607 400.343 479.637 400.469 479.55C400.594 479.462 400.625 479.289 400.537 479.164C399.768 478.071 398.506 477.321 397.158 477.153C397.006 477.133 396.868 477.241 396.849 477.393C396.83 477.545 396.937 477.683 397.089 477.702Z" fill="#406FBF"/>
<path d="M394.877 479.349C396.065 479.495 397.201 480.172 397.87 481.128C397.958 481.253 398.131 481.284 398.256 481.196C398.381 481.108 398.412 480.936 398.323 480.81C397.555 479.717 396.293 478.969 394.945 478.799C394.793 478.78 394.655 478.888 394.636 479.04C394.617 479.192 394.726 479.33 394.877 479.349Z" fill="#406FBF"/>
<path d="M392.099 480.738C393.287 480.884 394.423 481.561 395.092 482.518C395.179 482.643 395.352 482.673 395.477 482.586C395.603 482.498 395.634 482.325 395.545 482.2C394.777 481.107 393.515 480.358 392.167 480.188C392.015 480.17 391.876 480.277 391.858 480.429C391.839 480.581 391.947 480.719 392.099 480.738Z" fill="#406FBF"/>
<path d="M410.079 292.284C410.136 293.424 394.584 366.932 393.664 384.879C392.745 402.825 397.076 470.776 397.076 470.776L414.199 470.655C414.199 470.655 417.559 439.706 416.631 426.8C415.704 413.895 415.361 393.663 419.578 382.031C423.794 370.398 437.958 332.068 437.958 332.068L432.986 296.119L410.079 292.284Z" fill="#17282F"/>
<path d="M465.252 289.595C467.097 290.647 467.501 311.196 467.419 334.054C467.336 356.911 473.566 398.887 474.865 413.297C476.165 427.708 478.404 473.687 477.807 473.716C477.211 473.745 458.087 473.915 458.629 472.747C459.17 471.577 454.653 451.854 448.953 416.969C443.362 382.756 432.92 345.715 430.775 334.16C429.087 325.07 425.862 309.417 425.862 309.417L424.992 291.556L465.252 289.595Z" fill="#17282F"/>
<mask id="mask0_238_15464" style="mask-type:luminance" maskUnits="userSpaceOnUse" x="408" y="300" width="1" height="2">
<path d="M408.217 301.961L408.524 300.301C408.531 300.304 408.538 300.306 408.546 300.31C408.441 300.838 408.331 301.389 408.217 301.961Z" fill="white"/>
</mask>
<g mask="url(#mask0_238_15464)">
<path d="M408.217 301.961H408.546V300.301H408.217V301.961Z" fill="#A7A9A8"/>
</g>
<path d="M425.786 307.875C411.772 307.302 407.838 303.999 407.838 303.999L408.217 301.96C408.331 301.388 408.441 300.838 408.546 300.309C413.683 302.213 419.555 303.062 425.56 303.238L425.786 307.875Z" fill="#0F191D"/>
<path d="M430.061 307.961C428.542 307.961 427.118 307.931 425.787 307.876L425.561 303.239C426.379 303.263 427.2 303.274 428.023 303.274C441.527 303.274 455.276 300.162 462.469 298.244C462.385 298.861 462.306 299.435 462.235 299.957C456.24 302.977 444.751 307.758 431.822 307.948C431.222 307.957 430.634 307.961 430.061 307.961Z" fill="#0F191D"/>
<path d="M440.57 375.562C440.429 375.544 440.3 375.453 440.255 375.271C439.696 373.048 439.138 370.824 438.578 368.601C437.68 365.028 436.781 361.454 435.883 357.879H436.351C437.669 363.282 439.109 369.251 440.57 375.562ZM436.284 357.602H435.813C435.722 357.239 435.63 356.874 435.539 356.511L436.038 356.594C436.119 356.927 436.202 357.265 436.284 357.602Z" fill="#A7A9A8"/>
<path d="M436.352 357.879H435.882C435.859 357.787 435.836 357.695 435.812 357.601H436.284C436.308 357.695 436.33 357.786 436.352 357.879Z" fill="#8F9192"/>
<path d="M440.63 375.566C440.61 375.566 440.59 375.565 440.571 375.562C439.109 369.251 437.669 363.282 436.352 357.879C436.329 357.786 436.307 357.695 436.284 357.602C436.202 357.265 436.119 356.927 436.038 356.593L436.434 356.66C436.464 356.776 436.492 356.895 436.522 357.011C438.034 363.024 439.545 369.037 441.057 375.049C441.135 375.362 440.877 375.566 440.63 375.566Z" fill="#0F191D"/>
<path d="M431.948 342.223C431.745 341.417 431.542 340.611 431.34 339.806C429.828 333.793 428.317 327.78 426.805 321.768C426.727 321.455 426.986 321.251 427.233 321.251C427.396 321.251 427.554 321.34 427.606 321.547C428.165 323.77 428.724 325.994 429.283 328.217C429.779 330.188 430.275 332.16 430.77 334.131C430.772 334.14 430.774 334.151 430.775 334.16C431.127 336.052 431.7 338.629 432.44 341.763L431.948 342.223Z" fill="#0F191D"/>
<path d="M432.439 341.763C431.7 338.629 431.126 336.052 430.775 334.16C430.774 334.151 430.772 334.14 430.77 334.131C431.393 336.613 432.017 339.093 432.641 341.574L432.439 341.763Z" fill="#0F191D"/>
<path d="M452.731 205.63C452.731 205.63 457.438 216.111 459.147 230.035C462.135 254.394 467.362 287.061 467.58 296.771C467.58 296.771 427.172 309.889 405.208 298.864L407.883 246.473L407.109 207.531L415.465 204.492C415.465 204.492 447.915 200.608 452.731 205.63Z" fill="#406FBF"/>
<path d="M428.023 303.274C419.819 303.274 411.706 302.126 405.208 298.865L407.883 246.474L407.814 242.998L408.07 242.681C408.069 242.671 408.069 242.652 408.068 242.625C410.888 239.12 413.818 235.574 414.218 235.471L415.465 204.493C415.465 204.493 419.127 204.055 424.173 203.663C423.627 204.618 422.743 205.274 421.359 205.42C421.359 205.42 422.145 209.228 427.336 209.371C427.4 209.373 427.464 209.373 427.529 209.373C432.712 209.373 440.082 203.793 440.082 203.793C439.904 203.564 439.718 203.323 439.529 203.072C443.307 203.13 446.789 203.4 449.311 204.025C449.035 204.003 448.766 203.993 448.506 203.993C445.813 203.993 444.04 205.142 443.925 207.088C443.91 207.347 443.904 207.615 443.904 207.888C443.906 214.328 447.704 224.756 452.76 234.157C453.418 237.326 454.624 242.008 456.426 244.794C458.121 247.41 461.755 249.957 461.777 249.973C463.026 259.032 464.318 268.124 465.365 276.004C464.444 283.626 463.227 292.696 462.469 298.244C455.276 300.162 441.527 303.274 428.023 303.274Z" fill="#3563B7"/>
<path d="M461.777 249.972C461.637 248.957 461.498 247.941 461.359 246.928C461.38 246.985 461.403 247.043 461.425 247.1L461.777 249.972Z" fill="#B6B8B6"/>
<path d="M461.777 249.972C461.755 249.956 458.12 247.409 456.426 244.793C454.623 242.007 453.418 237.326 452.76 234.156C454.836 238.017 457.125 241.705 459.451 244.873C459.619 244.898 459.799 244.911 459.987 244.911C460.174 244.911 460.37 244.899 460.574 244.875C460.835 245.555 461.097 246.24 461.359 246.928C461.497 247.941 461.637 248.957 461.777 249.972Z" fill="#2555AD"/>
<path d="M414.218 235.471C413.423 235.676 402.588 249.532 402.588 249.532C402.588 249.532 389.824 236.026 388.536 230.207C388.536 230.207 402.906 209.144 404.795 207.884C409.82 204.533 415.465 204.492 415.465 204.492L414.218 235.471Z" fill="#406FBF"/>
<path d="M402.588 249.532C402.588 249.532 389.824 236.026 388.536 230.207C388.536 230.207 402.906 209.144 404.795 207.884C409.82 204.533 415.465 204.492 415.465 204.492L414.218 235.471C413.818 235.574 410.888 239.119 408.068 242.625C408.037 241.474 407.616 225.943 407.595 225.141C407.595 225.139 407.595 225.138 407.595 225.135C407.595 225.118 407.594 225.109 407.594 225.109C407.594 225.109 407.595 225.12 407.595 225.141C407.603 226.035 404.461 247.112 404.454 247.162C403.336 248.576 402.588 249.532 402.588 249.532Z" fill="#3563B7"/>
<path d="M404.453 247.162C405.388 245.977 406.582 244.475 407.813 242.942L407.814 242.998L404.453 247.162Z" fill="#C3C5C2"/>
<path d="M407.814 242.998L407.812 242.941C407.897 242.836 407.982 242.729 408.068 242.624C408.069 242.65 408.069 242.67 408.07 242.68L407.814 242.998Z" fill="#2555AD"/>
<path d="M404.453 247.162C404.461 247.112 407.602 226.036 407.594 225.141C407.615 225.944 408.036 241.475 408.067 242.625C407.982 242.73 407.897 242.837 407.813 242.942C406.582 244.475 405.388 245.977 404.453 247.162ZM407.594 225.141C407.594 225.12 407.593 225.109 407.593 225.109C407.593 225.109 407.594 225.118 407.594 225.136C407.594 225.138 407.594 225.139 407.594 225.141Z" fill="#2555AD"/>
<path d="M421.359 205.42C425.581 204.974 425.15 199.791 424.635 195.821C424.427 194.404 424.104 193.001 423.667 191.624L431.024 185.481L437.681 179.845C437.268 182.322 436.987 184.822 436.837 187.333C436.468 191.675 436.956 195.143 437.524 199.319C438.045 201.178 439.173 202.619 440.082 203.793C440.082 203.793 432.526 209.513 427.336 209.37C422.145 209.227 421.359 205.42 421.359 205.42Z" fill="#C8685A"/>
<path d="M424.784 197.062C424.775 197.058 424.766 197.054 424.758 197.048L424.727 196.553C424.747 196.721 424.765 196.891 424.784 197.062Z" fill="#C3C5C2"/>
<path d="M436.717 191.152C436.716 191.105 436.715 191.057 436.714 191.009C436.773 190.937 436.83 190.864 436.887 190.79C436.848 190.876 436.792 190.999 436.717 191.152Z" fill="#B1B3B1"/>
<path d="M428.308 197.996C427.226 197.996 426.051 197.721 424.784 197.063C424.765 196.891 424.746 196.722 424.727 196.553L424.702 196.175C425.185 196.227 425.671 196.254 426.157 196.254C429.045 196.254 431.96 195.325 434.489 193.241C435.352 192.53 436.086 191.791 436.714 191.01C436.715 191.057 436.716 191.105 436.717 191.153C435.907 192.808 432.998 197.996 428.308 197.996Z" fill="#995147"/>
<path d="M440.874 166.997C438.387 159.738 430.257 155.593 422.713 157.738C412.311 160.712 410.002 175.243 411.699 184.309C413.592 194.404 426.144 200.121 434.488 193.241C440.052 188.664 440.243 182.842 441.481 173.031C441.751 171.015 441.544 168.954 440.874 166.997Z" fill="#C8685A"/>
<path d="M408.708 163.97C408.708 163.97 409.668 165.091 410.568 164.764C409.666 163.305 409.78 161.497 410.854 160.209C410.854 160.209 411.504 161.758 412.271 161.79C412.732 158.128 414.363 154.722 416.946 152.031C421.428 147.044 436.113 153.474 436.113 153.474C436.113 153.474 439.624 150.488 445.213 155.544C449.694 159.598 450.218 167.875 449.803 171.441C448.171 174.876 444.328 178.201 439.117 179.887C436.556 176.973 436.376 172.578 436.634 169.536C435.86 169.321 435.138 168.922 434.55 168.355C432.262 166.159 433.965 158.513 424.836 159.654C423.223 158.667 421.182 158.66 419.624 159.633C416.819 161.265 415.306 170.197 411.425 167.584C407.543 164.971 408.708 163.97 408.708 163.97Z" fill="#17282F"/>
<path d="M425.766 175.243C425.653 176.363 424.798 177.142 424.017 176.994C423.236 176.845 422.789 175.819 422.978 174.707C423.165 173.597 423.965 172.811 424.727 172.957C425.489 173.103 425.957 174.113 425.766 175.243Z" fill="#17282F"/>
<path d="M416.028 174.154C415.915 175.275 415.041 176.051 414.277 175.905C413.515 175.759 413.05 174.732 413.238 173.62C413.426 172.508 414.226 171.723 414.989 171.869C415.751 172.015 416.211 173.097 416.028 174.154Z" fill="#17282F"/>
<path d="M411.572 168.226C411.752 168.32 411.969 168.316 412.143 168.218C413.294 167.498 414.742 167.339 416.05 167.786C416.322 167.907 416.644 167.798 416.768 167.54C416.892 167.284 416.772 166.98 416.5 166.86L416.497 166.859C414.858 166.253 413.018 166.431 411.562 167.34C411.306 167.483 411.222 167.796 411.375 168.041L411.382 168.051L411.572 168.226Z" fill="#17282F"/>
<path d="M427.297 172.214C427.407 172.205 427.51 172.163 427.593 172.095C427.776 171.872 427.732 171.55 427.495 171.376L427.485 171.369C426.101 170.336 424.274 170.003 422.589 170.474C422.308 170.57 422.164 170.863 422.267 171.129V171.13C422.376 171.392 422.682 171.526 422.964 171.438C424.305 171.103 425.74 171.387 426.831 172.205C426.978 172.272 427.147 172.276 427.297 172.214Z" fill="#17282F"/>
<path d="M446.983 181.528C445.864 184.005 443.744 185.927 441.091 186.873C437.566 188.102 435.407 185.124 436.044 181.773C436.64 178.801 439.167 174.481 442.875 174.731C446.582 174.98 448.317 178.469 446.983 181.528Z" fill="#C8685A"/>
<path d="M438.527 182.864C438.321 182.864 438.085 182.671 438.111 182.449C438.285 180.989 438.934 179.63 439.974 178.586C440.672 177.886 441.801 177.071 442.874 177.071C443.247 177.071 443.614 177.17 443.953 177.406C444.315 177.659 444.089 178.199 443.75 178.199C443.681 178.199 443.607 178.176 443.533 178.124C443.311 177.97 443.072 177.905 442.825 177.905C441.945 177.905 440.978 178.732 440.453 179.287C439.638 180.146 439.083 181.268 438.942 182.449C438.915 182.673 438.773 182.864 438.527 182.864Z" fill="#B05C51"/>
<path d="M419.248 173.25C417.696 175.689 415.79 177.903 413.585 179.826C414.703 180.926 416.257 181.512 417.834 181.429L419.248 173.25Z" fill="#B5413C"/>
<path d="M414.069 159.828C413.819 159.828 413.564 159.625 413.657 159.316C414.083 157.893 414.709 156.488 415.753 155.407C416.701 154.423 418.037 153.754 419.418 153.754C419.535 153.754 419.654 153.758 419.772 153.768C421.054 153.878 422.274 154.515 423.193 155.4C424.212 156.382 424.816 157.465 425.297 158.779C425.408 159.083 425.158 159.283 424.904 159.283C424.736 159.283 424.568 159.198 424.495 159C423.932 157.46 423.064 156.081 421.607 155.23C420.91 154.823 420.196 154.585 419.436 154.585C419.264 154.585 419.091 154.597 418.914 154.623C416.447 154.973 415.108 157.363 414.458 159.537C414.397 159.741 414.235 159.828 414.069 159.828Z" fill="#0F191D"/>
<path d="M427.02 158.509C426.812 158.509 426.59 158.376 426.563 158.111C426.26 155.112 424.018 152.445 421.138 151.589C420.669 151.449 420.812 150.768 421.233 150.768C421.272 150.768 421.314 150.774 421.358 150.788C424.62 151.756 427.052 154.734 427.394 158.111C427.421 158.377 427.227 158.509 427.02 158.509Z" fill="#0F191D"/>
<path d="M442.429 308.149L460.657 318.235C461.609 318.762 462.758 318.786 463.73 318.301L482.37 308.999C484.821 307.777 487.609 309.895 487.089 312.583L483.132 333.04C482.925 334.108 483.258 335.208 484.02 335.984L498.624 350.841C500.544 352.795 499.391 356.101 496.673 356.437L476 358.994C474.921 359.128 473.977 359.783 473.475 360.748L463.861 379.232C462.597 381.662 459.097 381.588 457.938 379.106L449.117 360.231C448.657 359.246 447.742 358.55 446.669 358.37L426.123 354.937C423.423 354.485 422.411 351.132 424.412 349.263L439.635 335.04C440.429 334.297 440.808 333.212 440.647 332.136L437.563 311.53C437.157 308.822 440.034 306.824 442.429 308.149Z" fill="#406FBF"/>
<path d="M467.361 316.488C467.361 316.476 467.361 316.465 467.361 316.453L472.381 313.984L467.361 316.488Z" fill="white"/>
<path d="M463.147 318.525L467.361 316.453C467.361 316.465 467.361 316.476 467.361 316.488L463.73 318.3C463.542 318.395 463.347 318.469 463.147 318.525Z" fill="#57666B"/>
<path d="M455.299 373.461L452.126 366.671C452.126 366.671 459.793 362.566 459.522 354.507C459.25 346.447 451.431 344.091 452.126 333.767C452.822 323.443 461.815 319.181 461.815 319.181L463.147 318.526C463.346 318.469 463.541 318.395 463.73 318.301L467.361 316.489L472.38 313.984L472.399 313.975C472.399 313.975 452.45 331.117 457.506 338.252C464.007 347.426 477.907 361.84 455.299 373.461Z" fill="#6D97D6"/>
<path d="M470.205 303.855L462.653 301.593L459.964 306.975C459.61 307.589 459.294 308.157 459.05 308.634C456.815 313.003 453.768 319.217 453.454 322.908C453.142 326.599 455.492 330.195 456.479 328.437C457.253 327.058 456.254 324.523 456.442 323.239C456.914 320.027 457.58 318.947 457.58 318.947C457.57 325.157 459.967 329.092 460.743 329.676C461.816 330.483 462.901 329.243 462.901 329.243C462.901 329.243 463.952 330.234 465.213 329.406C466.749 328.398 464.915 321.096 464.915 321.096C464.915 321.096 467.532 327.634 469.299 326.764C471.064 325.894 467.943 320.26 467.579 316.879C467.443 315.616 469.879 313.357 469.872 310.447C469.868 308.637 469.351 306.099 470.205 303.855Z" fill="#C8685A"/>
<path d="M463.232 329.177C462.446 327.291 461.662 325.373 461.376 323.337C461.036 320.908 461.434 318.462 462.008 316.1C462.083 315.789 461.604 315.656 461.527 315.969C460.945 318.36 460.549 320.829 460.871 323.29C461.146 325.393 461.939 327.365 462.751 329.308C462.873 329.601 463.355 329.472 463.232 329.177Z" fill="#B5413C"/>
<path d="M465.26 321.246C465.128 320.293 464.954 319.335 464.893 318.374C464.835 317.485 464.925 316.583 465.419 315.82C465.595 315.551 465.163 315.301 464.989 315.569C464.469 316.369 464.339 317.331 464.387 318.267C464.442 319.308 464.637 320.348 464.78 321.379C464.824 321.695 465.305 321.561 465.26 321.246Z" fill="#B5413C"/>
<path d="M472.477 227.214L456.426 233.989C459.219 241.748 464.426 253.915 466.575 262.556C467.151 264.875 461.761 303.378 461.761 303.378L469.782 305.678C469.782 305.678 482.003 268.139 481.854 263.507C481.639 256.784 476.443 241.501 472.477 227.214Z" fill="#C8685A"/>
<path d="M443.925 207.088C443.451 215.94 451.223 233.666 459.451 244.873C464.498 245.651 478.879 234.421 478.879 234.421C478.879 234.421 471.55 221.205 464.072 212.631C454.655 202.337 444.211 202.269 443.925 207.088Z" fill="#406FBF"/>
<path d="M459.987 244.912C459.799 244.912 459.619 244.899 459.451 244.873C451.464 233.995 443.907 216.972 443.903 207.888C443.903 207.614 443.91 207.347 443.924 207.088C444.04 205.142 445.812 203.993 448.506 203.993C452.48 203.993 458.459 206.495 464.071 212.631C471.549 221.205 478.878 234.42 478.878 234.42C478.878 234.42 477.441 235.543 475.315 237.054C471.165 240.004 464.391 244.433 460.574 244.876C460.369 244.9 460.174 244.912 459.987 244.912Z" fill="#3563B7"/>
<path d="M421.142 195.325C421.142 195.325 420.595 195.135 419.668 194.696C419.655 194.689 419.627 194.67 419.589 194.639C420.095 194.897 420.613 195.127 421.142 195.325ZM413.493 189C413.3 188.818 413.188 188.713 413.188 188.713C413.188 188.713 412.924 188.214 412.744 187.586C412.968 188.074 413.218 188.545 413.493 189Z" fill="#C3C5C2"/>
<path d="M421.142 195.325C420.614 195.127 420.095 194.897 419.59 194.639C418.917 194.108 414.674 190.113 413.494 189C413.219 188.545 412.969 188.074 412.745 187.586C412.461 186.6 412.387 185.297 413.877 185.114C413.945 185.105 414.015 185.102 414.087 185.102C416.634 185.102 422.146 190.11 422.423 192.243C422.709 194.435 421.578 195.26 421.142 195.325Z" fill="#995147"/>
<path d="M418.864 185.079C418.513 184.801 418.112 184.588 417.666 184.511C417.499 184.482 417.331 184.459 417.163 184.495C416.975 184.534 416.813 184.67 416.736 184.845C416.681 184.968 416.7 185.113 416.825 185.186C416.932 185.248 417.111 185.22 417.167 185.096L417.189 185.05L417.209 185.016L417.225 185.002L417.23 184.999L417.263 184.981L417.254 184.987L417.302 184.973H417.342L417.402 184.977L417.619 185.008C417.948 185.079 418.245 185.22 418.512 185.431C418.618 185.514 418.761 185.534 418.864 185.431C418.952 185.345 418.971 185.163 418.864 185.079Z" fill="#17282F"/>
<path d="M396.858 247.525C396.859 247.632 396.851 247.731 396.831 247.739L396.858 247.525ZM419.473 189.035L419.443 189.012L415.565 186.021C414.16 184.985 412.285 184.887 410.783 185.772L407.355 187.72C406.07 188.467 405.215 189.795 405.058 191.289L404.329 198.258C400.756 207.786 393.423 219.1 389.027 228.962C386.739 234.457 383.378 240.535 382.557 246.757C382.218 249.346 382.978 251.959 384.646 253.947C387.462 257.157 392.528 255.96 394.9 254.122L394.896 254.133C396.831 252.984 401.612 248.499 401.623 248.49L398.203 244.661L402.769 227.589C404.388 219.881 407.443 212.498 409.609 206.19C414.887 202.994 418.655 196.47 418.655 196.47L420.118 194.458C421.415 192.78 421.126 190.352 419.473 189.035Z" fill="#C8685A"/>
<path d="M396.81 250.76C397.593 248.467 398.271 246.139 398.841 243.784C398.966 243.264 398.165 243.042 398.04 243.562C397.47 245.918 396.792 248.245 396.008 250.538C395.835 251.046 396.637 251.264 396.81 250.76Z" fill="#B5413C"/>
<path d="M137.563 232.306C137.674 233.367 133.004 253.209 134.265 260.013C135.526 266.817 144.856 292.825 143.286 297.055C141.717 301.285 121.829 295.401 121.829 295.401L95.9551 197.467C97.5332 196.008 113.072 195.092 118.803 199.579C119.414 200.059 122.035 202.478 122.707 203.014C128.256 207.436 135.846 215.9 137.563 232.306Z" fill="#17282F"/>
<path d="M181.021 214.51C180.783 214.263 188.856 214.529 189.059 212.803C189.172 211.843 189.105 211.72 185.561 211.282C182.016 210.843 171.26 210.282 169.54 210.773C167.821 211.264 166.458 217.627 165.559 218.603C164.662 219.581 157.873 225.163 157.873 225.163L163.242 231.215L170.505 224.005C170.505 224.005 176.638 224.437 177.631 223.58C178.625 222.722 178.802 220.459 178.802 220.459C178.802 220.459 181.624 220.9 180.649 217.617C180.649 217.617 183.169 216.736 181.021 214.51Z" fill="#F89E55"/>
<path d="M169.74 212.266C170.81 212.173 172.184 212.058 172.984 212.933C173.818 213.846 173.718 215.432 173.627 216.572C173.572 217.25 173.491 217.989 173.27 218.636C173.037 219.313 172.203 218.51 171.941 218.199C171.264 217.4 171.068 216.27 171.457 215.299C171.524 215.132 171.319 214.922 171.15 214.992C170.334 215.328 169.461 215.438 168.589 215.284C168.274 215.228 168.14 215.708 168.456 215.763C169.415 215.933 170.38 215.844 171.283 215.473C171.18 215.371 171.078 215.268 170.976 215.166C170.608 216.085 170.719 217.139 171.199 217.998C171.531 218.591 172.653 219.887 173.431 219.293C173.857 218.968 173.901 218.181 173.983 217.698C174.095 217.04 174.159 216.373 174.164 215.706C174.172 214.611 174.095 213.319 173.262 212.504C172.341 211.603 170.928 211.664 169.74 211.767C169.423 211.794 169.42 212.294 169.74 212.266Z" fill="#F36727"/>
<path d="M181.161 214.314C179.903 213.974 178.558 213.956 177.271 214.111C176.603 214.192 175.94 214.319 175.294 214.51C174.734 214.677 174.122 214.869 173.807 215.399C173.643 215.676 174.074 215.927 174.238 215.651C174.535 215.151 175.3 215.016 175.82 214.883C176.412 214.732 177.017 214.629 177.625 214.572C178.758 214.468 179.925 214.497 181.029 214.795C181.339 214.878 181.471 214.397 181.161 214.314Z" fill="#F36727"/>
<path d="M177.573 223.186C176.469 222.96 175.364 222.733 174.26 222.507C173.739 222.399 173.153 222.344 172.665 222.122C172.194 221.907 171.821 221.357 172.303 220.938C172.675 220.615 173.273 220.551 173.743 220.585C174.294 220.625 174.845 220.651 175.396 220.666C176.512 220.696 177.628 220.701 178.74 220.793C179.061 220.821 179.058 220.321 178.74 220.295C177.389 220.182 176.032 220.203 174.677 220.143C173.72 220.101 172.183 219.86 171.667 220.96C171.463 221.396 171.606 221.877 171.929 222.214C172.297 222.596 172.833 222.721 173.332 222.825C174.701 223.11 176.071 223.385 177.441 223.667C177.753 223.731 177.887 223.25 177.573 223.186Z" fill="#F36727"/>
<path d="M173.748 217.936C175.894 217.666 178.219 217.388 180.353 217.874C180.665 217.945 180.798 217.465 180.485 217.393C178.302 216.896 175.944 217.16 173.748 217.438C173.433 217.476 173.43 217.976 173.748 217.936Z" fill="#F36727"/>
<path d="M166.127 217.623L143.556 232.398C143.556 232.398 140.992 226.154 138 220.012C134.945 213.741 129.592 203.272 123.762 202.535C121.841 202.292 119.185 201.624 117.998 202.103C108.645 205.882 121.238 230.2 121.238 230.2C121.238 230.2 132.672 247.904 137.879 250.299C143.085 252.695 171.1 226.652 171.1 226.652L166.127 217.623Z" fill="#17282F"/>
<path d="M136.11 243.2C136.739 239.536 137.812 236.007 137.983 232.267C138.238 226.689 136.749 221.25 134.127 216.35C131.87 212.129 128.875 208.351 125.615 204.867C125.249 204.476 124.663 205.064 125.027 205.454C130.046 210.818 134.548 217.043 136.358 224.272C137.477 228.743 137.339 233.297 136.425 237.785C136.073 239.52 135.609 241.233 135.309 242.978C135.22 243.501 136.021 243.726 136.11 243.2Z" fill="#040606"/>
<path d="M45.8376 484.119C45.3157 482.775 44.5414 481.541 43.5551 480.48C43.5551 480.48 42.0012 474.959 46.373 463.412L42.4028 459.587C40.9967 458.275 38.9062 457.973 37.1762 458.831C36.93 458.935 36.7079 459.088 36.524 459.28C35.6372 460.255 34.8178 461.287 34.0717 462.371C31.5726 466.089 29.3025 469.951 27.2734 473.937L28.1019 474.446L32.6092 467.329C34.1453 464.903 34.4188 468.914 33.4221 471.875C32.4256 474.836 31.9613 478.345 37.3957 481.575C43.7558 485.311 46.5998 486.523 45.8376 484.119Z" fill="#17282F"/>
<path d="M47.7712 459.187C47.7712 459.187 45.9573 464.574 44.4633 470.82C43.5331 473.953 43.2245 477.232 43.5553 480.48C43.5553 480.48 39.0177 478.888 38.8164 475.143C38.6152 471.398 41.5648 460.709 37.125 458.862C37.862 458.362 38.6579 457.953 39.4955 457.643C40.7497 457.075 47.7712 459.187 47.7712 459.187Z" fill="#F89E55"/>
<path d="M127.14 481.971C126.019 481.049 124.731 480.344 123.344 479.893C123.344 479.893 119.252 475.822 117.346 463.642L111.985 462.213C110.108 461.745 108.134 462.485 107.049 464.067C106.886 464.276 106.768 464.516 106.702 464.773C106.411 466.049 106.208 467.345 106.093 468.648C105.755 473.095 105.687 477.558 105.892 482.012L106.867 482.059L107.274 473.679C107.413 470.823 109.639 474.192 110.236 477.256C110.835 480.32 112.168 483.606 118.511 483.811C125.913 484.013 128.997 483.704 127.14 481.971Z" fill="#17282F"/>
<path d="M116.471 459.281C116.471 459.281 117.558 464.856 119.349 471.025C120.089 474.207 121.445 477.218 123.343 479.893C123.343 479.893 118.594 480.686 116.563 477.514C114.531 474.342 111.809 463.596 107.019 464.119C107.415 463.329 107.906 462.588 108.483 461.914C109.296 460.816 116.471 459.281 116.471 459.281Z" fill="#F89E55"/>
<path d="M127.612 264.578C127.612 264.578 141.447 298.502 130.465 352.722C130.176 384.29 118.983 461.516 118.983 461.516C115.257 462.559 103.466 461.841 99.6729 461.063C99.6729 461.063 99.3444 399.673 101.989 348.238C93.9715 295.456 94.5186 267.519 94.5186 267.519L127.612 264.578Z" fill="#406FBF"/>
<path d="M120.462 266.365C120.462 266.365 107.024 335.758 97.9132 365.548C88.3385 396.826 52.4402 462.205 51.3651 464.298C46.9998 463.348 37.8376 459.593 35.1641 457.246C35.1641 457.246 56.2244 393.419 68.5781 359.364C71.3806 341.905 73.2996 331.688 72.8045 313.211C71.8874 278.956 88.014 264.221 88.014 264.221L120.462 266.365Z" fill="#406FBF"/>
<path d="M101.091 367.263L101.765 351.705C101.786 351.623 101.807 351.543 101.828 351.46C101.58 356.562 101.36 361.748 101.164 366.946L101.091 367.263Z" fill="#C3C5C2"/>
<path d="M101.164 366.945C101.359 361.748 101.58 356.561 101.828 351.46C105.555 337.032 109.551 319.13 112.883 303.478L124.359 294.265L114.71 308.502L101.164 366.945Z" fill="#3563B7"/>
<path d="M101.765 351.705L101.77 351.584L112.882 303.479L112.883 303.478C109.551 319.131 105.556 337.032 101.828 351.46C101.807 351.543 101.786 351.623 101.765 351.705Z" fill="#3563B7"/>
<path d="M129.908 220.096C129.908 220.096 135.71 233.063 132.062 240.697C124.671 262.849 133.854 263.844 131.019 267.933C126.785 271.268 100.707 275.734 87.0212 265.125C88.8395 256.114 89.2606 240.632 82.5927 214.984C81.1518 209.452 84.5355 203.817 90.1509 202.398C90.5083 202.307 90.8706 202.235 91.236 202.183C92.8755 201.952 94.6218 201.728 96.4132 201.564C102.664 200.851 106.237 200.793 112.527 200.949C113.62 201.001 112.729 200.817 116.06 201.604C116.06 201.604 122.725 206.549 124.612 209.524C126.634 212.712 129.825 219.833 129.908 220.096Z" fill="white"/>
<path d="M116.824 253.855C115.177 253.855 113.536 253.513 112.053 252.8C116.542 248.966 121.593 244.97 126.082 241.135C123.988 245.903 120.128 249.896 115.396 252.189C115.942 252.267 116.488 252.304 117.033 252.304C119.73 252.304 122.411 251.423 124.992 250.551C122.886 252.698 119.846 253.855 116.824 253.855Z" fill="#A7A9A8"/>
<path d="M71.2933 189.092C71.833 187.362 73.1419 186.043 74.1784 184.584C76.1253 181.841 77.1518 178.505 77.9301 175.184C78.7082 171.861 79.2756 168.467 80.4495 165.275C81.6233 162.084 83.4869 159.046 86.2712 157.258C89.0551 155.472 92.8699 155.191 95.5312 157.197L96.9513 157.44C94.4418 167.965 95.2975 179.07 93.5697 189.769C93.1326 192.477 92.4617 195.292 90.6617 197.283C87.7783 200.473 82.8819 200.56 78.8506 199.288C76.6532 198.594 74.4926 197.524 72.9493 195.744C71.4059 193.963 70.5826 191.368 71.2933 189.092Z" fill="#17282F"/>
<path d="M93.9112 157.482C97.14 154.335 100.116 152.473 104.381 151.819C108.122 151.243 113.418 151.663 116.833 153.507C121.475 156.015 124.285 161.427 126.053 166.821C128.033 172.86 125.608 180.269 122.78 185.824C121.609 188.123 120.563 189.065 118.263 188.835L117.408 190.045C110.431 192.174 104.089 199.554 91.0226 179.538C86.7014 172.918 88.4803 162.775 93.9112 157.482Z" fill="#17282F"/>
<path d="M111.668 200.517C110.573 199.576 110.989 197.544 111.148 195.568C111.251 194.05 111.666 192.456 112.176 190.898L110.018 188.809L98.8731 179.499C99.7288 186.279 102.099 197.173 97.0268 201.328L94.1611 201.693C96.0318 202.956 101.181 209.215 112.312 209.696C118.339 209.955 116.983 203.861 115.239 201.307C112.493 200.715 111.668 200.517 111.668 200.517Z" fill="#F89E55"/>
<path d="M111.214 196.445C111.167 196.438 111.118 196.428 111.069 196.419C111.095 196.154 111.121 195.888 111.144 195.622C111.147 195.878 111.168 196.152 111.214 196.445ZM111.408 193.712C111.45 193.507 111.496 193.302 111.545 193.097C111.505 193.302 111.457 193.505 111.408 193.712Z" fill="#C3C5C2"/>
<path d="M111.069 196.419C108.108 195.856 103.91 194.133 103.048 190.92C102.835 190.125 102.713 189.33 102.655 188.627C105.473 190.928 108.618 192.113 111.64 192.33C111.63 192.594 111.593 192.847 111.545 193.098C111.496 193.303 111.45 193.508 111.408 193.713C111.274 194.283 111.133 194.884 111.143 195.622C111.121 195.888 111.095 196.154 111.069 196.419Z" fill="#DC833F"/>
<path d="M94.059 168.903C95.9859 179.183 96.5797 183.563 102.516 188.51C111.444 195.951 123.756 192.068 124.966 181.597C126.054 172.172 122.72 156.943 111.984 153.517C101.406 150.141 92.1322 158.622 94.059 168.903Z" fill="#F89E55"/>
<path d="M109.476 171.734C109.537 172.894 110.149 173.842 110.844 173.851C111.538 173.858 112.053 172.925 111.994 171.765C111.934 170.604 111.321 169.657 110.626 169.648C109.931 169.639 109.417 170.572 109.476 171.734Z" fill="#17282F"/>
<path d="M107.491 168.744C107.625 168.761 107.763 168.726 107.87 168.634C109.535 167.19 111.355 167.757 111.376 167.764C111.646 167.848 111.924 167.704 111.993 167.433C112.062 167.161 111.897 166.871 111.623 166.781C111.528 166.751 109.246 166.037 107.178 167.829C106.973 168.009 106.96 168.334 107.151 168.555C107.243 168.663 107.365 168.726 107.491 168.744Z" fill="#17282F"/>
<path d="M122.475 166.821C122.599 166.785 122.706 166.706 122.769 166.59C122.897 166.352 122.79 166.048 122.528 165.913C119.907 164.56 117.794 165.588 117.704 165.635C117.454 165.76 117.371 166.059 117.519 166.303C117.667 166.547 117.991 166.641 118.243 166.517C118.324 166.476 119.977 165.7 122.061 166.777C122.196 166.847 122.344 166.858 122.475 166.821Z" fill="#17282F"/>
<path d="M115.509 169.832C115.509 169.832 117.516 173.564 119.598 175.816C119.962 176.21 119.818 176.846 119.33 177.074C118.075 177.663 116.514 177.373 116.514 177.373L115.509 169.832Z" fill="#F36727"/>
<path d="M110.223 169.736L112.644 169.152C112.644 169.152 109.733 171.357 110.223 169.736Z" fill="#17282F"/>
<path d="M118.906 170.89C118.965 172.073 119.576 173.037 120.272 173.046C120.967 173.054 121.482 172.104 121.422 170.922C121.364 169.741 120.751 168.776 120.056 168.767C119.361 168.758 118.846 169.709 118.906 170.89Z" fill="#17282F"/>
<path d="M119.585 168.874L122.006 168.291C122.006 168.291 119.786 170.12 119.585 168.874Z" fill="#17282F"/>
<path d="M99.8396 186.682C89.2487 180.546 86.7964 154.155 105.153 151.864C123.509 149.572 126.135 174.388 126.135 174.388C118.743 159.499 102.709 159.354 102.709 159.354C106.616 167.236 99.6782 172.829 99.6782 172.829C97.3687 178.265 99.8375 184.234 99.8396 186.682Z" fill="#17282F"/>
<path d="M91.6596 177.64C93.1004 179.653 95.2442 180.807 97.1385 181.097C99.9882 181.535 101.017 176.994 99.8107 174.329C98.7248 171.931 95.8354 170.54 93.1749 171.324C90.5529 172.096 90.0123 175.337 91.6596 177.64Z" fill="#F89E55"/>
<path d="M96.3478 178.576C96.3314 178.576 96.315 178.574 96.2985 178.572C93.8362 178.14 92.9178 176.505 92.9239 175.366C92.9243 175.159 92.9529 174.969 93.0108 174.798C93.2645 174.069 93.9973 173.459 94.8742 173.452C95.0524 173.452 95.2355 173.479 95.4177 173.537C95.5636 173.582 95.6446 173.739 95.5982 173.885C95.561 174.002 95.4519 174.078 95.3342 174.078C95.3065 174.078 95.2784 174.073 95.2502 174.065C95.123 174.025 94.9975 174.006 94.8742 174.006C94.8694 174.006 94.8646 174.006 94.8599 174.006C94.2655 174.006 93.7003 174.475 93.535 174.977C93.5003 175.079 93.4779 175.213 93.4779 175.366C93.4844 176.226 94.1522 177.621 96.3954 178.025C96.546 178.053 96.6465 178.196 96.6197 178.347C96.5959 178.481 96.4794 178.576 96.3478 178.576Z" fill="#DC833F"/>
<path d="M89.5151 169.869C89.2819 169.869 89.0485 169.866 88.8174 169.859C88.8296 169.582 88.8491 169.305 88.8754 169.029C89.0784 169.035 89.2819 169.037 89.4857 169.037C90.1925 169.037 90.9036 169.005 91.6139 168.939C91.6134 169.22 91.6177 169.498 91.6264 169.777C90.9187 169.839 90.2124 169.869 89.5151 169.869Z" fill="#0F191D"/>
<path d="M103.332 160.843C103.166 160.356 102.96 159.86 102.709 159.353C102.709 159.353 102.728 159.353 102.766 159.354C103.042 159.813 103.228 160.319 103.332 160.843Z" fill="#BB7239"/>
<path d="M91.6268 169.776C91.6182 169.497 91.6138 169.219 91.6143 168.939C94.1687 168.702 96.7063 168.031 98.9582 166.837C100.293 166.129 101.692 165.123 102.267 163.669C102.779 162.378 102.732 160.814 101.965 159.639C101.76 159.326 102.048 159.029 102.339 159.029C102.466 159.029 102.594 159.084 102.682 159.219C102.711 159.264 102.739 159.309 102.767 159.354C102.728 159.353 102.709 159.353 102.709 159.353C102.96 159.86 103.166 160.356 103.332 160.843C103.514 161.762 103.444 162.738 103.162 163.621C102.672 165.154 101.454 166.293 100.121 167.127C97.6221 168.691 94.6111 169.517 91.6268 169.776Z" fill="#0F191D"/>
<path d="M94.2568 184.282C94.2612 184.236 94.2656 184.188 94.2699 184.14C94.292 184.169 94.3127 184.197 94.3348 184.225C94.3106 184.247 94.2842 184.267 94.2568 184.282ZM94.7503 156.689C94.6664 156.643 94.5824 156.598 94.4966 156.556C94.527 156.549 94.5568 156.545 94.5867 156.545C94.672 156.545 94.7547 156.574 94.8247 156.622C94.8001 156.644 94.7754 156.667 94.7503 156.689Z" fill="#A7A9A8"/>
<path d="M94.0783 184.334C93.9852 184.334 93.8904 184.291 93.8103 184.19C90.7521 180.3 88.0739 175.911 87.9756 170.822C87.8726 165.493 90.4729 160.274 94.3098 156.661C94.3691 156.606 94.4327 156.571 94.4967 156.556C94.5825 156.598 94.6665 156.642 94.7505 156.689C94.4722 156.944 94.1929 157.208 93.9121 157.481C90.9668 160.352 89.0957 164.648 88.6889 169.036C88.3201 169.117 88.3015 169.671 88.6322 169.82C88.4508 173.267 89.1853 176.721 91.0235 179.538C92.1544 181.27 93.2352 182.797 94.2701 184.14C94.2657 184.188 94.2613 184.235 94.257 184.282C94.2012 184.315 94.1402 184.334 94.0783 184.334Z" fill="#0F191D"/>
<path d="M94.335 184.225C94.3128 184.197 94.2921 184.169 94.2701 184.14C93.2352 182.797 92.1544 181.27 91.0235 179.538C89.1853 176.722 88.4508 173.267 88.6322 169.821C88.6802 169.843 88.7356 169.855 88.7989 169.857C88.8053 169.857 88.8118 169.857 88.8183 169.858C88.8041 170.179 88.8001 170.5 88.8066 170.823C88.9027 175.676 91.4819 179.892 94.3982 183.602C94.5673 183.818 94.4924 184.079 94.335 184.225ZM88.689 169.036C89.0957 164.649 90.9668 160.352 93.9121 157.482C94.1929 157.208 94.4722 156.944 94.7505 156.689C94.7755 156.667 94.8002 156.644 94.8248 156.622C95.0231 156.756 95.1213 157.038 94.8976 157.249C91.6481 160.309 89.3109 164.554 88.8763 169.028C88.8504 169.027 88.8248 169.027 88.7989 169.026C88.7937 169.026 88.7889 169.026 88.7841 169.026C88.7499 169.026 88.7183 169.03 88.689 169.036Z" fill="#0F191D"/>
<path d="M88.6322 169.821C88.3015 169.672 88.3201 169.118 88.6889 169.037C88.6651 169.298 88.6461 169.56 88.6322 169.821Z" fill="#0A0F12"/>
<path d="M88.8179 169.858C88.8114 169.857 88.8049 169.857 88.7985 169.857C88.7352 169.855 88.6798 169.843 88.6318 169.821C88.6457 169.559 88.6647 169.298 88.6886 169.036C88.7179 169.029 88.7495 169.026 88.7837 169.026C88.7885 169.026 88.7933 169.026 88.7985 169.026C88.8244 169.027 88.85 169.027 88.8759 169.028C88.8496 169.304 88.8301 169.581 88.8179 169.858Z" fill="#0A0F12"/>
<path d="M91.7843 166.109C91.5312 166.076 91.2775 166.032 91.0239 165.977C90.5352 165.871 90.6975 165.165 91.1464 165.165C91.1779 165.165 91.2108 165.168 91.2451 165.175C91.4628 165.223 91.6809 165.26 91.8986 165.29C91.8557 165.562 91.8177 165.835 91.7843 166.109Z" fill="#0F191D"/>
<path d="M93.0164 166.19C92.6082 166.19 92.1962 166.164 91.7842 166.11C91.8175 165.835 91.8555 165.562 91.8984 165.291C92.2776 165.342 92.6563 165.367 93.0325 165.367C96.5858 165.367 99.9076 163.128 101.049 159.631C101.115 159.429 101.281 159.343 101.446 159.343C101.699 159.343 101.951 159.544 101.85 159.851C100.585 163.727 96.9432 166.192 93.0164 166.19Z" fill="#0F191D"/>
<path d="M97.4215 197.787C98.0196 201.196 106.302 236.61 107.284 247.023C108.266 257.438 96.68 300.265 93.7343 303C90.789 305.732 65.2298 288.673 66.0937 288.426C66.9576 288.179 80.4323 266.56 82.2907 257.259C84.1493 247.959 81.3893 211.539 81.0188 207.575C80.6478 203.612 86.7924 203.915 92.8808 201.364L95.955 197.467L97.4215 197.787Z" fill="#17282F"/>
<path d="M81.2853 298.453L75.2592 295.582L75.0723 294.745C77.0537 295.986 79.1883 297.271 81.2853 298.453Z" fill="#2D5BB2"/>
<path d="M76.2002 271.864L77.5319 269.268L77.5323 269.269C77.1004 270.133 76.6546 271 76.2002 271.864Z" fill="#A7A9A8"/>
<path d="M81.2929 298.456L81.2856 298.453C79.1886 297.27 77.0541 295.986 75.0726 294.745L71.8516 280.341L76.2001 271.864C76.6545 270.999 77.1004 270.133 77.5323 269.268L80.1647 285.168L77.4873 285.668C77.4873 285.668 81.722 295.934 81.2929 298.456Z" fill="#0F191D"/>
<path d="M87.5277 203.459C84.0638 203.653 78.0815 205.738 76.9345 208.667C72.6221 219.677 64.0567 245.561 62.2592 251.801C61.12 255.756 65.2287 285.728 65.2287 285.728L77.9936 283.846C77.9936 283.846 75.044 255.147 75.9045 253.206C79.1133 245.966 91.1927 226.345 92.6716 219.791C94.1514 213.235 95.5481 207.2 91.8648 204.5C90.7604 203.691 88.8425 203.385 87.5277 203.459Z" fill="#17282F"/>
<path d="M68.2374 285.292C68.659 287.381 67.8163 289.524 67.5406 291.107C67.0969 293.65 68.9212 295.989 68.6101 297.072C67.7778 299.975 64.1595 304.44 65.5963 305.463C67.0329 306.485 70.3409 301.157 70.3409 301.157C70.3409 301.157 67.5228 307.284 68.8888 308.204C70.7798 309.476 71.0485 308.675 71.0485 308.675C71.0485 308.675 71.6267 309.955 72.9781 309.548C73.8142 309.297 76.2522 305.797 77.1772 300.363C77.1772 300.363 77.297 302.141 77.2321 305.02C77.2062 306.17 76.4089 307.458 76.7279 308.827C77.1749 310.745 79.9683 307.714 80.2458 304.439C80.5228 301.164 78.7517 295.278 77.4239 291.126C77.2789 290.673 77.0832 290.128 76.8616 289.539L75.2772 284.246" fill="#F89E55"/>
<path d="M71.1825 308.775C72.2027 307.184 73.2106 305.561 73.7819 303.746C74.4472 301.632 74.4714 299.386 74.313 297.195C74.275 296.664 73.4435 296.66 73.482 297.195C73.6352 299.317 73.6252 301.477 72.9808 303.525C72.4316 305.27 71.4453 306.827 70.4649 308.355C70.1754 308.807 70.8942 309.224 71.1825 308.775Z" fill="#F36727"/>
<path d="M70.6161 301.44C71.1498 299.776 72.0132 297.905 71.2561 296.179C71.1657 295.973 70.8654 295.926 70.6875 296.03C70.4755 296.154 70.4478 296.392 70.5386 296.598C70.8499 297.307 70.7446 298.122 70.5559 298.848C70.3477 299.648 70.0673 300.432 69.815 301.218C69.6509 301.729 70.4529 301.948 70.6161 301.44Z" fill="#F36727"/>
<path d="M105.038 235.546C102.918 232.499 100.834 229.428 98.7907 226.329C97.8337 224.878 96.3306 223.155 96.2228 221.35C96.1346 219.864 97.2041 218.605 97.2157 217.128C97.2361 214.612 94.5955 213.434 93.365 211.576C91.2187 208.338 92.8028 204.455 94.0142 201.209C94.2012 200.707 93.3983 200.49 93.2126 200.988C92.0982 203.975 90.8474 207.111 91.8632 210.316C92.2669 211.592 93.0187 212.591 93.9614 213.516C95.1893 214.719 96.7167 215.877 96.2917 217.818C95.9853 219.219 95.1954 220.367 95.4546 221.861C95.7278 223.433 96.7816 224.784 97.636 226.084C99.8191 229.408 102.049 232.7 104.32 235.965C104.623 236.402 105.344 235.986 105.038 235.546Z" fill="#040606"/>
<path d="M83.3684 240.639C85.9562 235.877 88.1324 230.904 89.8745 225.771C90.0467 225.264 89.2443 225.045 89.0729 225.55C87.3538 230.615 85.2048 235.519 82.6508 240.221C82.3955 240.69 83.1126 241.11 83.3684 240.639Z" fill="#040606"/>
<path d="M93.234 275.083C89.7251 273.083 86.2168 271.084 82.708 269.085C82.2427 268.819 81.8233 269.537 82.2886 269.802C85.7974 271.801 89.3058 273.801 92.8146 275.801C93.2798 276.066 93.6992 275.348 93.234 275.083Z" fill="#040606"/>
<path d="M116.097 181.319C115.323 182.151 114.611 183.038 113.967 183.971C113.784 183.888 113.596 183.808 113.418 183.716C110.943 182.55 110.182 181.207 110.102 180.066C110.073 179.508 110.178 178.95 110.408 178.438C110.531 178.148 110.694 177.875 110.892 177.628C111.831 179.02 114.045 180.28 115.262 180.904C115.798 181.149 116.097 181.319 116.097 181.319Z" fill="#17282F"/>
<path d="M115.263 180.89L114.611 181.656C112.29 180.555 110.803 179.48 110.409 178.426C110.532 178.134 110.694 177.862 110.894 177.615C111.837 179.019 114.046 180.267 115.263 180.89Z" fill="white"/>
<path d="M113.448 183.739C110.973 182.573 110.212 181.23 110.133 180.09C111.065 180.55 111.907 181.168 112.619 181.917C113.082 182.425 113.372 183.062 113.448 183.739Z" fill="#F0364D"/>
</g>
<defs>
<clipPath id="clip0_238_15464">
<rect width="554" height="493" fill="white"/>
</clipPath>
</defs>
</svg>
