<svg width="4" height="16" viewBox="0 0 4 16" fill="none" xmlns="http://www.w3.org/2000/svg">
<path d="M2 3.24805C2.41421 3.24805 2.75 2.91226 2.75 2.49805C2.75 2.08383 2.41421 1.74805 2 1.74805C1.58579 1.74805 1.25 2.08383 1.25 2.49805C1.25 2.91226 1.58579 3.24805 2 3.24805Z" fill="#757575" stroke="#757575" stroke-width="2" stroke-linecap="round" stroke-linejoin="round"/>
<path d="M2 8.74805C2.41421 8.74805 2.75 8.41226 2.75 7.99805C2.75 7.58383 2.41421 7.24805 2 7.24805C1.58579 7.24805 1.25 7.58383 1.25 7.99805C1.25 8.41226 1.58579 8.74805 2 8.74805Z" fill="#757575" stroke="#757575" stroke-width="2" stroke-linecap="round" stroke-linejoin="round"/>
<path d="M2 14.248C2.41421 14.248 2.75 13.9123 2.75 13.498C2.75 13.0838 2.41421 12.748 2 12.748C1.58579 12.748 1.25 13.0838 1.25 13.498C1.25 13.9123 1.58579 14.248 2 14.248Z" fill="#757575" stroke="#757575" stroke-width="2" stroke-linecap="round" stroke-linejoin="round"/>
</svg>
