<svg width="279" height="145" viewBox="0 0 279 145" fill="none" xmlns="http://www.w3.org/2000/svg">
<g clip-path="url(#clip0_1418_22420)">
<path d="M270.652 77.7629C270.226 77.5171 269.858 77.1811 269.576 76.7784C269.294 76.3758 269.103 75.9163 269.019 75.4325C268.934 74.9486 268.956 74.4521 269.085 73.9778C269.213 73.5036 269.444 73.0632 269.762 72.6876L266.247 47.0779L273.569 47.4362L274.719 72.4158C275.317 72.9895 275.682 73.7619 275.747 74.5866C275.812 75.4113 275.57 76.2309 275.069 76.8902C274.568 77.5494 273.841 78.0023 273.027 78.1632C272.213 78.3241 271.368 78.1816 270.652 77.7629Z" fill="#A0616A"/>
<path d="M274.574 47.7755C274.424 47.9517 274.232 48.0872 274.015 48.1696L267.435 50.6727C267.104 50.7985 266.738 50.7932 266.411 50.6579C266.085 50.5227 265.822 50.2677 265.679 49.9455L259.85 36.8884C259.29 35.6772 259.195 34.3037 259.582 33.0273C259.868 32.1162 260.396 31.299 261.109 30.6618C261.822 30.0246 262.694 29.5909 263.634 29.4064C264.357 29.2581 265.103 29.2686 265.821 29.4372C266.682 29.6284 267.481 30.0306 268.146 30.6072C268.812 31.1838 269.323 31.9167 269.632 32.7395L274.815 46.3956C274.902 46.6261 274.925 46.8756 274.883 47.1183C274.841 47.3609 274.734 47.5878 274.574 47.7755Z" fill="#CCCCCC"/>
<path d="M240.284 140.27H235.731L234.08 122.684L240.284 122.767V140.27Z" fill="#A0616A"/>
<path d="M232.48 138.974H241.258V144.485H226.95C226.95 143.023 227.533 141.622 228.569 140.588C229.606 139.555 231.012 138.974 232.479 138.974H232.48Z" fill="#2F2E41"/>
<path d="M261.451 140.271H256.898L254.732 122.767H261.452L261.451 140.271Z" fill="#A0616A"/>
<path d="M253.647 138.974H262.425V144.485H248.117C248.117 143.023 248.7 141.622 249.736 140.588C250.773 139.555 252.179 138.974 253.646 138.974H253.647Z" fill="#2F2E41"/>
<path d="M262.024 134.043L254.875 133.515C254.468 133.485 254.086 133.308 253.801 133.017C253.516 132.726 253.347 132.341 253.327 131.935L251.733 99.0914C251.717 98.7763 251.587 98.4775 251.367 98.2512C251.146 98.0249 250.85 97.8866 250.535 97.8622C250.219 97.8378 249.906 97.929 249.653 98.1187C249.4 98.3084 249.225 98.5835 249.161 98.8925L242.51 131.246C242.428 131.644 242.203 131.999 241.877 132.243C241.551 132.487 241.146 132.604 240.74 132.572L234.276 132.057C234.057 132.039 233.844 131.979 233.649 131.88C233.453 131.78 233.28 131.643 233.137 131.477C232.995 131.31 232.887 131.117 232.819 130.909C232.752 130.701 232.726 130.482 232.744 130.264C232.744 130.253 232.745 130.242 232.747 130.231L238.743 70.4607C238.767 70.2271 238.839 70.0011 238.957 69.7975C239.074 69.5938 239.233 69.4172 239.423 69.2792C239.614 69.1411 239.832 69.0448 240.062 68.9965C240.293 68.9483 240.531 68.9491 240.761 68.999L263.564 73.94C263.942 74.0226 264.279 74.2327 264.519 74.5348C264.758 74.8368 264.886 75.2122 264.88 75.5973L263.818 132.413C263.81 132.849 263.631 133.264 263.319 133.569C263.008 133.875 262.588 134.047 262.151 134.048C262.109 134.048 262.067 134.046 262.024 134.043Z" fill="#2F2E41"/>
<path d="M255.768 20.4859C260.805 20.4859 264.889 16.4156 264.889 11.3947C264.889 6.37374 260.805 2.30347 255.768 2.30347C250.731 2.30347 246.647 6.37374 246.647 11.3947C246.647 16.4156 250.731 20.4859 255.768 20.4859Z" fill="#A0616A"/>
<path d="M241.617 75.0706C240.74 74.2867 240.044 73.3228 239.576 72.245C239.109 71.1673 238.881 70.0014 238.908 68.8276C238.908 55.7609 250.256 26.5668 250.611 25.6576C250.644 25.4381 250.944 25.3433 252.516 24.2857C254.088 23.228 256.354 23.0646 259.252 23.8024C259.547 23.8776 259.815 24.0318 260.028 24.2484C260.24 24.465 260.39 24.7356 260.459 25.0308L260.998 25.807C261.045 26.0041 261.138 26.1873 261.269 26.342C261.4 26.4967 261.566 26.6185 261.753 26.6977C264.09 27.6791 271.518 32.2048 268.987 49.2368C266.636 65.0583 265.681 74.3613 265.38 77.6291C265.345 78.0167 265.174 78.3796 264.898 78.6546C264.621 78.9296 264.257 79.0992 263.868 79.1339C262.722 79.236 260.756 79.3723 258.415 79.3723C252.983 79.3706 245.535 78.6414 241.617 75.0706Z" fill="#CCCCCC"/>
<path d="M230.718 70.2299C230.501 69.7888 230.384 69.3056 230.375 68.8145C230.365 68.3233 230.464 67.8361 230.664 67.3871C230.864 66.9381 231.161 66.5383 231.532 66.2159C231.904 65.8934 232.342 65.6562 232.816 65.5208L244.214 42.3032L250.094 46.6675L237.085 68.0482C237.26 68.8567 237.133 69.7014 236.725 70.4221C236.318 71.1429 235.659 71.6895 234.874 71.9585C234.089 72.2275 233.233 72.2001 232.467 71.8815C231.701 71.5628 231.079 70.9752 230.719 70.2299H230.718Z" fill="#A0616A"/>
<path d="M250.737 47.5086C250.514 47.5717 250.279 47.5775 250.053 47.5255L243.189 45.9495C242.845 45.8704 242.544 45.6626 242.348 45.3688C242.152 45.0751 242.077 44.7178 242.138 44.3704L244.598 30.2907C244.811 28.9742 245.499 27.7807 246.534 26.9357C247.281 26.3383 248.176 25.9527 249.125 25.8196C250.073 25.6866 251.04 25.8109 251.923 26.1797C252.606 26.4579 253.22 26.8812 253.722 27.42C254.33 28.0568 254.769 28.8345 254.999 29.6829C255.229 30.5313 255.243 31.4235 255.041 32.2788L251.71 46.4957C251.653 46.7357 251.533 46.9562 251.362 47.1343C251.191 47.3124 250.975 47.4417 250.737 47.5086Z" fill="#CCCCCC"/>
<path d="M253.632 19.6089C253.188 19.1575 252.861 18.6058 252.677 18.0008C252.494 17.3958 252.459 16.7555 252.578 16.1345C252.896 14.4772 253.083 13.3917 253.118 12.997C253.239 11.6469 251.87 10.5538 250.515 10.3784C250.463 10.3715 250.419 10.3672 250.382 10.3642C250.415 10.3973 250.454 10.4325 250.486 10.4636C250.744 10.7046 251.064 11.0046 250.988 11.3141C250.942 11.5004 250.771 11.6327 250.465 11.7179C248.346 12.3088 246.714 11.7663 245.329 10.0092C244.94 9.50989 244.672 8.92721 244.548 8.30716C244.051 5.88089 245.373 3.81259 246.57 2.50499C247.556 1.42676 249.155 0.118495 251.172 0.005799C252.741 -0.0813744 254.606 0.8182 255.163 2.43936C255.426 2.05087 255.776 1.72882 256.186 1.4987C256.596 1.26858 257.054 1.13671 257.524 1.11353C258.594 1.09039 259.648 1.38255 260.553 1.95345C264.976 4.47849 266.877 10.4938 264.704 15.0891C263.337 17.9798 260.376 20.1316 256.976 20.705C256.763 20.741 256.548 20.7592 256.332 20.7594C255.827 20.7585 255.328 20.6563 254.864 20.4589C254.399 20.2614 253.98 19.9728 253.63 19.6102L253.632 19.6089Z" fill="#2F2E41"/>
<path d="M121.429 64.823C121.237 64.369 120.916 63.981 120.505 63.7071C120.094 63.4331 119.612 63.2852 119.118 63.2817H72.987C72.3239 63.2821 71.688 63.5448 71.2191 64.0122C70.7502 64.4796 70.4867 65.1133 70.4863 65.7743V123.945C70.4867 124.606 70.7502 125.24 71.2191 125.707C71.688 126.175 72.3239 126.437 72.987 126.438H119.119C119.782 126.437 120.418 126.174 120.887 125.707C121.355 125.239 121.619 124.606 121.62 123.945V65.7743C121.621 65.4478 121.557 65.1243 121.431 64.823H121.429ZM121.063 123.945C121.062 124.459 120.857 124.952 120.493 125.316C120.128 125.679 119.634 125.884 119.118 125.884H72.987C72.4711 125.884 71.9764 125.68 71.6116 125.316C71.2469 124.953 71.0418 124.46 71.0417 123.945V65.7746C71.0424 65.2606 71.2475 64.7678 71.6122 64.4043C71.9769 64.0408 72.4713 63.8363 72.987 63.8356H119.119C119.508 63.8371 119.887 63.9539 120.209 64.1711C120.53 64.3884 120.78 64.6962 120.925 65.0554C120.953 65.1269 120.978 65.2 120.998 65.2741C121.042 65.4373 121.065 65.6056 121.065 65.7746L121.063 123.945Z" fill="#3F3D56"/>
<path d="M111.802 77.0157H97.9066C97.6118 77.0157 97.329 76.899 97.1205 76.6911C96.912 76.4833 96.7949 76.2015 96.7949 75.9076C96.7949 75.6138 96.912 75.3319 97.1205 75.1241C97.329 74.9163 97.6118 74.7996 97.9066 74.7996H111.802C112.097 74.7996 112.379 74.9163 112.588 75.1241C112.796 75.3319 112.913 75.6138 112.913 75.9076C112.913 76.2015 112.796 76.4833 112.588 76.6911C112.379 76.899 112.097 77.0157 111.802 77.0157Z" fill="#3F3D56"/>
<path d="M111.802 82.8328H97.9066C97.6118 82.8328 97.329 82.7161 97.1205 82.5083C96.912 82.3005 96.7949 82.0186 96.7949 81.7248C96.7949 81.4309 96.912 81.1491 97.1205 80.9412C97.329 80.7334 97.6118 80.6167 97.9066 80.6167H111.802C112.097 80.6167 112.379 80.7334 112.588 80.9412C112.796 81.1491 112.913 81.4309 112.913 81.7248C112.913 82.0186 112.796 82.3005 112.588 82.5083C112.379 82.7161 112.097 82.8328 111.802 82.8328Z" fill="#3F3D56"/>
<path d="M90.7773 86.1451H80.6227C80.2911 86.1448 79.9732 86.0133 79.7388 85.7796C79.5043 85.5459 79.3724 85.2291 79.3721 84.8985V72.9541C79.3724 72.6236 79.5043 72.3067 79.7388 72.073C79.9732 71.8393 80.2911 71.7079 80.6227 71.7075H90.7773C91.1089 71.7079 91.4268 71.8393 91.6613 72.073C91.8957 72.3067 92.0276 72.6236 92.028 72.9541V84.8985C92.0276 85.2291 91.8957 85.5459 91.6613 85.7796C91.4268 86.0133 91.1089 86.1448 90.7773 86.1451Z" fill="#4153AF"/>
<path d="M111.706 94.7439H80.3031C80.0082 94.7439 79.7255 94.6272 79.517 94.4194C79.3085 94.2116 79.1914 93.9298 79.1914 93.6359C79.1914 93.342 79.3085 93.0602 79.517 92.8524C79.7255 92.6446 80.0082 92.5278 80.3031 92.5278H111.706C111.852 92.5278 111.997 92.5565 112.132 92.6122C112.267 92.6679 112.389 92.7495 112.492 92.8524C112.596 92.9553 112.677 93.0774 112.733 93.2119C112.789 93.3463 112.818 93.4904 112.818 93.6359C112.818 93.7814 112.789 93.9255 112.733 94.0599C112.677 94.1944 112.596 94.3165 112.492 94.4194C112.389 94.5223 112.267 94.6039 112.132 94.6596C111.997 94.7153 111.852 94.7439 111.706 94.7439Z" fill="#CCCCCC"/>
<path d="M111.706 100.561H80.3031C80.0082 100.561 79.7255 100.444 79.517 100.237C79.3085 100.029 79.1914 99.7469 79.1914 99.453C79.1914 99.1592 79.3085 98.8773 79.517 98.6695C79.7255 98.4617 80.0082 98.345 80.3031 98.345H111.706C112.001 98.345 112.284 98.4617 112.492 98.6695C112.701 98.8773 112.818 99.1592 112.818 99.453C112.818 99.7469 112.701 100.029 112.492 100.237C112.284 100.444 112.001 100.561 111.706 100.561Z" fill="#CCCCCC"/>
<path d="M111.706 106.378H80.3031C80.0082 106.378 79.7255 106.261 79.517 106.054C79.3085 105.846 79.1914 105.564 79.1914 105.27C79.1914 104.976 79.3085 104.694 79.517 104.487C79.7255 104.279 80.0082 104.162 80.3031 104.162H111.706C112.001 104.162 112.284 104.279 112.492 104.487C112.701 104.694 112.818 104.976 112.818 105.27C112.818 105.564 112.701 105.846 112.492 106.054C112.284 106.261 112.001 106.378 111.706 106.378Z" fill="#CCCCCC"/>
<path d="M111.706 112.195H80.3031C80.0082 112.195 79.7255 112.079 79.517 111.871C79.3085 111.663 79.1914 111.381 79.1914 111.087C79.1914 110.793 79.3085 110.512 79.517 110.304C79.7255 110.096 80.0082 109.979 80.3031 109.979H111.706C112.001 109.979 112.284 110.096 112.492 110.304C112.701 110.512 112.818 110.793 112.818 111.087C112.818 111.381 112.701 111.663 112.492 111.871C112.284 112.079 112.001 112.195 111.706 112.195Z" fill="#CCCCCC"/>
<path d="M111.706 118.013H80.3031C80.0082 118.013 79.7255 117.896 79.517 117.688C79.3085 117.48 79.1914 117.198 79.1914 116.904C79.1914 116.611 79.3085 116.329 79.517 116.121C79.7255 115.913 80.0082 115.796 80.3031 115.796H111.706C112.001 115.796 112.284 115.913 112.492 116.121C112.701 116.329 112.818 116.611 112.818 116.904C112.818 117.198 112.701 117.48 112.492 117.688C112.284 117.896 112.001 118.013 111.706 118.013Z" fill="#CCCCCC"/>
<path d="M213.324 145H278.168C278.256 145 278.341 144.965 278.403 144.903C278.465 144.841 278.5 144.757 278.5 144.669C278.5 144.581 278.465 144.496 278.403 144.434C278.341 144.372 278.256 144.337 278.168 144.337H213.324C213.236 144.337 213.151 144.372 213.089 144.434C213.026 144.496 212.991 144.581 212.991 144.669C212.991 144.757 213.026 144.841 213.089 144.903C213.151 144.965 213.236 145 213.324 145Z" fill="#3F3D56"/>
<path d="M96.8337 49.2661C102.759 49.2661 107.562 44.4785 107.562 38.5726C107.562 32.6668 102.759 27.8792 96.8337 27.8792C90.9087 27.8792 86.1055 32.6668 86.1055 38.5726C86.1055 44.4785 90.9087 49.2661 96.8337 49.2661Z" fill="#4153AF"/>
<path d="M95.7712 42.6517C95.5299 42.6521 95.2949 42.5743 95.1018 42.43L95.0899 42.421L92.5686 40.4986C92.4517 40.4094 92.3535 40.2981 92.2797 40.1711C92.2059 40.0441 92.158 39.9039 92.1386 39.7584C92.1193 39.6129 92.1289 39.465 92.1669 39.3232C92.2049 39.1814 92.2706 39.0485 92.3601 38.932C92.4497 38.8156 92.5615 38.7178 92.689 38.6444C92.8165 38.571 92.9572 38.5234 93.1032 38.5043C93.2492 38.4851 93.3975 38.4948 93.5397 38.5329C93.6819 38.5709 93.8152 38.6365 93.932 38.7259L95.5651 39.9742L99.4241 34.9559C99.6048 34.721 99.8718 34.5672 100.166 34.5284C100.461 34.4896 100.759 34.5691 100.994 34.7492L100.995 34.7494L100.971 34.7826L100.995 34.7494C101.231 34.9298 101.385 35.196 101.424 35.4895C101.463 35.783 101.383 36.0798 101.203 36.3149L96.6634 42.2149C96.5584 42.3508 96.4234 42.4608 96.2688 42.5363C96.1143 42.6119 95.9444 42.6509 95.7722 42.6504L95.7712 42.6517Z" fill="white"/>
<path d="M26.2035 33.6875C30.2185 33.6875 33.4733 30.4432 33.4733 26.4412C33.4733 22.4391 30.2185 19.1948 26.2035 19.1948C22.1884 19.1948 18.9336 22.4391 18.9336 26.4412C18.9336 30.4432 22.1884 33.6875 26.2035 33.6875Z" fill="#CCCCCC"/>
<path d="M25.4827 29.2053C25.3192 29.2056 25.16 29.1529 25.0291 29.0552L25.0211 29.0492L23.3126 27.7452C23.1574 27.6216 23.057 27.4423 23.0329 27.2458C23.0089 27.0492 23.0631 26.8511 23.1838 26.6939C23.3046 26.5368 23.4824 26.433 23.6791 26.405C23.8757 26.377 24.0756 26.4269 24.2357 26.544L25.3424 27.3899L27.9574 23.9905C28.0799 23.8313 28.2608 23.7271 28.4603 23.7008C28.6598 23.6746 28.8616 23.7284 29.0213 23.8505L29.0052 23.8725L29.0219 23.8509C29.1814 23.9732 29.2857 24.1535 29.312 24.3524C29.3384 24.5512 29.2845 24.7523 29.1622 24.9116L26.0862 28.9103C26.0151 29.0025 25.9236 29.0771 25.8189 29.1283C25.7142 29.1795 25.599 29.206 25.4824 29.2056L25.4827 29.2053Z" fill="white"/>
<path d="M46.6325 43.4318C46.4815 43.0746 46.2288 42.7694 45.9057 42.5539C45.5825 42.3383 45.2031 42.2219 44.8142 42.219H8.51448C7.99272 42.2193 7.49241 42.426 7.12347 42.7937C6.75453 43.1615 6.54714 43.6602 6.54688 44.1802V89.9522C6.54714 90.4723 6.75453 90.971 7.12347 91.3387C7.49241 91.7065 7.99272 91.9132 8.51448 91.9135H44.8142C45.3359 91.9128 45.8359 91.7059 46.2048 91.3382C46.5736 90.9706 46.7811 90.4721 46.7818 89.9522V44.1802C46.7827 43.9233 46.7319 43.6689 46.6325 43.4318ZM46.3449 89.9525C46.3441 90.3567 46.1827 90.744 45.896 91.0298C45.6093 91.3156 45.2207 91.4765 44.8152 91.4773H8.51448C8.10879 91.4773 7.71972 91.3166 7.43285 91.0307C7.14599 90.7447 6.98482 90.3569 6.98482 89.9525V44.1802C6.98561 43.7761 7.14703 43.3887 7.43373 43.103C7.72042 42.8172 8.10903 42.6563 8.51448 42.6555H44.8142C45.1201 42.6568 45.4187 42.7489 45.6718 42.9201C45.9249 43.0913 46.121 43.3339 46.2352 43.6167C46.2574 43.673 46.2766 43.7304 46.2927 43.7888C46.3275 43.9172 46.3452 44.0496 46.3452 44.1825L46.3449 89.9525Z" fill="#CCCCCC"/>
<path d="M39.0565 53.0258H28.1228C27.8908 53.0258 27.6683 52.9339 27.5043 52.7704C27.3402 52.6069 27.248 52.3851 27.248 52.1539C27.248 51.9226 27.3402 51.7009 27.5043 51.5374C27.6683 51.3738 27.8908 51.282 28.1228 51.282H39.0562C39.2882 51.282 39.5107 51.3738 39.6747 51.5374C39.8387 51.7009 39.9309 51.9226 39.9309 52.1539C39.9309 52.3851 39.8387 52.6069 39.6747 52.7704C39.5107 52.9339 39.2885 53.0258 39.0565 53.0258Z" fill="#CCCCCC"/>
<path d="M39.0565 57.6032H28.1228C27.8908 57.6032 27.6683 57.5113 27.5043 57.3478C27.3402 57.1843 27.248 56.9625 27.248 56.7313C27.248 56.5 27.3402 56.2783 27.5043 56.1147C27.6683 55.9512 27.8908 55.8594 28.1228 55.8594H39.0562C39.2882 55.8594 39.5107 55.9512 39.6747 56.1147C39.8387 56.2783 39.9309 56.5 39.9309 56.7313C39.9309 56.9625 39.8387 57.1843 39.6747 57.3478C39.5107 57.5113 39.2885 57.6032 39.0565 57.6032Z" fill="#CCCCCC"/>
<path d="M22.5132 60.2094H14.523C14.2621 60.2092 14.012 60.1057 13.8275 59.9219C13.6431 59.738 13.5393 59.4887 13.5391 59.2286V49.8302C13.5393 49.5701 13.6431 49.3208 13.8275 49.1369C14.012 48.953 14.2621 48.8496 14.523 48.8494H22.5132C22.774 48.8497 23.0241 48.9532 23.2085 49.137C23.393 49.3209 23.4968 49.5701 23.4971 49.8302V59.2286C23.4969 59.4887 23.3931 59.738 23.2086 59.9219C23.0242 60.1057 22.774 60.2092 22.5132 60.2094Z" fill="#CCCCCC"/>
<path d="M38.9808 66.9755H14.2712C14.0392 66.9755 13.8167 66.8836 13.6527 66.7201C13.4886 66.5566 13.3965 66.3348 13.3965 66.1036C13.3965 65.8724 13.4886 65.6506 13.6527 65.4871C13.8167 65.3236 14.0392 65.2317 14.2712 65.2317H38.9808C39.2128 65.2317 39.4353 65.3236 39.5994 65.4871C39.7634 65.6506 39.8556 65.8724 39.8556 66.1036C39.8556 66.3348 39.7634 66.5566 39.5994 66.7201C39.4353 66.8836 39.2128 66.9755 38.9808 66.9755Z" fill="#CCCCCC"/>
<path d="M38.9808 71.5544H14.2712C14.0392 71.5544 13.8167 71.4625 13.6527 71.299C13.4886 71.1355 13.3965 70.9137 13.3965 70.6824C13.3965 70.4512 13.4886 70.2294 13.6527 70.0659C13.8167 69.9024 14.0392 69.8105 14.2712 69.8105H38.9808C39.2128 69.8105 39.4353 69.9024 39.5994 70.0659C39.7634 70.2294 39.8556 70.4512 39.8556 70.6824C39.8556 70.9137 39.7634 71.1355 39.5994 71.299C39.4353 71.4625 39.2128 71.5544 38.9808 71.5544Z" fill="#CCCCCC"/>
<path d="M38.9808 76.13H14.2712C14.0392 76.13 13.8167 76.0382 13.6527 75.8747C13.4886 75.7111 13.3965 75.4894 13.3965 75.2581C13.3965 75.0269 13.4886 74.8051 13.6527 74.6416C13.8167 74.4781 14.0392 74.3862 14.2712 74.3862H38.9808C39.2128 74.3862 39.4353 74.4781 39.5994 74.6416C39.7634 74.8051 39.8556 75.0269 39.8556 75.2581C39.8556 75.4894 39.7634 75.7111 39.5994 75.8747C39.4353 76.0382 39.2128 76.13 38.9808 76.13Z" fill="#CCCCCC"/>
<path d="M38.9808 80.7084H14.2712C14.0392 80.7084 13.8167 80.6165 13.6527 80.453C13.4886 80.2895 13.3965 80.0677 13.3965 79.8365C13.3965 79.6053 13.4886 79.3835 13.6527 79.22C13.8167 79.0565 14.0392 78.9646 14.2712 78.9646H38.9808C39.2128 78.9646 39.4353 79.0565 39.5994 79.22C39.7634 79.3835 39.8556 79.6053 39.8556 79.8365C39.8556 80.0677 39.7634 80.2895 39.5994 80.453C39.4353 80.6165 39.2128 80.7084 38.9808 80.7084Z" fill="#CCCCCC"/>
<path d="M38.9808 85.2846H14.2712C14.0392 85.2846 13.8167 85.1927 13.6527 85.0292C13.4886 84.8657 13.3965 84.6439 13.3965 84.4127C13.3965 84.1814 13.4886 83.9597 13.6527 83.7961C13.8167 83.6326 14.0392 83.5408 14.2712 83.5408H38.9808C39.2128 83.5408 39.4353 83.6326 39.5994 83.7961C39.7634 83.9597 39.8556 84.1814 39.8556 84.4127C39.8556 84.6439 39.7634 84.8657 39.5994 85.0292C39.4353 85.1927 39.2128 85.2846 38.9808 85.2846Z" fill="#CCCCCC"/>
<path d="M0.763196 92.1047H51.7852C51.8546 92.1047 51.9212 92.0772 51.9703 92.0283C52.0194 91.9794 52.0469 91.9131 52.0469 91.8439C52.0469 91.7747 52.0194 91.7083 51.9703 91.6594C51.9212 91.6105 51.8546 91.583 51.7852 91.583H0.763196C0.728829 91.5828 0.694759 91.5894 0.662933 91.6023C0.631106 91.6152 0.602148 91.6343 0.577708 91.6584C0.553269 91.6825 0.533831 91.7111 0.520498 91.7427C0.507166 91.7743 0.500199 91.8081 0.500004 91.8424C0.499809 91.8766 0.506385 91.9106 0.519357 91.9423C0.532328 91.9741 0.551444 92.0029 0.575608 92.0273C0.599771 92.0516 0.628511 92.071 0.660187 92.0843C0.691864 92.0976 0.725855 92.1045 0.760223 92.1047H0.763196Z" fill="#CCCCCC"/>
<path d="M165.868 33.6875C169.884 33.6875 173.138 30.4432 173.138 26.4412C173.138 22.4391 169.884 19.1948 165.868 19.1948C161.853 19.1948 158.599 22.4391 158.599 26.4412C158.599 30.4432 161.853 33.6875 165.868 33.6875Z" fill="#CCCCCC"/>
<path d="M165.148 29.2053C164.984 29.2056 164.825 29.1529 164.694 29.0552L164.686 29.0492L162.978 27.7452C162.822 27.6216 162.722 27.4423 162.698 27.2458C162.674 27.0492 162.728 26.8511 162.849 26.6939C162.97 26.5368 163.147 26.433 163.344 26.405C163.541 26.377 163.741 26.4269 163.901 26.544L165.007 27.3899L167.622 23.9905C167.745 23.8313 167.926 23.7271 168.125 23.7008C168.325 23.6746 168.527 23.7284 168.686 23.8505L168.67 23.8725L168.687 23.8509C168.846 23.9732 168.951 24.1535 168.977 24.3524C169.003 24.5512 168.949 24.7523 168.827 24.9116L165.751 28.9103C165.68 29.0025 165.589 29.0771 165.484 29.1283C165.379 29.1795 165.264 29.206 165.147 29.2056L165.148 29.2053Z" fill="white"/>
<path d="M186.298 43.4318C186.147 43.0746 185.894 42.7694 185.571 42.5539C185.248 42.3383 184.868 42.2219 184.479 42.219H148.18C147.658 42.2193 147.157 42.426 146.789 42.7937C146.42 43.1615 146.212 43.6602 146.212 44.1802V89.9522C146.212 90.4723 146.42 90.971 146.789 91.3387C147.157 91.7065 147.658 91.9132 148.18 91.9135H184.479C185.001 91.9128 185.501 91.7059 185.87 91.3382C186.239 90.9706 186.446 90.4721 186.447 89.9522V44.1802C186.448 43.9233 186.397 43.6689 186.298 43.4318ZM186.01 89.9525C186.009 90.3567 185.848 90.744 185.561 91.0298C185.274 91.3156 184.886 91.4765 184.48 91.4773H148.18C147.979 91.4773 147.78 91.4378 147.594 91.3612C147.409 91.2846 147.24 91.1723 147.098 91.0307C146.956 90.8891 146.843 90.721 146.766 90.536C146.689 90.351 146.65 90.1528 146.65 89.9525V44.1802C146.651 43.7761 146.812 43.3887 147.099 43.103C147.385 42.8172 147.774 42.6563 148.18 42.6555H184.479C184.785 42.6568 185.084 42.7489 185.337 42.9201C185.59 43.0913 185.786 43.3339 185.9 43.6167C185.922 43.673 185.942 43.7304 185.958 43.7888C185.993 43.9172 186.01 44.0496 186.01 44.1825L186.01 89.9525Z" fill="#CCCCCC"/>
<path d="M178.722 53.0258H167.788C167.556 53.0258 167.333 52.9339 167.169 52.7704C167.005 52.6069 166.913 52.3851 166.913 52.1539C166.913 51.9226 167.005 51.7009 167.169 51.5374C167.333 51.3738 167.556 51.282 167.788 51.282H178.721C178.953 51.282 179.176 51.3738 179.34 51.5374C179.504 51.7009 179.596 51.9226 179.596 52.1539C179.596 52.3851 179.504 52.6069 179.34 52.7704C179.176 52.9339 178.953 53.0258 178.721 53.0258H178.722Z" fill="#CCCCCC"/>
<path d="M178.722 57.6032H167.788C167.556 57.6032 167.333 57.5113 167.169 57.3478C167.005 57.1843 166.913 56.9625 166.913 56.7313C166.913 56.5 167.005 56.2783 167.169 56.1147C167.333 55.9512 167.556 55.8594 167.788 55.8594H178.721C178.953 55.8594 179.176 55.9512 179.34 56.1147C179.504 56.2783 179.596 56.5 179.596 56.7313C179.596 56.9625 179.504 57.1843 179.34 57.3478C179.176 57.5113 178.953 57.6032 178.721 57.6032H178.722Z" fill="#CCCCCC"/>
<path d="M162.177 60.2094H154.187C153.926 60.2092 153.676 60.1057 153.492 59.9219C153.307 59.738 153.203 59.4887 153.203 59.2286V49.8302C153.203 49.5701 153.307 49.3208 153.492 49.1369C153.676 48.953 153.926 48.8496 154.187 48.8494H162.177C162.438 48.8497 162.688 48.9532 162.873 49.137C163.057 49.3209 163.161 49.5701 163.161 49.8302V59.2286C163.161 59.4887 163.057 59.738 162.873 59.9219C162.688 60.1057 162.438 60.2092 162.177 60.2094Z" fill="#CCCCCC"/>
<path d="M178.645 66.9755H153.935C153.703 66.9755 153.481 66.8836 153.317 66.7201C153.153 66.5566 153.061 66.3348 153.061 66.1036C153.061 65.8724 153.153 65.6506 153.317 65.4871C153.481 65.3236 153.703 65.2317 153.935 65.2317H178.645C178.877 65.2317 179.099 65.3236 179.263 65.4871C179.427 65.6506 179.52 65.8724 179.52 66.1036C179.52 66.3348 179.427 66.5566 179.263 66.7201C179.099 66.8836 178.877 66.9755 178.645 66.9755Z" fill="#CCCCCC"/>
<path d="M178.645 71.5544H153.935C153.703 71.5544 153.481 71.4625 153.317 71.299C153.153 71.1355 153.061 70.9137 153.061 70.6824C153.061 70.4512 153.153 70.2294 153.317 70.0659C153.481 69.9024 153.703 69.8105 153.935 69.8105H178.645C178.877 69.8105 179.099 69.9024 179.263 70.0659C179.427 70.2294 179.52 70.4512 179.52 70.6824C179.52 70.9137 179.427 71.1355 179.263 71.299C179.099 71.4625 178.877 71.5544 178.645 71.5544Z" fill="#CCCCCC"/>
<path d="M178.645 76.13H153.935C153.703 76.13 153.481 76.0382 153.317 75.8747C153.153 75.7111 153.061 75.4894 153.061 75.2581C153.061 75.0269 153.153 74.8051 153.317 74.6416C153.481 74.4781 153.703 74.3862 153.935 74.3862H178.645C178.877 74.3862 179.099 74.4781 179.263 74.6416C179.427 74.8051 179.52 75.0269 179.52 75.2581C179.52 75.4894 179.427 75.7111 179.263 75.8747C179.099 76.0382 178.877 76.13 178.645 76.13Z" fill="#CCCCCC"/>
<path d="M178.645 80.7084H153.935C153.703 80.7084 153.481 80.6165 153.317 80.453C153.153 80.2895 153.061 80.0677 153.061 79.8365C153.061 79.6053 153.153 79.3835 153.317 79.22C153.481 79.0565 153.703 78.9646 153.935 78.9646H178.645C178.877 78.9646 179.099 79.0565 179.263 79.22C179.427 79.3835 179.52 79.6053 179.52 79.8365C179.52 80.0677 179.427 80.2895 179.263 80.453C179.099 80.6165 178.877 80.7084 178.645 80.7084Z" fill="#CCCCCC"/>
<path d="M178.645 85.2846H153.935C153.703 85.2846 153.481 85.1927 153.317 85.0292C153.153 84.8657 153.061 84.6439 153.061 84.4127C153.061 84.1814 153.153 83.9597 153.317 83.7961C153.481 83.6326 153.703 83.5408 153.935 83.5408H178.645C178.877 83.5408 179.099 83.6326 179.263 83.7961C179.427 83.9597 179.52 84.1814 179.52 84.4127C179.52 84.6439 179.427 84.8657 179.263 85.0292C179.099 85.1927 178.877 85.2846 178.645 85.2846Z" fill="#CCCCCC"/>
<path d="M140.427 92.1047H191.449C191.519 92.1047 191.585 92.0772 191.634 92.0283C191.683 91.9794 191.711 91.9131 191.711 91.8439C191.711 91.7747 191.683 91.7083 191.634 91.6594C191.585 91.6105 191.519 91.583 191.449 91.583H140.427C140.393 91.5828 140.359 91.5894 140.327 91.6023C140.295 91.6152 140.266 91.6343 140.242 91.6584C140.217 91.6825 140.198 91.7111 140.185 91.7427C140.171 91.7743 140.164 91.8081 140.164 91.8424C140.164 91.8766 140.17 91.9106 140.183 91.9423C140.196 91.9741 140.215 92.0029 140.24 92.0273C140.264 92.0516 140.293 92.071 140.324 92.0843C140.356 92.0976 140.39 92.1045 140.424 92.1047H140.427Z" fill="#CCCCCC"/>
<path d="M63.3501 126.636H128.194C128.282 126.636 128.367 126.601 128.429 126.539C128.492 126.477 128.527 126.393 128.527 126.305C128.527 126.217 128.492 126.133 128.429 126.07C128.367 126.008 128.282 125.973 128.194 125.973H63.3501C63.2619 125.973 63.1773 126.008 63.115 126.07C63.0526 126.133 63.0176 126.217 63.0176 126.305C63.0176 126.393 63.0526 126.477 63.115 126.539C63.1773 126.601 63.2619 126.636 63.3501 126.636Z" fill="#3F3D56"/>
</g>
<defs>
<clipPath id="clip0_1418_22420">
<rect width="278" height="145" fill="white" transform="translate(0.5)"/>
</clipPath>
</defs>
</svg>
