<svg width="21" height="20" viewBox="0 0 21 20" fill="none" xmlns="http://www.w3.org/2000/svg">
<path id="Vector" d="M15.34 18L11.8 14.46L13.21 13.05L15.33 15.17L19.57 10.93L21 12.34L15.34 18ZM10 15C9.99943 13.819 10.2979 12.6571 10.8676 11.6225C11.4373 10.588 12.2596 9.71453 13.2579 9.08357C14.2563 8.45262 15.3981 8.08471 16.577 8.01414C17.7559 7.94357 18.9335 8.17265 20 8.68V2C20 0.9 19.1 0 18 0H2C0.9 0 0 0.9 0 2V20L4 16H10C10 15.83 10.01 15.67 10.03 15.5C10.0097 15.3341 9.99973 15.1671 10 15Z" fill="#4153AF"/>
</svg>
