<svg version="1.2" xmlns="http://www.w3.org/2000/svg" viewBox="0 0 123 61" width="123" height="61">
	<title>Group 13-svg</title>
	<style>
		.s0 { fill: #d9d9d9 } 
		.s1 { opacity: .5;fill: #ef5350 } 
		.s2 { opacity: .5;fill: #ffc107 } 
		.s3 { opacity: .5;fill: #00e676 } 
		.s4 { opacity: .5;fill: #00c853 } 
		.s5 { opacity: .5;fill: #d32f2f } 
	</style>
	<g id="Group 13">
		<path id="Ellipse 6" class="s0" d="m0 61.1c0-16.2 6.4-31.7 17.9-43.2 11.5-11.5 27-17.9 43.2-17.9 16.2 0 31.7 6.4 43.2 17.9 11.5 11.5 17.9 27 17.9 43.2h-31.2c0-7.9-3.2-15.5-8.8-21.1-5.6-5.6-13.2-8.8-21.1-8.8-7.9 0-15.5 3.2-21.1 8.8-5.6 5.6-8.8 13.2-8.8 21.1z"/>
		<path id="Ellipse 8" class="s1" d="m0 61.1c0-12.9 4.1-25.5 11.7-35.9 7.6-10.5 18.2-18.2 30.5-22.2l9.7 29.7c-6 1.9-11.3 5.7-15 10.8-3.7 5.1-5.7 11.3-5.7 17.6z"/>
		<path id="Ellipse 9" class="s2" d="m42.2 3c12.3-4 25.5-4 37.7 0l-9.6 29.7c-6-2-12.5-2-18.5 0z"/>
		<path id="Ellipse 10" class="s3" d="m79.9 3c12.2 3.9 23 11.7 30.6 22.1l-25.3 18.4c-3.7-5.1-8.9-8.9-14.9-10.8z"/>
		<path id="Ellipse 11" class="s4" d="m110.4 25c7.6 10.5 11.8 23 11.8 35.9l-31.2 0.1c0-6.3-2.1-12.4-5.8-17.5z"/>
		<path id="Ellipse 7" class="s5" d="m0 61.1c0-12.9 4.1-25.5 11.7-35.9l25.2 18.3c-3.7 5.1-5.7 11.3-5.7 17.6z"/>
	</g>
</svg>