<svg width="40" height="40" viewBox="0 0 40 40" fill="none" xmlns="http://www.w3.org/2000/svg">
<g id="flat-color-icons:google">
<path id="Vector" d="M36.3422 16.7358H34.9997V16.6666H19.9997V23.3333H29.4188C28.0447 27.2141 24.3522 29.9999 19.9997 29.9999C14.4772 29.9999 9.99967 25.5224 9.99967 19.9999C9.99967 14.4774 14.4772 9.99992 19.9997 9.99992C22.5488 9.99992 24.868 10.9616 26.6338 12.5324L31.348 7.81825C28.3713 5.04409 24.3897 3.33325 19.9997 3.33325C10.7955 3.33325 3.33301 10.7958 3.33301 19.9999C3.33301 29.2041 10.7955 36.6666 19.9997 36.6666C29.2038 36.6666 36.6663 29.2041 36.6663 19.9999C36.6663 18.8824 36.5513 17.7916 36.3422 16.7358Z" fill="#FFC107"/>
<path id="Vector_2" d="M5.25488 12.2424L10.7307 16.2583C12.2124 12.5899 15.8007 9.99992 19.9999 9.99992C22.5491 9.99992 24.8682 10.9616 26.6341 12.5324L31.3482 7.81825C28.3716 5.04409 24.3899 3.33325 19.9999 3.33325C13.5982 3.33325 8.04655 6.94742 5.25488 12.2424Z" fill="#FF3D00"/>
<path id="Vector_3" d="M19.9996 36.6668C24.3046 36.6668 28.2163 35.0192 31.1738 32.3401L26.0154 27.9751C24.2859 29.2904 22.1725 30.0018 19.9996 30.0001C15.6646 30.0001 11.9838 27.2359 10.5971 23.3784L5.16211 27.5659C7.92044 32.9634 13.5221 36.6668 19.9996 36.6668Z" fill="#4CAF50"/>
<path id="Vector_4" d="M36.3425 16.7359H35V16.6667H20V23.3334H29.4192C28.7618 25.1804 27.5778 26.7944 26.0133 27.9759L26.0158 27.9742L31.1742 32.3392C30.8092 32.6709 36.6667 28.3334 36.6667 20.0001C36.6667 18.8826 36.5517 17.7917 36.3425 16.7359Z" fill="#1976D2"/>
</g>
</svg>
