<svg width="110" height="125" viewBox="0 0 110 125" fill="none" xmlns="http://www.w3.org/2000/svg">
<rect width="110" height="125" rx="5" fill="#4CAF50" fill-opacity="0.2"/>
<path fill-rule="evenodd" clip-rule="evenodd" d="M54.9999 28C41.745 28 31 38.7452 31 52.0001C31 65.255 41.745 76 54.9999 76C68.2547 76 78.9997 65.255 78.9997 52.0001C78.9997 38.7452 68.2547 28 54.9999 28ZM45.8763 50.686C46.8528 50.686 47.6445 49.3513 47.6445 47.7053C47.6445 46.0592 46.8528 44.7246 45.8763 44.7246C44.8995 44.7246 44.1077 46.0592 44.1077 47.7053C44.1077 49.3513 44.8995 50.686 45.8763 50.686ZM64.467 55.5681C64.4695 55.3353 64.3259 55.0255 64.0747 55.0543L64.0525 55.0576C63.8148 55.1027 63.5231 55.3871 63.2718 55.6322C63.1542 55.7468 63.0455 55.8529 62.9552 55.9218C62.2091 56.4934 61.4164 57.0061 60.5793 57.4344C59.185 58.1482 57.6671 58.6178 56.1041 58.7541C53.6485 58.9687 51.1974 58.3452 49.0358 57.1922C48.4496 56.8797 47.8791 56.5359 47.3363 56.1529C47.064 55.9609 46.7988 55.759 46.5425 55.5462C46.4896 55.502 46.4348 55.4406 46.3773 55.3762L46.3773 55.3762C46.2551 55.2394 46.1209 55.089 45.9676 55.0619C45.6942 55.0129 45.5286 55.3294 45.5325 55.5746C45.5672 57.7213 46.6766 59.9342 48.4977 61.4924C50.2502 63.0106 52.6253 63.8665 55.0009 63.8215C57.3371 63.8125 59.6907 62.9596 61.4609 61.4788C62.3541 60.7223 63.0999 59.8007 63.6217 58.8056C64.1708 57.7238 64.4551 56.6344 64.467 55.5681ZM67.3547 48.6947C66.6756 46.9969 65.0551 45.9002 63.2266 45.9002C61.4372 45.9002 59.8298 46.9651 59.132 48.6128C58.998 48.9282 59.1028 49.2844 59.3863 49.4789C59.6701 49.6738 60.0409 49.6431 60.2876 49.4037C61.6189 48.1125 63.7239 47.0763 66.1921 49.4738C66.3315 49.609 66.5106 49.6785 66.691 49.6785C66.829 49.6785 66.9673 49.638 67.09 49.5561C67.373 49.366 67.482 49.0118 67.3547 48.6947Z" fill="#349D38"/>
<path d="M43.752 90.5723V92.8574H36.3301V90.5723H43.752ZM37.1992 84.7812V99H34.2695V84.7812H37.1992ZM45.8418 84.7812V99H42.9219V84.7812H45.8418ZM51.5836 88.4336V99H48.7613V88.4336H51.5836ZM48.5855 85.6797C48.5855 85.2695 48.7288 84.931 49.0152 84.6641C49.3017 84.3971 49.6858 84.2637 50.1676 84.2637C50.6428 84.2637 51.0237 84.3971 51.3102 84.6641C51.6031 84.931 51.7496 85.2695 51.7496 85.6797C51.7496 86.0898 51.6031 86.4284 51.3102 86.6953C51.0237 86.9622 50.6428 87.0957 50.1676 87.0957C49.6858 87.0957 49.3017 86.9622 49.0152 86.6953C48.7288 86.4284 48.5855 86.0898 48.5855 85.6797ZM60.9973 88.4336H63.5461V98.6484C63.5461 99.612 63.3312 100.429 62.9016 101.1C62.4784 101.777 61.8859 102.288 61.1242 102.633C60.3625 102.984 59.4771 103.16 58.468 103.16C58.0253 103.16 57.5565 103.102 57.0617 102.984C56.5734 102.867 56.1047 102.685 55.6555 102.438C55.2128 102.19 54.8417 101.878 54.5422 101.5L55.7824 99.8398C56.1079 100.217 56.4855 100.51 56.9152 100.719C57.3449 100.934 57.8202 101.041 58.341 101.041C58.8488 101.041 59.2785 100.947 59.6301 100.758C59.9816 100.576 60.2518 100.305 60.4406 99.9473C60.6294 99.5957 60.7238 99.1693 60.7238 98.668V90.875L60.9973 88.4336ZM53.8879 93.8438V93.6387C53.8879 92.8314 53.9855 92.099 54.1809 91.4414C54.3827 90.7773 54.6659 90.2077 55.0305 89.7324C55.4016 89.2572 55.8508 88.8893 56.3781 88.6289C56.9055 88.3685 57.5012 88.2383 58.1652 88.2383C58.8684 88.2383 59.4576 88.3685 59.9328 88.6289C60.4081 88.8893 60.7987 89.2604 61.1047 89.7422C61.4107 90.2174 61.6483 90.7806 61.8176 91.4316C61.9934 92.0762 62.1301 92.7826 62.2277 93.5508V94C62.1301 94.7357 61.9836 95.4193 61.7883 96.0508C61.593 96.6823 61.3358 97.2357 61.0168 97.7109C60.6978 98.1797 60.3007 98.5443 59.8254 98.8047C59.3566 99.0651 58.7967 99.1953 58.1457 99.1953C57.4947 99.1953 56.9055 99.0618 56.3781 98.7949C55.8573 98.528 55.4113 98.1536 55.0402 97.6719C54.6691 97.1901 54.3827 96.6237 54.1809 95.9727C53.9855 95.3216 53.8879 94.612 53.8879 93.8438ZM56.7004 93.6387V93.8438C56.7004 94.2799 56.7427 94.6868 56.8273 95.0645C56.912 95.4421 57.0422 95.7773 57.218 96.0703C57.4003 96.3568 57.6249 96.5814 57.8918 96.7441C58.1652 96.9004 58.4875 96.9785 58.8586 96.9785C59.3729 96.9785 59.7928 96.8711 60.1184 96.6562C60.4439 96.4349 60.688 96.1322 60.8508 95.748C61.0135 95.3639 61.1079 94.9212 61.134 94.4199V93.1406C61.121 92.7305 61.0656 92.3626 60.968 92.0371C60.8703 91.7051 60.7336 91.4219 60.5578 91.1875C60.382 90.9531 60.1542 90.7708 59.8742 90.6406C59.5943 90.5104 59.2622 90.4453 58.8781 90.4453C58.507 90.4453 58.1848 90.5299 57.9113 90.6992C57.6444 90.862 57.4198 91.0866 57.2375 91.373C57.0617 91.6595 56.9283 91.998 56.8371 92.3887C56.746 92.7728 56.7004 93.1895 56.7004 93.6387ZM68.8777 84V99H66.0652V84H68.8777ZM68.4773 93.3457H67.7059C67.7124 92.61 67.81 91.9329 67.9988 91.3145C68.1876 90.6895 68.4578 90.1491 68.8094 89.6934C69.1609 89.2311 69.5809 88.873 70.0691 88.6191C70.5639 88.3652 71.1108 88.2383 71.7098 88.2383C72.2306 88.2383 72.7026 88.3132 73.1258 88.4629C73.5555 88.6061 73.9233 88.8405 74.2293 89.166C74.5418 89.485 74.7827 89.9049 74.952 90.4258C75.1212 90.9466 75.2059 91.5781 75.2059 92.3203V99H72.3738V92.3008C72.3738 91.832 72.3055 91.4642 72.1688 91.1973C72.0385 90.9238 71.8465 90.7318 71.5926 90.6211C71.3452 90.5039 71.0392 90.4453 70.6746 90.4453C70.271 90.4453 69.9259 90.5202 69.6395 90.6699C69.3595 90.8197 69.1349 91.028 68.9656 91.2949C68.7964 91.5553 68.6727 91.8613 68.5945 92.2129C68.5164 92.5645 68.4773 92.9421 68.4773 93.3457Z" fill="#349D38"/>
</svg>
