<svg width="48" height="48" viewBox="0 0 48 48" fill="none" xmlns="http://www.w3.org/2000/svg">
<path fill-rule="evenodd" clip-rule="evenodd" d="M23.9999 0C10.745 0 0 10.7452 0 24.0001C0 37.255 10.745 48 23.9999 48C37.2547 48 47.9997 37.255 47.9997 24.0001C47.9997 10.7452 37.2547 0 23.9999 0ZM14.8763 22.686C15.8528 22.686 16.6445 21.3513 16.6445 19.7053C16.6445 18.0592 15.8528 16.7246 14.8763 16.7246C13.8995 16.7246 13.1077 18.0592 13.1077 19.7053C13.1077 21.3513 13.8995 22.686 14.8763 22.686ZM33.467 27.5681C33.4695 27.3353 33.3259 27.0255 33.0747 27.0543L33.0525 27.0576C32.8148 27.1027 32.5231 27.3871 32.2718 27.6322C32.1542 27.7468 32.0455 27.8529 31.9552 27.9218C31.2091 28.4934 30.4164 29.0061 29.5793 29.4344C28.185 30.1482 26.6671 30.6178 25.1041 30.7541C22.6485 30.9687 20.1974 30.3452 18.0358 29.1922C17.4496 28.8797 16.8791 28.5359 16.3363 28.1529C16.064 27.9609 15.7988 27.759 15.5425 27.5462C15.4896 27.502 15.4348 27.4406 15.3773 27.3762L15.3773 27.3762C15.2551 27.2394 15.1209 27.089 14.9676 27.0619C14.6942 27.0129 14.5286 27.3294 14.5325 27.5746C14.5672 29.7213 15.6766 31.9342 17.4977 33.4924C19.2502 35.0106 21.6253 35.8665 24.0009 35.8215C26.3371 35.8125 28.6907 34.9596 30.4609 33.4788C31.3541 32.7223 32.0999 31.8007 32.6217 30.8056C33.1708 29.7238 33.4551 28.6344 33.467 27.5681ZM36.3547 20.6947C35.6756 18.9969 34.0551 17.9002 32.2266 17.9002C30.4372 17.9002 28.8298 18.9651 28.132 20.6128C27.998 20.9282 28.1028 21.2844 28.3863 21.4789C28.6701 21.6738 29.0409 21.6431 29.2876 21.4037C30.6189 20.1125 32.7239 19.0763 35.1921 21.4738C35.3315 21.609 35.5106 21.6785 35.691 21.6785C35.829 21.6785 35.9673 21.638 36.09 21.5561C36.373 21.366 36.482 21.0118 36.3547 20.6947Z" fill="#349D38"/>
</svg>
