<svg width="123" height="123" viewBox="0 0 123 123" fill="none" xmlns="http://www.w3.org/2000/svg">
<path d="M50.752 78.2703V80.5554H43.3301V78.2703H50.752ZM44.1992 72.4792V86.698H41.2695V72.4792H44.1992ZM52.8418 72.4792V86.698H49.9219V72.4792H52.8418ZM58.5836 76.1316V86.698H55.7613V76.1316H58.5836ZM55.5855 73.3777C55.5855 72.9675 55.7288 72.629 56.0152 72.3621C56.3017 72.0951 56.6858 71.9617 57.1676 71.9617C57.6428 71.9617 58.0237 72.0951 58.3102 72.3621C58.6031 72.629 58.7496 72.9675 58.7496 73.3777C58.7496 73.7878 58.6031 74.1264 58.3102 74.3933C58.0237 74.6602 57.6428 74.7937 57.1676 74.7937C56.6858 74.7937 56.3017 74.6602 56.0152 74.3933C55.7288 74.1264 55.5855 73.7878 55.5855 73.3777ZM67.9973 76.1316H70.5461V86.3464C70.5461 87.31 70.3312 88.127 69.9016 88.7976C69.4784 89.4747 68.8859 89.9858 68.1242 90.3308C67.3625 90.6824 66.4771 90.8582 65.468 90.8582C65.0253 90.8582 64.5565 90.7996 64.0617 90.6824C63.5734 90.5652 63.1047 90.3829 62.6555 90.1355C62.2128 89.8881 61.8417 89.5756 61.5422 89.198L62.7824 87.5378C63.1079 87.9154 63.4855 88.2084 63.9152 88.4167C64.3449 88.6316 64.8202 88.739 65.341 88.739C65.8488 88.739 66.2785 88.6446 66.6301 88.4558C66.9816 88.2735 67.2518 88.0033 67.4406 87.6453C67.6294 87.2937 67.7238 86.8673 67.7238 86.366V78.573L67.9973 76.1316ZM60.8879 81.5417V81.3367C60.8879 80.5294 60.9855 79.797 61.1809 79.1394C61.3827 78.4753 61.6659 77.9057 62.0305 77.4304C62.4016 76.9552 62.8508 76.5873 63.3781 76.3269C63.9055 76.0665 64.5012 75.9363 65.1652 75.9363C65.8684 75.9363 66.4576 76.0665 66.9328 76.3269C67.4081 76.5873 67.7987 76.9584 68.1047 77.4402C68.4107 77.9154 68.6483 78.4786 68.8176 79.1296C68.9934 79.7742 69.1301 80.4806 69.2277 81.2488V81.698C69.1301 82.4337 68.9836 83.1173 68.7883 83.7488C68.593 84.3803 68.3358 84.9337 68.0168 85.4089C67.6978 85.8777 67.3007 86.2423 66.8254 86.5027C66.3566 86.7631 65.7967 86.8933 65.1457 86.8933C64.4947 86.8933 63.9055 86.7598 63.3781 86.4929C62.8573 86.226 62.4113 85.8516 62.0402 85.3699C61.6691 84.8881 61.3827 84.3217 61.1809 83.6707C60.9855 83.0196 60.8879 82.31 60.8879 81.5417ZM63.7004 81.3367V81.5417C63.7004 81.9779 63.7427 82.3848 63.8273 82.7625C63.912 83.1401 64.0422 83.4753 64.218 83.7683C64.4003 84.0548 64.6249 84.2794 64.8918 84.4421C65.1652 84.5984 65.4875 84.6765 65.8586 84.6765C66.3729 84.6765 66.7928 84.5691 67.1184 84.3542C67.4439 84.1329 67.688 83.8302 67.8508 83.446C68.0135 83.0619 68.1079 82.6192 68.134 82.1179V80.8386C68.121 80.4285 68.0656 80.0606 67.968 79.7351C67.8703 79.4031 67.7336 79.1199 67.5578 78.8855C67.382 78.6511 67.1542 78.4688 66.8742 78.3386C66.5943 78.2084 66.2622 78.1433 65.8781 78.1433C65.507 78.1433 65.1848 78.2279 64.9113 78.3972C64.6444 78.56 64.4198 78.7846 64.2375 79.071C64.0617 79.3575 63.9283 79.696 63.8371 80.0867C63.746 80.4708 63.7004 80.8875 63.7004 81.3367ZM75.8777 71.698V86.698H73.0652V71.698H75.8777ZM75.4773 81.0437H74.7059C74.7124 80.308 74.81 79.6309 74.9988 79.0125C75.1876 78.3875 75.4578 77.8471 75.8094 77.3914C76.1609 76.9291 76.5809 76.571 77.0691 76.3171C77.5639 76.0632 78.1108 75.9363 78.7098 75.9363C79.2306 75.9363 79.7026 76.0111 80.1258 76.1609C80.5555 76.3041 80.9233 76.5385 81.2293 76.864C81.5418 77.183 81.7827 77.6029 81.952 78.1238C82.1212 78.6446 82.2059 79.2761 82.2059 80.0183V86.698H79.3738V79.9988C79.3738 79.53 79.3055 79.1622 79.1688 78.8953C79.0385 78.6218 78.8465 78.4298 78.5926 78.3191C78.3452 78.2019 78.0392 78.1433 77.6746 78.1433C77.271 78.1433 76.9259 78.2182 76.6395 78.3679C76.3595 78.5177 76.1349 78.726 75.9656 78.9929C75.7964 79.2533 75.6727 79.5593 75.5945 79.9109C75.5164 80.2625 75.4773 80.6401 75.4773 81.0437Z" fill="#212121"/>
<path d="M0.59375 61.099C0.593751 44.8945 7.03095 29.3538 18.4892 17.8955C29.9475 6.4372 45.4883 1.73849e-06 61.6927 0C77.8972 -1.73848e-06 93.4379 6.43719 104.896 17.8955C116.354 29.3537 122.792 44.8945 122.792 61.099L91.5733 61.099C91.5733 53.1742 88.4251 45.5739 82.8215 39.9702C77.2178 34.3665 69.6175 31.2184 61.6927 31.2184C53.7679 31.2184 46.1677 34.3665 40.564 39.9702C34.9603 45.5739 31.8122 53.1742 31.8122 61.099H0.59375Z" fill="#D9D9D9"/>
<path opacity="0.5" d="M0.59375 61.099C0.593751 48.1961 4.67852 35.6245 12.2626 25.1859C19.8467 14.7473 30.5408 6.97759 42.8121 2.9904L52.4591 32.6809C46.4578 34.6308 41.2279 38.4306 37.5189 43.5356C33.8098 48.6406 31.8122 54.7888 31.8122 61.099H0.59375Z" fill="#EF5350"/>
<path opacity="0.5" d="M42.7795 3.00099C55.0486 -0.993084 68.2672 -1.00049 80.5408 2.97982L70.9104 32.6757C64.908 30.7291 58.4434 30.7328 52.4432 32.6861L42.7795 3.00099Z" fill="#FFC107"/>
<path opacity="0.5" d="M80.4556 2.95226C92.735 6.91459 103.445 14.6626 111.05 25.0858L85.831 43.4867C82.1116 38.3892 76.874 34.6 70.8687 32.6622L80.4556 2.95226Z" fill="#00E676"/>
<path opacity="0.5" d="M111.02 25.0451C118.634 35.462 122.755 48.022 122.791 60.9247L91.5731 61.0138C91.5552 54.7036 89.54 48.5612 85.8164 43.4668L111.02 25.0451Z" fill="#00C853"/>
<path opacity="0.5" d="M0.59375 61.099C0.593751 48.1961 4.67852 35.6245 12.2626 25.1859L37.5189 43.5356C33.8098 48.6406 31.8122 54.7888 31.8122 61.099H0.59375Z" fill="#D32F2F"/>
<path fill-rule="evenodd" clip-rule="evenodd" d="M67.7798 54.6714L84.5084 30.8326L60.6701 47.5609C59.0406 47.638 57.4336 48.2988 56.1892 49.5432C53.536 52.1964 53.536 56.4982 56.1892 59.1515C58.8425 61.8047 63.1443 61.8047 65.7975 59.1515C67.0417 57.9073 67.7025 56.3006 67.7798 54.6714Z" fill="#393939"/>
</svg>
