<svg width="123" height="123" viewBox="0 0 123 123" fill="none" xmlns="http://www.w3.org/2000/svg">
<path d="M0 61.099C1.41664e-06 44.8945 6.4372 29.3538 17.8955 17.8955C29.3538 6.4372 44.8945 1.73849e-06 61.099 0C77.3034 -1.73848e-06 92.8442 6.43719 104.302 17.8955C115.761 29.3537 122.198 44.8945 122.198 61.099L90.9795 61.099C90.9795 53.1742 87.8314 45.5739 82.2277 39.9702C76.624 34.3665 69.0238 31.2184 61.099 31.2184C53.1742 31.2184 45.5739 34.3665 39.9702 39.9702C34.3665 45.5739 31.2184 53.1742 31.2184 61.099H0Z" fill="#D9D9D9"/>
<path opacity="0.5" d="M0 61.099C1.128e-06 48.1961 4.08477 35.6245 11.6689 25.1859C19.253 14.7473 29.947 6.97759 42.2183 2.9904L51.8654 32.6809C45.8641 34.6308 40.6341 38.4306 36.9251 43.5356C33.2161 48.6406 31.2184 54.7888 31.2184 61.099H0Z" fill="#EF5350"/>
<path opacity="0.5" d="M42.1858 3.00099C54.4549 -0.993084 67.6735 -1.00049 79.947 2.97982L70.3166 32.6757C64.3142 30.7291 57.8497 30.7328 51.8495 32.6861L42.1858 3.00099Z" fill="#FFC107"/>
<path opacity="0.5" d="M79.8618 2.95226C92.1412 6.91459 102.851 14.6626 110.456 25.0858L85.2372 43.4867C81.5179 38.3892 76.2802 34.6 70.275 32.6622L79.8618 2.95226Z" fill="#00E676"/>
<path opacity="0.5" d="M110.426 25.0451C118.04 35.462 122.161 48.022 122.198 60.9247L90.9794 61.0138C90.9614 54.7036 88.9462 48.5612 85.2227 43.4668L110.426 25.0451Z" fill="#00C853"/>
<path opacity="0.5" d="M0 61.099C1.128e-06 48.1961 4.08477 35.6245 11.6689 25.1859L36.9251 43.5356C33.2161 48.6406 31.2184 54.7888 31.2184 61.099H0Z" fill="#D32F2F"/>
<path fill-rule="evenodd" clip-rule="evenodd" d="M57.1249 48.6484L28.0306 49.9385L55.8286 58.6197C56.8839 59.8637 58.388 60.7339 60.1332 60.9606C63.8542 61.4441 67.2625 58.8195 67.746 55.0985C68.2294 51.3775 65.6048 47.9691 61.8838 47.4857C60.139 47.259 58.4629 47.7157 57.1249 48.6484Z" fill="#393939"/>
</svg>
