<svg width="445" height="297" viewBox="0 0 445 297" fill="none" xmlns="http://www.w3.org/2000/svg">
<g clip-path="url(#clip0_15_18530)">
<path d="M364.939 177.815C365.232 177.727 365.533 177.663 365.836 177.623L377.96 153.013L374.259 147.47L381.903 140.796L391.513 152.543L371.941 180.998C372.423 182.074 372.565 183.271 372.349 184.43C372.133 185.589 371.569 186.654 370.731 187.485C369.894 188.316 368.824 188.872 367.662 189.08C366.501 189.288 365.303 189.138 364.229 188.65C363.155 188.162 362.256 187.359 361.65 186.347C361.044 185.336 360.761 184.164 360.838 182.988C360.915 181.811 361.348 180.686 362.081 179.762C362.813 178.838 363.81 178.159 364.939 177.815V177.815Z" fill="#A0616A"/>
<path d="M385.636 144.196C385.47 144.37 385.281 144.519 385.073 144.639L372.668 151.823C372.37 151.995 372.039 152.104 371.697 152.143C371.354 152.181 371.007 152.148 370.678 152.046C370.349 151.944 370.045 151.774 369.785 151.548C369.525 151.323 369.314 151.045 369.167 150.734L363.133 138.001C362.877 137.465 362.821 136.855 362.978 136.282C363.134 135.709 363.491 135.211 363.985 134.879L371.674 129.653C372.154 129.327 372.733 129.179 373.311 129.234C373.889 129.289 374.43 129.544 374.84 129.954L385.588 140.729C386.045 141.187 386.306 141.806 386.315 142.453C386.324 143.1 386.08 143.725 385.635 144.196H385.636Z" fill="#BDBDBD"/>
<path d="M403.053 285.214L396.504 286.994L386.513 262.605L396.18 259.978L403.053 285.214Z" fill="#A0616A"/>
<path d="M391.316 286.396L403.947 282.963L406.111 290.908L385.527 296.502C385.243 295.459 385.167 294.37 385.304 293.297C385.442 292.225 385.789 291.19 386.326 290.251C386.864 289.313 387.581 288.489 388.437 287.828C389.294 287.166 390.272 286.68 391.316 286.396Z" fill="#212121"/>
<path d="M347.062 290.206L340.275 290.205L337.046 264.052L347.064 264.052L347.062 290.206Z" fill="#A0616A"/>
<path d="M335.427 288.269H348.517V296.502H327.185C327.185 295.421 327.398 294.35 327.812 293.351C328.226 292.352 328.833 291.445 329.599 290.68C330.364 289.916 331.273 289.309 332.273 288.895C333.273 288.482 334.344 288.269 335.427 288.269Z" fill="#212121"/>
<path d="M354.214 120.972C361.724 120.972 367.812 114.89 367.812 107.388C367.812 99.8855 361.724 93.8037 354.214 93.8037C346.704 93.8037 340.616 99.8855 340.616 107.388C340.616 114.89 346.704 120.972 354.214 120.972Z" fill="#A0616A"/>
<path d="M346.647 271.559H337.372C336.737 271.557 336.128 271.316 335.665 270.882C335.203 270.448 334.923 269.855 334.883 269.223C332.119 225.331 333.735 193.845 339.97 170.138C339.998 170.035 340.031 169.933 340.071 169.833L340.568 168.593C340.752 168.13 341.071 167.733 341.483 167.454C341.896 167.175 342.383 167.026 342.882 167.028H361.956C362.315 167.028 362.67 167.105 362.997 167.255C363.324 167.405 363.614 167.624 363.847 167.897L366.438 170.917C366.489 170.976 366.536 171.035 366.582 171.099C378.264 187.373 388.734 219.191 400.859 261.957C401.038 262.578 400.967 263.245 400.661 263.815C400.355 264.385 399.839 264.813 399.221 265.008L389.253 268.194C388.681 268.374 388.063 268.343 387.512 268.106C386.96 267.87 386.512 267.443 386.249 266.904L360.382 213.308C360.201 212.933 359.904 212.627 359.535 212.434C359.166 212.241 358.745 212.172 358.334 212.237C357.922 212.302 357.543 212.497 357.252 212.794C356.96 213.091 356.773 213.474 356.716 213.886L349.116 269.407C349.032 270.002 348.737 270.547 348.283 270.943C347.83 271.338 347.249 271.557 346.647 271.559Z" fill="#212121"/>
<path d="M365.392 171.137C365.366 171.137 365.34 171.137 365.314 171.136L342.145 170.406C341.549 170.389 340.979 170.159 340.539 169.757C340.099 169.356 339.818 168.81 339.748 168.219C336.811 144.469 344.866 138.107 348.466 136.474C348.766 136.338 349.027 136.127 349.222 135.861C349.417 135.596 349.541 135.284 349.58 134.957L349.891 132.467C349.944 132.028 350.114 131.61 350.383 131.258C356.027 123.955 363.733 121.616 367.825 120.873C368.157 120.813 368.497 120.822 368.826 120.897C369.154 120.973 369.464 121.115 369.736 121.314C370.007 121.513 370.236 121.766 370.407 122.056C370.579 122.346 370.689 122.668 370.732 123.002L371.199 126.576C371.246 126.917 371.382 127.24 371.594 127.512C383.364 142.883 370.251 165.578 367.503 169.971C367.279 170.328 366.967 170.622 366.598 170.826C366.229 171.03 365.814 171.137 365.392 171.137Z" fill="#BDBDBD"/>
<path d="M381.649 108.917C378.616 104.65 374.978 100.846 370.85 97.623C367.418 94.9453 363.599 92.6576 359.384 91.5633C355.17 90.469 350.516 90.6553 346.671 92.6967C342.825 94.7381 338.85 98.794 338.826 103.144C338.818 104.541 339.174 106.432 340.552 106.19L340.95 106.243C344.273 105.572 347.597 104.902 350.92 104.231C352.335 109.138 353.75 114.045 355.166 118.952C355.464 119.986 355.864 121.142 356.847 121.583C357.773 121.999 358.843 121.607 359.779 121.217C359.933 121.153 361.256 118.185 361.256 118.185C361.29 118.092 361.347 118.01 361.422 117.947C361.498 117.884 361.589 117.842 361.686 117.826C361.784 117.809 361.883 117.819 361.975 117.855C362.068 117.89 362.149 117.949 362.21 118.026L362.996 119.007C363.146 119.195 363.354 119.328 363.587 119.388C363.82 119.447 364.066 119.429 364.287 119.337C369.707 117.077 375.126 114.817 380.546 112.557C381.295 112.245 382.132 111.837 382.349 111.056C382.557 110.307 382.099 109.55 381.649 108.917Z" fill="#212121"/>
<path d="M443.946 297H277.298C277.151 297 277.011 296.942 276.907 296.838C276.803 296.734 276.745 296.594 276.745 296.447C276.745 296.3 276.803 296.16 276.907 296.056C277.011 295.952 277.151 295.894 277.298 295.894H443.946C444.093 295.894 444.234 295.952 444.338 296.056C444.442 296.16 444.5 296.3 444.5 296.447C444.5 296.594 444.442 296.734 444.338 296.838C444.234 296.942 444.093 297 443.946 297Z" fill="#212121"/>
<path d="M353.6 210.812C353.224 210.81 352.857 210.689 352.554 210.466L350.034 208.637C349.825 208.484 349.573 208.402 349.314 208.402C349.055 208.402 348.803 208.484 348.594 208.637L346.074 210.466C345.77 210.686 345.404 210.805 345.028 210.805C344.652 210.805 344.286 210.686 343.982 210.466C343.678 210.245 343.452 209.934 343.336 209.577C343.22 209.22 343.22 208.836 343.336 208.479L344.298 205.519C344.379 205.273 344.379 205.008 344.299 204.762C344.219 204.516 344.063 204.302 343.853 204.151L341.333 202.321C341.029 202.101 340.803 201.79 340.687 201.433C340.571 201.076 340.571 200.691 340.687 200.334C340.803 199.977 341.029 199.666 341.333 199.446C341.637 199.225 342.003 199.106 342.379 199.106H345.494C345.753 199.107 346.005 199.025 346.214 198.873C346.424 198.721 346.58 198.507 346.659 198.26L347.622 195.301C347.738 194.944 347.964 194.633 348.268 194.412C348.572 194.192 348.938 194.073 349.314 194.073C349.69 194.073 350.056 194.192 350.36 194.412C350.664 194.633 350.89 194.944 351.006 195.301L351.969 198.26C352.048 198.507 352.204 198.721 352.413 198.873C352.623 199.025 352.875 199.107 353.134 199.106H356.249C356.625 199.106 356.991 199.225 357.295 199.446C357.599 199.666 357.825 199.977 357.941 200.334C358.057 200.691 358.057 201.076 357.941 201.433C357.825 201.79 357.599 202.101 357.295 202.321L354.775 204.15C354.565 204.302 354.409 204.516 354.329 204.762C354.249 205.008 354.249 205.273 354.33 205.519L355.292 208.479C355.413 208.835 355.415 209.221 355.298 209.579C355.182 209.937 354.953 210.248 354.646 210.466C354.343 210.689 353.977 210.81 353.6 210.812Z" fill="#FF4081"/>
<path d="M363.231 204.894C363.943 204.396 364.537 203.747 364.971 202.994C365.405 202.241 365.668 201.403 365.742 200.537C365.816 199.672 365.7 198.801 365.4 197.985C365.101 197.17 364.627 196.43 364.01 195.817L368.314 143.899L355.5 145.66L355.256 196.103C354.295 197.206 353.772 198.623 353.786 200.085C353.801 201.547 354.352 202.954 355.335 204.037C356.318 205.121 357.665 205.807 359.12 205.965C360.575 206.123 362.038 205.742 363.231 204.894Z" fill="#A0616A"/>
<path d="M369.151 151.376C368.911 151.376 368.672 151.341 368.442 151.273L354.686 147.231C354.355 147.134 354.048 146.97 353.785 146.748C353.521 146.526 353.306 146.252 353.154 145.944C353.002 145.635 352.915 145.298 352.9 144.954C352.885 144.61 352.941 144.266 353.066 143.945L358.156 130.808C358.369 130.253 358.774 129.793 359.297 129.511C359.821 129.23 360.428 129.146 361.009 129.275L370.097 131.248C370.664 131.372 371.171 131.689 371.529 132.146C371.887 132.602 372.074 133.169 372.058 133.749L371.635 148.954C371.617 149.601 371.348 150.216 370.884 150.668C370.42 151.12 369.799 151.373 369.151 151.376H369.151Z" fill="#BDBDBD"/>
<path d="M239.676 216.251H4.37554C3.34804 216.25 2.36295 215.842 1.63639 215.116C0.909837 214.39 0.501153 213.406 0.5 212.38V142.14C0.501153 141.113 0.909837 140.129 1.63639 139.403C2.36295 138.677 3.34804 138.269 4.37554 138.268H239.676C240.704 138.269 241.689 138.677 242.415 139.403C243.142 140.129 243.551 141.113 243.552 142.14V212.38C243.551 213.406 243.142 214.39 242.415 215.116C241.689 215.842 240.704 216.25 239.676 216.251ZM4.37554 139.374C3.64162 139.375 2.938 139.667 2.41904 140.185C1.90008 140.704 1.60815 141.406 1.6073 142.14V212.38C1.60815 213.113 1.90008 213.816 2.41904 214.334C2.938 214.853 3.64162 215.144 4.37554 215.145H239.676C240.41 215.144 241.114 214.853 241.633 214.334C242.152 213.816 242.444 213.113 242.445 212.38V142.14C242.444 141.406 242.152 140.704 241.633 140.185C241.114 139.667 240.41 139.375 239.676 139.374H4.37554Z" fill="#212121"/>
<path d="M107.34 245.827C106.879 245.825 106.43 245.677 106.059 245.403L102.972 243.163C102.716 242.976 102.407 242.875 102.09 242.875C101.772 242.875 101.463 242.976 101.207 243.163L98.1199 245.403C97.7475 245.674 97.2991 245.819 96.8388 245.819C96.3786 245.819 95.9302 245.674 95.5578 245.403C95.1854 245.133 94.9083 244.752 94.766 244.315C94.6237 243.878 94.6237 243.407 94.7658 242.969L95.9452 239.344C96.0438 239.043 96.0441 238.718 95.9461 238.417C95.8481 238.115 95.6568 237.853 95.3999 237.667L92.3125 235.426C91.9401 235.156 91.663 234.775 91.5207 234.338C91.3785 233.9 91.3785 233.429 91.5207 232.992C91.6629 232.555 91.9401 232.174 92.3125 231.903C92.6848 231.633 93.1332 231.488 93.5935 231.488H97.4098C97.7269 231.488 98.0361 231.388 98.2927 231.202C98.5492 231.016 98.74 230.753 98.8375 230.451L100.017 226.826C100.159 226.389 100.436 226.007 100.808 225.737C101.181 225.467 101.629 225.321 102.09 225.321C102.55 225.321 102.998 225.467 103.371 225.737C103.743 226.007 104.02 226.389 104.162 226.826L105.342 230.451C105.439 230.753 105.63 231.016 105.886 231.202C106.143 231.388 106.452 231.488 106.769 231.488H110.586C111.046 231.488 111.494 231.633 111.867 231.903C112.239 232.174 112.516 232.555 112.658 232.992C112.801 233.429 112.801 233.9 112.658 234.338C112.516 234.775 112.239 235.156 111.867 235.426L108.779 237.667C108.522 237.853 108.331 238.115 108.233 238.417C108.135 238.718 108.135 239.043 108.234 239.344L109.413 242.969C109.561 243.406 109.563 243.879 109.421 244.317C109.278 244.756 108.998 245.137 108.621 245.403C108.25 245.677 107.802 245.825 107.34 245.827Z" fill="#FF4081"/>
<path d="M138.626 245.827C138.165 245.825 137.716 245.677 137.345 245.403L134.258 243.163C134.002 242.976 133.693 242.875 133.376 242.875C133.058 242.875 132.749 242.976 132.493 243.163L129.406 245.403C129.033 245.674 128.585 245.819 128.125 245.819C127.665 245.819 127.216 245.674 126.844 245.403C126.471 245.133 126.194 244.752 126.052 244.315C125.91 243.878 125.91 243.407 126.052 242.969L127.231 239.344C127.33 239.043 127.33 238.718 127.232 238.417C127.134 238.115 126.943 237.853 126.686 237.667L123.598 235.426C123.226 235.156 122.949 234.775 122.807 234.338C122.665 233.9 122.665 233.429 122.807 232.992C122.949 232.555 123.226 232.174 123.599 231.903C123.971 231.633 124.419 231.488 124.88 231.488H128.696C129.013 231.488 129.322 231.388 129.579 231.202C129.835 231.016 130.026 230.753 130.123 230.451L131.303 226.826C131.445 226.389 131.722 226.007 132.094 225.737C132.467 225.467 132.915 225.321 133.376 225.321C133.836 225.321 134.284 225.467 134.657 225.737C135.029 226.007 135.306 226.389 135.448 226.826L136.628 230.451C136.725 230.753 136.916 231.016 137.172 231.202C137.429 231.388 137.738 231.488 138.055 231.488H141.872C142.332 231.488 142.78 231.633 143.153 231.903C143.525 232.174 143.802 232.555 143.944 232.992C144.087 233.429 144.087 233.9 143.944 234.338C143.802 234.775 143.525 235.156 143.153 235.426L140.065 237.667C139.808 237.853 139.617 238.115 139.519 238.417C139.421 238.718 139.421 239.043 139.52 239.344L140.699 242.969C140.847 243.406 140.849 243.879 140.707 244.317C140.564 244.756 140.284 245.137 139.907 245.403C139.536 245.677 139.088 245.825 138.626 245.827Z" fill="#FF4081"/>
<path d="M169.912 245.827C169.451 245.825 169.002 245.677 168.631 245.403L165.544 243.163C165.287 242.976 164.978 242.876 164.661 242.876C164.344 242.876 164.035 242.976 163.779 243.163L160.691 245.403C160.319 245.674 159.871 245.819 159.41 245.819C158.95 245.819 158.502 245.674 158.129 245.403C157.757 245.133 157.48 244.752 157.338 244.315C157.195 243.878 157.195 243.407 157.338 242.969L158.517 239.344C158.615 239.043 158.616 238.718 158.518 238.417C158.42 238.115 158.228 237.853 157.972 237.667L154.884 235.426C154.512 235.156 154.235 234.775 154.092 234.338C153.95 233.9 153.95 233.429 154.093 232.992C154.235 232.555 154.512 232.174 154.884 231.903C155.257 231.633 155.705 231.488 156.165 231.488H159.981C160.299 231.488 160.608 231.388 160.864 231.202C161.121 231.016 161.312 230.753 161.409 230.451L162.588 226.826C162.731 226.389 163.008 226.007 163.38 225.737C163.752 225.467 164.201 225.321 164.661 225.321C165.122 225.321 165.57 225.467 165.942 225.737C166.315 226.007 166.592 226.389 166.734 226.826L167.913 230.451C168.011 230.753 168.202 231.016 168.458 231.202C168.715 231.388 169.024 231.488 169.341 231.488H173.157C173.617 231.488 174.066 231.633 174.438 231.903C174.811 232.174 175.088 232.555 175.23 232.992C175.372 233.429 175.372 233.9 175.23 234.338C175.088 234.775 174.811 235.156 174.438 235.426L171.351 237.667C171.094 237.853 170.903 238.115 170.805 238.417C170.707 238.718 170.707 239.043 170.806 239.344L171.985 242.969C172.132 243.406 172.135 243.879 171.992 244.317C171.85 244.756 171.569 245.137 171.193 245.403C170.822 245.677 170.373 245.825 169.912 245.827Z" fill="#FF4081"/>
<path d="M201.198 245.827C200.737 245.825 200.288 245.677 199.917 245.403L196.829 243.163C196.573 242.976 196.264 242.875 195.947 242.875C195.63 242.875 195.321 242.976 195.065 243.163L191.977 245.403C191.605 245.674 191.157 245.819 190.696 245.819C190.236 245.819 189.788 245.674 189.415 245.403C189.043 245.133 188.766 244.752 188.623 244.315C188.481 243.878 188.481 243.407 188.623 242.969L189.803 239.344C189.901 239.043 189.902 238.718 189.804 238.417C189.705 238.115 189.514 237.853 189.257 237.667L186.17 235.426C185.797 235.156 185.52 234.775 185.378 234.338C185.236 233.9 185.236 233.429 185.378 232.992C185.52 232.555 185.798 232.174 186.17 231.903C186.542 231.633 186.991 231.488 187.451 231.488H191.267C191.584 231.488 191.893 231.388 192.15 231.202C192.407 231.016 192.597 230.753 192.695 230.451L193.874 226.826C194.016 226.389 194.293 226.007 194.666 225.737C195.038 225.467 195.487 225.321 195.947 225.321C196.407 225.321 196.856 225.467 197.228 225.737C197.6 226.007 197.878 226.389 198.02 226.826L199.199 230.451C199.296 230.753 199.487 231.016 199.744 231.202C200 231.388 200.31 231.488 200.627 231.488H204.443C204.903 231.488 205.352 231.633 205.724 231.903C206.096 232.174 206.373 232.555 206.516 232.992C206.658 233.429 206.658 233.9 206.516 234.338C206.373 234.775 206.096 235.156 205.724 235.426L202.637 237.667C202.38 237.853 202.188 238.115 202.09 238.417C201.992 238.718 201.993 239.043 202.091 239.344L203.271 242.969C203.418 243.406 203.421 243.879 203.278 244.317C203.135 244.756 202.855 245.137 202.479 245.403C202.108 245.677 201.659 245.825 201.198 245.827Z" fill="#FF4081"/>
<path d="M221.982 246.042C221.476 246.04 220.983 245.877 220.575 245.577C220.162 245.284 219.854 244.865 219.697 244.384C219.54 243.902 219.543 243.383 219.705 242.903L220.885 239.277C220.969 239.019 220.969 238.741 220.885 238.483C220.801 238.224 220.637 238 220.417 237.84L217.33 235.599C216.921 235.303 216.616 234.884 216.46 234.404C216.304 233.923 216.304 233.406 216.46 232.926C216.616 232.445 216.921 232.027 217.33 231.73C217.739 231.433 218.231 231.273 218.737 231.273H222.553C222.825 231.274 223.09 231.188 223.31 231.028C223.53 230.869 223.693 230.643 223.777 230.385L224.956 226.759C225.112 226.279 225.417 225.861 225.826 225.564C226.235 225.267 226.727 225.107 227.233 225.107C227.739 225.107 228.231 225.267 228.64 225.564C229.049 225.861 229.354 226.279 229.51 226.759L230.689 230.385C230.773 230.643 230.936 230.869 231.156 231.028C231.376 231.188 231.641 231.274 231.913 231.273H235.729C236.234 231.273 236.727 231.433 237.136 231.73C237.545 232.027 237.849 232.445 238.006 232.926C238.162 233.406 238.162 233.923 238.006 234.404C237.85 234.884 237.545 235.303 237.136 235.599L234.049 237.84C233.829 237.999 233.665 238.224 233.58 238.483C233.496 238.741 233.497 239.019 233.581 239.277L234.761 242.903C234.917 243.383 234.917 243.901 234.76 244.381C234.604 244.861 234.3 245.28 233.891 245.577C233.482 245.873 232.989 246.033 232.484 246.033C231.978 246.033 231.485 245.873 231.076 245.577L227.989 243.336C227.77 243.176 227.505 243.09 227.233 243.09C226.961 243.09 226.696 243.176 226.477 243.336L223.389 245.577C222.981 245.877 222.489 246.04 221.982 246.042ZM227.233 241.983C227.739 241.983 228.231 242.143 228.64 242.441L231.727 244.682C231.947 244.841 232.212 244.927 232.484 244.927C232.755 244.927 233.02 244.841 233.24 244.682C233.46 244.522 233.623 244.297 233.707 244.039C233.791 243.781 233.791 243.503 233.707 243.245L232.528 239.619C232.371 239.139 232.37 238.621 232.527 238.141C232.683 237.66 232.988 237.242 233.398 236.945L236.485 234.704C236.705 234.545 236.869 234.32 236.953 234.062C237.036 233.804 237.036 233.526 236.953 233.267C236.869 233.009 236.705 232.784 236.485 232.625C236.265 232.465 236.001 232.379 235.729 232.379H231.913C231.407 232.38 230.914 232.221 230.505 231.924C230.095 231.627 229.791 231.208 229.636 230.727L228.457 227.101C228.373 226.843 228.209 226.618 227.989 226.459C227.769 226.299 227.505 226.213 227.233 226.213C226.961 226.213 226.696 226.299 226.476 226.459C226.257 226.618 226.093 226.843 226.009 227.101L224.83 230.727C224.674 231.208 224.37 231.627 223.961 231.924C223.552 232.221 223.059 232.38 222.553 232.379H218.737C218.465 232.379 218.2 232.465 217.981 232.625C217.761 232.784 217.597 233.009 217.513 233.267C217.429 233.526 217.429 233.804 217.513 234.062C217.597 234.32 217.761 234.545 217.98 234.704L221.068 236.945C221.478 237.242 221.783 237.66 221.939 238.141C222.095 238.621 222.095 239.139 221.938 239.619L220.758 243.245C220.674 243.503 220.674 243.781 220.758 244.039C220.842 244.297 221.006 244.522 221.226 244.682C221.445 244.841 221.71 244.927 221.982 244.927C222.254 244.927 222.518 244.841 222.738 244.682L225.826 242.441C226.234 242.143 226.727 241.983 227.233 241.983Z" fill="#212121"/>
<path d="M30.9508 154.86C29.9963 154.86 29.081 155.239 28.4061 155.913C27.7312 156.587 27.3521 157.502 27.3521 158.455C27.3521 159.409 27.7312 160.323 28.4061 160.997C29.081 161.672 29.9963 162.05 30.9508 162.05H213.101C214.056 162.05 214.971 161.672 215.646 160.997C216.321 160.323 216.7 159.409 216.7 158.455C216.7 157.502 216.321 156.587 215.646 155.913C214.971 155.239 214.056 154.86 213.101 154.86H30.9508Z" fill="#BDBDBD"/>
<path d="M30.9508 173.665C29.9963 173.665 29.081 174.044 28.4061 174.718C27.7312 175.392 27.3521 176.307 27.3521 177.26C27.3521 178.213 27.7312 179.128 28.4061 179.802C29.081 180.476 29.9963 180.855 30.9508 180.855H213.101C214.056 180.855 214.971 180.476 215.646 179.802C216.321 179.128 216.7 178.213 216.7 177.26C216.7 176.307 216.321 175.392 215.646 174.718C214.971 174.044 214.056 173.665 213.101 173.665H30.9508Z" fill="#BDBDBD"/>
<path d="M30.9508 192.469C29.9963 192.469 29.081 192.848 28.4061 193.522C27.7312 194.196 27.3521 195.111 27.3521 196.064C27.3521 197.018 27.7312 197.932 28.4061 198.606C29.081 199.28 29.9963 199.659 30.9508 199.659H213.101C214.056 199.659 214.971 199.28 215.646 198.606C216.321 197.932 216.7 197.018 216.7 196.064C216.7 195.111 216.321 194.196 215.646 193.522C214.971 192.848 214.056 192.469 213.101 192.469H30.9508Z" fill="#BDBDBD"/>
<path d="M30.9508 154.86C29.9963 154.86 29.081 155.239 28.4061 155.913C27.7312 156.587 27.3521 157.502 27.3521 158.455C27.3521 159.409 27.7312 160.323 28.4061 160.997C29.081 161.672 29.9963 162.05 30.9508 162.05H213.101C214.056 162.05 214.971 161.672 215.646 160.997C216.321 160.323 216.7 159.409 216.7 158.455C216.7 157.502 216.321 156.587 215.646 155.913C214.971 155.239 214.056 154.86 213.101 154.86H30.9508Z" fill="#BDBDBD"/>
<path d="M30.9508 173.665C29.9963 173.665 29.081 174.044 28.4061 174.718C27.7312 175.392 27.3521 176.307 27.3521 177.26C27.3521 178.213 27.7312 179.128 28.4061 179.802C29.081 180.476 29.9963 180.855 30.9508 180.855H213.101C214.056 180.855 214.971 180.476 215.646 179.802C216.321 179.128 216.7 178.213 216.7 177.26C216.7 176.307 216.321 175.392 215.646 174.718C214.971 174.044 214.056 173.665 213.101 173.665H30.9508Z" fill="#BDBDBD"/>
<path d="M30.9508 192.469C29.9963 192.469 29.081 192.848 28.4061 193.522C27.7312 194.196 27.3521 195.111 27.3521 196.064C27.3521 197.018 27.7312 197.932 28.4061 198.606C29.081 199.28 29.9963 199.659 30.9508 199.659H213.101C214.056 199.659 214.971 199.28 215.646 198.606C216.321 197.932 216.7 197.018 216.7 196.064C216.7 195.111 216.321 194.196 215.646 193.522C214.971 192.848 214.056 192.469 213.101 192.469H30.9508Z" fill="#BDBDBD"/>
<path d="M239.676 77.9832H4.37554C3.34804 77.9821 2.36295 77.5738 1.63639 76.848C0.909837 76.1222 0.501153 75.1382 0.5 74.1117V3.87151C0.501153 2.84507 0.909837 1.86101 1.63639 1.13521C2.36295 0.409411 3.34804 0.00115206 4.37554 0H239.676C240.704 0.0011506 241.689 0.409411 242.415 1.13521C243.142 1.86101 243.551 2.84507 243.552 3.87151V74.1117C243.551 75.1382 243.142 76.1222 242.415 76.848C241.689 77.5738 240.704 77.9821 239.676 77.9832ZM4.37554 1.10615C3.64162 1.10699 2.938 1.39861 2.41904 1.91704C1.90008 2.43546 1.60815 3.13835 1.6073 3.87151V74.1117C1.60815 74.8449 1.90008 75.5478 2.41904 76.0662C2.938 76.5846 3.64162 76.8762 4.37554 76.8771H239.676C240.41 76.8763 241.114 76.5846 241.633 76.0662C242.152 75.5478 242.444 74.8449 242.445 74.1117V3.87151C242.444 3.13835 242.152 2.43545 241.633 1.91703C241.114 1.3986 240.41 1.10698 239.676 1.10615H4.37554Z" fill="#212121"/>
<path d="M107.34 107.559C106.879 107.557 106.43 107.409 106.059 107.135L102.972 104.895C102.716 104.708 102.407 104.607 102.09 104.607C101.772 104.607 101.463 104.708 101.207 104.895L98.1199 107.135C97.7475 107.406 97.2991 107.551 96.8388 107.551C96.3786 107.551 95.9302 107.406 95.5578 107.135C95.1854 106.865 94.9083 106.484 94.766 106.047C94.6237 105.61 94.6237 105.139 94.7658 104.701L95.9452 101.076C96.0438 100.775 96.0441 100.45 95.9461 100.149C95.8481 99.8472 95.6568 99.5847 95.3999 99.3988L92.3125 97.1581C91.9401 96.8879 91.663 96.5068 91.5207 96.0695C91.3785 95.6323 91.3785 95.1613 91.5207 94.724C91.6629 94.2867 91.9401 93.9056 92.3125 93.6354C92.6848 93.3651 93.1332 93.2196 93.5935 93.2196H97.4098C97.7269 93.2202 98.0361 93.1201 98.2927 92.9339C98.5492 92.7477 98.74 92.4849 98.8375 92.1834L100.017 88.5578C100.159 88.1205 100.436 87.7394 100.808 87.4691C101.181 87.1988 101.629 87.0532 102.09 87.0532C102.55 87.0532 102.998 87.1988 103.371 87.4691C103.743 87.7394 104.02 88.1205 104.162 88.5578L105.342 92.1834C105.439 92.4849 105.63 92.7477 105.886 92.9339C106.143 93.1201 106.452 93.2201 106.769 93.2196H110.586C111.046 93.2196 111.494 93.3652 111.867 93.6354C112.239 93.9057 112.516 94.2867 112.658 94.724C112.801 95.1613 112.801 95.6323 112.658 96.0695C112.516 96.5068 112.239 96.8879 111.867 97.1581L108.779 99.3988C108.522 99.5847 108.331 99.8472 108.233 100.149C108.135 100.45 108.135 100.775 108.234 101.076L109.413 104.701C109.561 105.138 109.563 105.611 109.421 106.049C109.278 106.488 108.998 106.869 108.621 107.135C108.25 107.409 107.802 107.557 107.34 107.559Z" fill="#FF4081"/>
<path d="M138.626 107.559C138.165 107.557 137.716 107.409 137.345 107.135L134.258 104.895C134.002 104.708 133.693 104.607 133.376 104.607C133.058 104.607 132.749 104.708 132.493 104.895L129.406 107.135C129.033 107.406 128.585 107.551 128.125 107.551C127.665 107.551 127.216 107.406 126.844 107.135C126.471 106.865 126.194 106.484 126.052 106.047C125.91 105.61 125.91 105.139 126.052 104.701L127.231 101.076C127.33 100.775 127.33 100.45 127.232 100.149C127.134 99.8472 126.943 99.5847 126.686 99.3988L123.598 97.1581C123.226 96.8879 122.949 96.5068 122.807 96.0695C122.665 95.6322 122.665 95.1612 122.807 94.7239C122.949 94.2867 123.226 93.9056 123.599 93.6354C123.971 93.3651 124.419 93.2196 124.88 93.2196H128.696C129.013 93.2202 129.322 93.1201 129.579 92.9339C129.835 92.7477 130.026 92.4849 130.123 92.1834L131.303 88.5578C131.445 88.1205 131.722 87.7394 132.094 87.4691C132.467 87.1988 132.915 87.0532 133.376 87.0532C133.836 87.0532 134.284 87.1988 134.657 87.4691C135.029 87.7394 135.306 88.1205 135.448 88.5578L136.628 92.1834C136.725 92.4849 136.916 92.7477 137.172 92.9339C137.429 93.1201 137.738 93.2202 138.055 93.2196H141.872C142.332 93.2196 142.78 93.3651 143.153 93.6354C143.525 93.9056 143.802 94.2867 143.944 94.7239C144.087 95.1612 144.087 95.6322 143.944 96.0695C143.802 96.5068 143.525 96.8879 143.153 97.1581L140.065 99.3988C139.808 99.5846 139.617 99.8471 139.519 100.149C139.421 100.45 139.421 100.775 139.52 101.076L140.699 104.701C140.847 105.138 140.849 105.611 140.707 106.049C140.564 106.488 140.284 106.869 139.907 107.135C139.536 107.409 139.088 107.557 138.626 107.559Z" fill="#FF4081"/>
<path d="M169.912 107.559C169.451 107.557 169.002 107.409 168.631 107.135L165.544 104.895C165.287 104.708 164.978 104.608 164.661 104.608C164.344 104.608 164.035 104.708 163.779 104.895L160.691 107.135C160.319 107.406 159.871 107.551 159.41 107.551C158.95 107.551 158.502 107.406 158.129 107.135C157.757 106.865 157.48 106.484 157.338 106.047C157.195 105.61 157.195 105.139 157.338 104.701L158.517 101.076C158.615 100.775 158.616 100.45 158.518 100.149C158.42 99.8472 158.228 99.5847 157.972 99.3988L154.884 97.1581C154.512 96.8879 154.235 96.5068 154.092 96.0695C153.95 95.6322 153.95 95.1612 154.093 94.7239C154.235 94.2867 154.512 93.9056 154.884 93.6354C155.257 93.3651 155.705 93.2196 156.165 93.2196H159.981C160.299 93.2202 160.608 93.1201 160.864 92.9339C161.121 92.7477 161.312 92.4849 161.409 92.1834L162.588 88.5578C162.731 88.1205 163.008 87.7394 163.38 87.4691C163.752 87.1988 164.201 87.0532 164.661 87.0532C165.122 87.0532 165.57 87.1988 165.942 87.4691C166.315 87.7394 166.592 88.1205 166.734 88.5578L167.913 92.1834C168.011 92.4849 168.202 92.7477 168.458 92.9339C168.715 93.1201 169.024 93.2201 169.341 93.2196H173.157C173.617 93.2196 174.066 93.3651 174.438 93.6354C174.811 93.9056 175.088 94.2867 175.23 94.7239C175.372 95.1612 175.372 95.6322 175.23 96.0695C175.088 96.5068 174.811 96.8879 174.438 97.1581L171.351 99.3988C171.094 99.5847 170.903 99.8472 170.805 100.149C170.707 100.45 170.707 100.775 170.806 101.076L171.985 104.701C172.132 105.138 172.135 105.611 171.992 106.049C171.85 106.488 171.569 106.868 171.193 107.135C170.822 107.409 170.373 107.557 169.912 107.559Z" fill="#FF4081"/>
<path d="M221.982 107.774C221.476 107.772 220.983 107.609 220.575 107.309C220.162 107.016 219.854 106.597 219.697 106.116C219.54 105.634 219.543 105.115 219.705 104.635L220.885 101.009C220.969 100.751 220.969 100.473 220.885 100.215C220.801 99.9564 220.637 99.7315 220.417 99.5723L217.33 97.3313C216.921 97.0345 216.616 96.6159 216.46 96.1356C216.304 95.6552 216.304 95.1378 216.46 94.6575C216.616 94.1772 216.921 93.7586 217.33 93.4617C217.739 93.1649 218.231 93.005 218.737 93.0051H222.553C222.825 93.0056 223.09 92.9198 223.31 92.7602C223.53 92.6005 223.693 92.3753 223.777 92.1168L224.956 88.4913C225.112 88.011 225.417 87.5924 225.826 87.2956C226.235 86.9987 226.727 86.8389 227.233 86.8389C227.739 86.8389 228.231 86.9987 228.64 87.2956C229.049 87.5924 229.354 88.011 229.51 88.4913L230.689 92.1168C230.773 92.3753 230.936 92.6005 231.156 92.7602C231.376 92.9198 231.641 93.0056 231.913 93.0051H235.729C236.234 93.0051 236.727 93.165 237.136 93.4618C237.545 93.7587 237.849 94.1772 238.006 94.6575C238.162 95.1379 238.162 95.6552 238.006 96.1356C237.85 96.6159 237.545 97.0345 237.136 97.3313L234.049 99.5723C233.829 99.7314 233.665 99.9563 233.58 100.215C233.496 100.473 233.497 100.751 233.581 101.009L234.761 104.635C234.917 105.115 234.917 105.632 234.76 106.113C234.604 106.593 234.3 107.012 233.891 107.309C233.482 107.605 232.989 107.765 232.484 107.765C231.978 107.765 231.485 107.605 231.076 107.309L227.989 105.068C227.77 104.908 227.505 104.822 227.233 104.822C226.961 104.822 226.696 104.908 226.477 105.068L223.389 107.309C222.981 107.609 222.489 107.772 221.982 107.774ZM227.233 103.715C227.739 103.715 228.231 103.875 228.64 104.173L231.727 106.414C231.947 106.573 232.212 106.659 232.484 106.659C232.755 106.659 233.02 106.573 233.24 106.414C233.46 106.254 233.623 106.029 233.707 105.771C233.791 105.513 233.791 105.235 233.707 104.977L232.528 101.351C232.371 100.871 232.37 100.353 232.527 99.8726C232.683 99.3921 232.988 98.9735 233.398 98.6773L236.485 96.4364C236.705 96.2769 236.869 96.0519 236.953 95.7937C237.036 95.5356 237.036 95.2575 236.953 94.9994C236.869 94.7412 236.705 94.5163 236.485 94.3567C236.265 94.1972 236.001 94.1112 235.729 94.1112H231.913C231.407 94.1122 230.914 93.9526 230.505 93.6557C230.095 93.3587 229.791 92.9396 229.636 92.4588L228.457 88.8333C228.373 88.5751 228.209 88.3501 227.989 88.1905C227.769 88.031 227.505 87.945 227.233 87.945C226.961 87.945 226.696 88.031 226.476 88.1905C226.257 88.3501 226.093 88.5751 226.009 88.8333L224.83 92.4588C224.674 92.9396 224.37 93.3587 223.961 93.6557C223.552 93.9527 223.059 94.1122 222.553 94.1112H218.737C218.465 94.1112 218.2 94.1971 217.981 94.3567C217.761 94.5162 217.597 94.7412 217.513 94.9993C217.429 95.2575 217.429 95.5355 217.513 95.7937C217.597 96.0519 217.761 96.2768 217.98 96.4364L221.068 98.6773C221.478 98.9736 221.783 99.3921 221.939 99.8727C222.095 100.353 222.095 100.871 221.938 101.351L220.758 104.977C220.674 105.235 220.674 105.513 220.758 105.771C220.842 106.029 221.006 106.254 221.226 106.414C221.445 106.573 221.71 106.659 221.982 106.659C222.254 106.659 222.518 106.573 222.738 106.414L225.826 104.173C226.234 103.875 226.727 103.715 227.233 103.715Z" fill="#212121"/>
<path d="M190.424 107.685C189.917 107.683 189.425 107.52 189.017 107.22C188.603 106.927 188.296 106.508 188.139 106.027C187.982 105.545 187.985 105.026 188.147 104.546L189.326 100.92C189.411 100.662 189.411 100.384 189.327 100.126C189.243 99.8675 189.079 99.6426 188.859 99.4834L185.772 97.2424C185.363 96.9456 185.058 96.527 184.902 96.0467C184.746 95.5663 184.746 95.0489 184.902 94.5686C185.058 94.0883 185.363 93.6697 185.772 93.3729C186.181 93.076 186.673 92.9162 187.179 92.9162H190.995C191.267 92.9167 191.532 92.8309 191.752 92.6713C191.972 92.5117 192.135 92.2864 192.219 92.028L193.398 88.4025C193.554 87.9222 193.859 87.5036 194.268 87.2067C194.677 86.9099 195.169 86.75 195.675 86.75C196.18 86.75 196.673 86.9099 197.082 87.2067C197.491 87.5036 197.795 87.9222 197.952 88.4025L199.131 92.028C199.214 92.2864 199.378 92.5116 199.598 92.6713C199.818 92.8309 200.083 92.9167 200.355 92.9162H204.171C204.676 92.9162 205.169 93.0761 205.578 93.3729C205.987 93.6698 206.291 94.0884 206.448 94.5687C206.604 95.049 206.604 95.5664 206.448 96.0467C206.291 96.527 205.987 96.9456 205.578 97.2425L202.491 99.4834C202.27 99.6425 202.106 99.8675 202.022 100.126C201.938 100.384 201.939 100.662 202.023 100.92L203.202 104.546C203.359 105.026 203.359 105.544 203.202 106.024C203.046 106.504 202.742 106.923 202.333 107.22C201.924 107.516 201.431 107.676 200.925 107.676C200.42 107.676 199.927 107.516 199.518 107.22L196.431 104.979C196.211 104.819 195.947 104.733 195.675 104.733C195.403 104.733 195.138 104.819 194.918 104.979L191.831 107.22C191.423 107.52 190.93 107.683 190.424 107.685ZM195.675 103.626C196.18 103.626 196.673 103.786 197.082 104.084L200.169 106.325C200.389 106.484 200.654 106.57 200.925 106.57C201.197 106.57 201.462 106.484 201.682 106.325C201.902 106.165 202.065 105.94 202.149 105.682C202.233 105.424 202.233 105.146 202.149 104.888L200.97 101.262C200.813 100.782 200.812 100.264 200.969 99.7837C201.125 99.3032 201.43 98.8846 201.84 98.5884L204.927 96.3475C205.147 96.188 205.31 95.963 205.394 95.7048C205.478 95.4467 205.478 95.1686 205.394 94.9105C205.31 94.6523 205.147 94.4274 204.927 94.2678C204.707 94.1083 204.442 94.0223 204.171 94.0223H200.354C199.849 94.0233 199.356 93.8637 198.947 93.5668C198.537 93.2698 198.233 92.8507 198.078 92.3699L196.898 88.7444C196.814 88.4862 196.651 88.2612 196.431 88.1016C196.211 87.9421 195.946 87.8561 195.675 87.8561C195.403 87.8561 195.138 87.9421 194.918 88.1016C194.698 88.2612 194.535 88.4862 194.451 88.7444L193.272 92.3699C193.116 92.8507 192.812 93.2698 192.403 93.5668C191.994 93.8637 191.501 94.0233 190.995 94.0223H187.179C186.907 94.0223 186.642 94.1082 186.422 94.2678C186.203 94.4273 186.039 94.6523 185.955 94.9104C185.871 95.1686 185.871 95.4466 185.955 95.7048C186.039 95.963 186.203 96.1879 186.422 96.3475L189.51 98.5884C189.92 98.8847 190.225 99.3032 190.381 99.7838C190.537 100.264 190.537 100.782 190.38 101.262L189.2 104.888C189.116 105.146 189.116 105.424 189.2 105.682C189.284 105.94 189.448 106.165 189.668 106.325C189.887 106.484 190.152 106.57 190.424 106.57C190.696 106.57 190.96 106.484 191.18 106.325L194.268 104.084C194.676 103.786 195.169 103.626 195.675 103.626Z" fill="#212121"/>
<path d="M30.9508 16.5923C29.9963 16.5923 29.081 16.971 28.4061 17.6452C27.7312 18.3194 27.3521 19.2338 27.3521 20.1873C27.3521 21.1407 27.7312 22.0551 28.4061 22.7293C29.081 23.4035 29.9963 23.7822 30.9508 23.7822H213.101C214.056 23.7822 214.971 23.4035 215.646 22.7293C216.321 22.0551 216.7 21.1407 216.7 20.1873C216.7 19.2338 216.321 18.3194 215.646 17.6452C214.971 16.971 214.056 16.5923 213.101 16.5923H30.9508Z" fill="#BDBDBD"/>
<path d="M30.9508 35.3965C29.9963 35.3965 29.081 35.7752 28.4061 36.4494C27.7312 37.1236 27.3521 38.038 27.3521 38.9915C27.3521 39.9449 27.7312 40.8593 28.4061 41.5335C29.081 42.2077 29.9963 42.5864 30.9508 42.5864H213.101C214.056 42.5864 214.971 42.2077 215.646 41.5335C216.321 40.8593 216.7 39.9449 216.7 38.9915C216.7 38.038 216.321 37.1236 215.646 36.4494C214.971 35.7752 214.056 35.3965 213.101 35.3965H30.9508Z" fill="#BDBDBD"/>
<path d="M30.9508 54.2012C29.9963 54.2012 29.081 54.5799 28.4061 55.2541C27.7312 55.9283 27.3521 56.8427 27.3521 57.7961C27.3521 58.7496 27.7312 59.664 28.4061 60.3382C29.081 61.0124 29.9963 61.3911 30.9508 61.3911H213.101C214.056 61.3911 214.971 61.0124 215.646 60.3382C216.321 59.664 216.7 58.7496 216.7 57.7961C216.7 56.8427 216.321 55.9283 215.646 55.2541C214.971 54.5799 214.056 54.2012 213.101 54.2012H30.9508Z" fill="#BDBDBD"/>
<path d="M30.9508 16.5923C29.9963 16.5923 29.081 16.971 28.4061 17.6452C27.7312 18.3194 27.3521 19.2338 27.3521 20.1873C27.3521 21.1407 27.7312 22.0551 28.4061 22.7293C29.081 23.4035 29.9963 23.7822 30.9508 23.7822H213.101C214.056 23.7822 214.971 23.4035 215.646 22.7293C216.321 22.0551 216.7 21.1407 216.7 20.1873C216.7 19.2338 216.321 18.3194 215.646 17.6452C214.971 16.971 214.056 16.5923 213.101 16.5923H30.9508Z" fill="#BDBDBD"/>
<path d="M30.9508 35.3965C29.9963 35.3965 29.081 35.7752 28.4061 36.4494C27.7312 37.1236 27.3521 38.038 27.3521 38.9915C27.3521 39.9449 27.7312 40.8593 28.4061 41.5335C29.081 42.2077 29.9963 42.5864 30.9508 42.5864H213.101C214.056 42.5864 214.971 42.2077 215.646 41.5335C216.321 40.8593 216.7 39.9449 216.7 38.9915C216.7 38.038 216.321 37.1236 215.646 36.4494C214.971 35.7752 214.056 35.3965 213.101 35.3965H30.9508Z" fill="#BDBDBD"/>
<path d="M30.9508 54.2012C29.9963 54.2012 29.081 54.5799 28.4061 55.2541C27.7312 55.9283 27.3521 56.8427 27.3521 57.7961C27.3521 58.7496 27.7312 59.664 28.4061 60.3382C29.081 61.0124 29.9963 61.3911 30.9508 61.3911H213.101C214.056 61.3911 214.971 61.0124 215.646 60.3382C216.321 59.664 216.7 58.7496 216.7 57.7961C216.7 56.8427 216.321 55.9283 215.646 55.2541C214.971 54.5799 214.056 54.2012 213.101 54.2012H30.9508Z" fill="#BDBDBD"/>
</g>
<defs>
<clipPath id="clip0_15_18530">
<rect width="444" height="297" fill="white" transform="translate(0.5)"/>
</clipPath>
</defs>
</svg>
