<svg width="123" height="123" viewBox="0 0 123 123" fill="none" xmlns="http://www.w3.org/2000/svg">
<path d="M52.6084 84.4128V86.698H45.4502V84.4128H52.6084ZM46.3975 72.4792V86.698H43.4678V72.4792H46.3975ZM54.0631 81.5222V81.3171C54.0631 80.5424 54.1738 79.8295 54.3951 79.1785C54.6165 78.5209 54.9387 77.9513 55.3619 77.4695C55.7851 76.9877 56.3059 76.6134 56.9244 76.3464C57.5429 76.073 58.2525 75.9363 59.0533 75.9363C59.8541 75.9363 60.567 76.073 61.192 76.3464C61.817 76.6134 62.3411 76.9877 62.7643 77.4695C63.1939 77.9513 63.5195 78.5209 63.7408 79.1785C63.9622 79.8295 64.0729 80.5424 64.0729 81.3171V81.5222C64.0729 82.2904 63.9622 83.0033 63.7408 83.6609C63.5195 84.3119 63.1939 84.8816 62.7643 85.3699C62.3411 85.8516 61.8202 86.226 61.2018 86.4929C60.5833 86.7598 59.8736 86.8933 59.0729 86.8933C58.2721 86.8933 57.5592 86.7598 56.9342 86.4929C56.3157 86.226 55.7916 85.8516 55.3619 85.3699C54.9387 84.8816 54.6165 84.3119 54.3951 83.6609C54.1738 83.0033 54.0631 82.2904 54.0631 81.5222ZM56.8756 81.3171V81.5222C56.8756 81.9649 56.9146 82.3783 56.9928 82.7625C57.0709 83.1466 57.1946 83.4851 57.3639 83.7781C57.5396 84.0645 57.7675 84.2891 58.0475 84.4519C58.3274 84.6147 58.6692 84.696 59.0729 84.696C59.4635 84.696 59.7988 84.6147 60.0787 84.4519C60.3587 84.2891 60.5833 84.0645 60.7525 83.7781C60.9218 83.4851 61.0455 83.1466 61.1236 82.7625C61.2083 82.3783 61.2506 81.9649 61.2506 81.5222V81.3171C61.2506 80.8875 61.2083 80.4838 61.1236 80.1062C61.0455 79.7221 60.9186 79.3835 60.7428 79.0906C60.5735 78.7911 60.3489 78.5567 60.0689 78.3875C59.789 78.2182 59.4505 78.1335 59.0533 78.1335C58.6562 78.1335 58.3176 78.2182 58.0377 78.3875C57.7643 78.5567 57.5396 78.7911 57.3639 79.0906C57.1946 79.3835 57.0709 79.7221 56.9928 80.1062C56.9146 80.4838 56.8756 80.8875 56.8756 81.3171ZM69.2189 83.9636L71.4162 76.1316H73.2033L72.6271 79.2078L70.4299 86.698H68.9357L69.2189 83.9636ZM68.1057 76.1316L69.6779 83.9539L69.8244 86.698H68.0666L65.3908 76.1316H68.1057ZM75.215 83.8269L76.7482 76.1316H79.4729L76.7971 86.698H75.049L75.215 83.8269ZM73.4475 76.1316L75.635 83.905L75.9377 86.698H74.4338L72.2365 79.2175L71.6799 76.1316H73.4475Z" fill="#212121"/>
<path d="M0.198242 61.099C0.198244 44.8945 6.63544 29.3538 18.0937 17.8955C29.552 6.4372 45.0928 1.73849e-06 61.2972 0C77.5017 -1.73848e-06 93.0424 6.43719 104.501 17.8955C115.959 29.3537 122.396 44.8945 122.396 61.099L91.1778 61.099C91.1778 53.1742 88.0296 45.5739 82.4259 39.9702C76.8223 34.3665 69.222 31.2184 61.2972 31.2184C53.3724 31.2184 45.7722 34.3665 40.1685 39.9702C34.5648 45.5739 31.4167 53.1742 31.4167 61.099H0.198242Z" fill="#D9D9D9"/>
<path opacity="0.5" d="M0.198242 61.099C0.198243 48.1961 4.28301 35.6245 11.8671 25.1859C19.4512 14.7473 30.1453 6.97759 42.4166 2.9904L52.0636 32.6809C46.0623 34.6308 40.8324 38.4306 37.1233 43.5356C33.4143 48.6406 31.4167 54.7888 31.4167 61.099H0.198242Z" fill="#EF5350"/>
<path opacity="0.5" d="M42.384 3.00099C54.6531 -0.993084 67.8717 -1.00049 80.1453 2.97982L70.5149 32.6757C64.5125 30.7291 58.0479 30.7328 52.0477 32.6861L42.384 3.00099Z" fill="#FFC107"/>
<path opacity="0.5" d="M80.0601 2.95226C92.3394 6.91459 103.049 14.6626 110.654 25.0858L85.4354 43.4867C81.7161 38.3892 76.4785 34.6 70.4732 32.6622L80.0601 2.95226Z" fill="#00E676"/>
<path opacity="0.5" d="M110.625 25.0451C118.239 35.462 122.359 48.022 122.396 60.9247L91.1776 61.0138C91.1596 54.7036 89.1445 48.5612 85.4209 43.4668L110.625 25.0451Z" fill="#00C853"/>
<path opacity="0.5" d="M0.198242 61.099C0.198243 48.1961 4.28301 35.6245 11.8671 25.1859L37.1233 43.5356C33.4143 48.6406 31.4167 54.7888 31.4167 61.099H0.198242Z" fill="#D32F2F"/>
<path fill-rule="evenodd" clip-rule="evenodd" d="M63.7149 47.2301L39.3206 31.3225L56.8505 54.5776C56.9831 56.2035 57.6981 57.7871 58.9842 58.9884C61.7262 61.5499 66.0255 61.4035 68.5869 58.6614C71.1483 55.9194 71.0019 51.6201 68.2599 49.0587C66.9741 47.8576 65.3458 47.2519 63.7149 47.2301Z" fill="#393939"/>
</svg>
