<svg width="110" height="125" viewBox="0 0 110 125" fill="none" xmlns="http://www.w3.org/2000/svg">
<rect width="110" height="125" rx="5" fill="#FFEBEE"/>
<path fill-rule="evenodd" clip-rule="evenodd" d="M55 27.9994C41.7453 27.9994 31 38.7442 31 52.0005C31 65.2549 41.7453 76 55 76C68.255 76 79 65.2549 79 52.0005C79 38.7442 68.255 27.9994 55 27.9994ZM41.5784 41.8368C41.3331 41.9044 41.082 41.9748 40.8235 42.0508C40.7821 42.0621 40.7523 42.0987 40.7489 42.1437C40.7455 42.186 40.7692 42.2254 40.8083 42.2451C41.5528 42.597 42.4138 42.7491 43.3672 42.6984C43.3999 42.6984 43.4331 42.6956 43.4658 42.6928C44.317 42.628 45.1628 42.3859 45.9188 41.986C46.7227 41.5665 47.4249 40.9696 47.9492 40.26C48.5228 39.4772 48.8472 38.6297 48.8869 37.8103C48.8891 37.7681 48.8643 37.7287 48.8246 37.7118C48.7852 37.6921 48.739 37.7005 48.7086 37.7315C48.1745 38.2749 47.5942 38.8409 46.9693 39.3252C46.3969 39.7757 45.7991 40.1643 45.1414 40.5134C44.5163 40.8428 43.8546 41.1244 43.1191 41.3722C42.6644 41.531 42.1945 41.6633 41.7 41.8025L41.5784 41.8368ZM69.1763 42.0508C68.9181 41.9748 68.6667 41.9044 68.4214 41.8368L68.3024 41.8033C67.8071 41.6638 67.3365 41.5313 66.8807 41.3722C66.1452 41.1244 65.4838 40.8428 64.8584 40.5134C64.2007 40.1643 63.6029 39.7757 63.0308 39.3252C62.4057 38.8409 61.8254 38.2749 61.2915 37.7315C61.2611 37.7005 61.2149 37.6921 61.1752 37.7118C61.1358 37.7287 61.111 37.7681 61.113 37.8103C61.153 38.6297 61.4771 39.4772 62.0506 40.26C62.5749 40.9696 63.2771 41.5665 64.081 41.986C64.8373 42.3859 65.6832 42.628 66.5341 42.6928L66.5343 42.6928C66.5672 42.6956 66.6 42.6984 66.6329 42.6984C67.5863 42.7491 68.4471 42.597 69.1915 42.2451C69.2307 42.2254 69.2546 42.186 69.2512 42.1437C69.2476 42.0987 69.218 42.0621 69.1763 42.0508ZM46.1583 50.062C47.135 50.062 47.9268 48.7302 47.9268 47.083C47.9268 45.4358 47.135 44.1012 46.1583 44.1012C45.1818 44.1012 44.39 45.4358 44.39 47.083C44.39 48.7302 45.1818 50.062 46.1583 50.062ZM63.8416 50.062C64.8184 50.062 65.6102 48.7302 65.6102 47.083C65.6102 45.4358 64.8184 44.1012 63.8416 44.1012C62.8651 44.1012 62.0733 45.4358 62.0733 47.083C62.0733 48.7302 62.8651 50.062 63.8416 50.062ZM45.925 63.2338C45.6741 63.262 45.5302 62.9523 45.5327 62.7186C45.5446 61.6514 45.829 60.5646 46.3783 59.4805C46.9001 58.4866 47.6457 57.5658 48.5388 56.8084C50.309 55.3273 52.6627 54.4742 54.9989 54.4657C57.3745 54.4207 59.7496 55.2766 61.5023 56.7943C63.3235 58.3542 64.4326 60.5646 64.4673 62.7129C64.4712 62.9579 64.3057 63.2733 64.0323 63.2254C63.8791 63.1986 63.7451 63.0485 63.6231 62.9117C63.5654 62.847 63.5104 62.7854 63.4573 62.7411C63.2011 62.5271 62.9358 62.3272 62.6638 62.1329C62.1207 61.75 61.5502 61.4064 60.964 61.0967C58.8026 59.9423 56.3513 59.32 53.8957 59.534C52.3327 59.6692 50.8147 60.1394 49.4204 60.8518C48.5833 61.2798 47.791 61.795 47.0445 62.3638C46.9543 62.4329 46.8457 62.5391 46.7282 62.654C46.4769 62.8997 46.1851 63.185 45.9472 63.231L45.925 63.2338Z" fill="#EF5350"/>
<path d="M49.2906 96.7148V99H42.1324V96.7148H49.2906ZM43.0797 84.7812V99H40.15V84.7812H43.0797ZM50.7453 93.8242V93.6191C50.7453 92.8444 50.856 92.1315 51.0773 91.4805C51.2987 90.8229 51.621 90.2533 52.0441 89.7715C52.4673 89.2897 52.9882 88.9154 53.6066 88.6484C54.2251 88.375 54.9348 88.2383 55.7355 88.2383C56.5363 88.2383 57.2492 88.375 57.8742 88.6484C58.4992 88.9154 59.0233 89.2897 59.4465 89.7715C59.8762 90.2533 60.2017 90.8229 60.423 91.4805C60.6444 92.1315 60.7551 92.8444 60.7551 93.6191V93.8242C60.7551 94.5924 60.6444 95.3053 60.423 95.9629C60.2017 96.6139 59.8762 97.1836 59.4465 97.6719C59.0233 98.1536 58.5025 98.528 57.884 98.7949C57.2655 99.0618 56.5559 99.1953 55.7551 99.1953C54.9543 99.1953 54.2414 99.0618 53.6164 98.7949C52.9979 98.528 52.4738 98.1536 52.0441 97.6719C51.621 97.1836 51.2987 96.6139 51.0773 95.9629C50.856 95.3053 50.7453 94.5924 50.7453 93.8242ZM53.5578 93.6191V93.8242C53.5578 94.2669 53.5969 94.6803 53.675 95.0645C53.7531 95.4486 53.8768 95.7871 54.0461 96.0801C54.2219 96.3665 54.4497 96.5911 54.7297 96.7539C55.0096 96.9167 55.3514 96.998 55.7551 96.998C56.1457 96.998 56.481 96.9167 56.7609 96.7539C57.0409 96.5911 57.2655 96.3665 57.4348 96.0801C57.604 95.7871 57.7277 95.4486 57.8059 95.0645C57.8905 94.6803 57.9328 94.2669 57.9328 93.8242V93.6191C57.9328 93.1895 57.8905 92.7858 57.8059 92.4082C57.7277 92.0241 57.6008 91.6855 57.425 91.3926C57.2557 91.0931 57.0311 90.8587 56.7512 90.6895C56.4712 90.5202 56.1327 90.4355 55.7355 90.4355C55.3384 90.4355 54.9999 90.5202 54.7199 90.6895C54.4465 90.8587 54.2219 91.0931 54.0461 91.3926C53.8768 91.6855 53.7531 92.0241 53.675 92.4082C53.5969 92.7858 53.5578 93.1895 53.5578 93.6191ZM65.9012 96.2656L68.0984 88.4336H69.8855L69.3094 91.5098L67.1121 99H65.618L65.9012 96.2656ZM64.7879 88.4336L66.3602 96.2559L66.5066 99H64.7488L62.073 88.4336H64.7879ZM71.8973 96.1289L73.4305 88.4336H76.1551L73.4793 99H71.7313L71.8973 96.1289ZM70.1297 88.4336L72.3172 96.207L72.6199 99H71.116L68.9188 91.5195L68.3621 88.4336H70.1297Z" fill="#EF5350"/>
</svg>
