<svg width="48" height="48" viewBox="0 0 48 48" fill="none" xmlns="http://www.w3.org/2000/svg">
<path fill-rule="evenodd" clip-rule="evenodd" d="M24 -0.000610352C10.7453 -0.000610352 0 10.7442 0 24.0005C0 37.2549 10.7453 48 24 48C37.255 48 48 37.2549 48 24.0005C48 10.7442 37.255 -0.000610352 24 -0.000610352ZM10.5784 13.8368C10.3331 13.9044 10.082 13.9748 9.8235 14.0508C9.78211 14.0621 9.75226 14.0987 9.74888 14.1437C9.74551 14.186 9.76916 14.2254 9.8083 14.2451C10.5528 14.597 11.4138 14.7491 12.3672 14.6984C12.3999 14.6984 12.4331 14.6956 12.4658 14.6928C13.317 14.628 14.1628 14.3859 14.9188 13.986C15.7227 13.5665 16.4249 12.9696 16.9492 12.26C17.5228 11.4772 17.8472 10.6297 17.8869 9.81032C17.8891 9.76809 17.8643 9.72867 17.8246 9.71177C17.7852 9.69206 17.739 9.70052 17.7086 9.73149C17.1745 10.2749 16.5942 10.8409 15.9693 11.3252C15.3969 11.7757 14.7991 12.1643 14.1414 12.5134C13.5163 12.8428 12.8546 13.1244 12.1191 13.3722C11.6644 13.531 11.1945 13.6633 10.7 13.8025L10.5784 13.8368ZM38.1763 14.0508C37.9181 13.9748 37.6667 13.9044 37.4214 13.8368L37.3024 13.8033C36.8071 13.6638 36.3365 13.5313 35.8807 13.3722C35.1452 13.1244 34.4838 12.8428 33.8584 12.5134C33.2007 12.1643 32.6029 11.7757 32.0308 11.3252C31.4057 10.8409 30.8254 10.2749 30.2915 9.73149C30.2611 9.70052 30.2149 9.69206 30.1752 9.71177C30.1358 9.72867 30.111 9.76809 30.113 9.81032C30.153 10.6297 30.4771 11.4772 31.0506 12.26C31.5749 12.9696 32.2771 13.5665 33.081 13.986C33.8373 14.3859 34.6832 14.628 35.5341 14.6928L35.5343 14.6928C35.5672 14.6956 35.6 14.6984 35.6329 14.6984C36.5863 14.7491 37.4471 14.597 38.1915 14.2451C38.2307 14.2254 38.2546 14.186 38.2512 14.1437C38.2476 14.0987 38.218 14.0621 38.1763 14.0508ZM15.1583 22.062C16.135 22.062 16.9268 20.7302 16.9268 19.083C16.9268 17.4358 16.135 16.1012 15.1583 16.1012C14.1818 16.1012 13.39 17.4358 13.39 19.083C13.39 20.7302 14.1818 22.062 15.1583 22.062ZM32.8416 22.062C33.8184 22.062 34.6102 20.7302 34.6102 19.083C34.6102 17.4358 33.8184 16.1012 32.8416 16.1012C31.8651 16.1012 31.0733 17.4358 31.0733 19.083C31.0733 20.7302 31.8651 22.062 32.8416 22.062ZM14.925 35.2338C14.6741 35.262 14.5302 34.9523 14.5327 34.7186C14.5446 33.6514 14.829 32.5646 15.3783 31.4805C15.9001 30.4866 16.6457 29.5658 17.5388 28.8084C19.309 27.3273 21.6627 26.4742 23.9989 26.4657C26.3745 26.4207 28.7496 27.2766 30.5023 28.7943C32.3235 30.3542 33.4326 32.5646 33.4673 34.7129C33.4712 34.9579 33.3057 35.2733 33.0323 35.2254C32.8791 35.1986 32.7451 35.0485 32.6231 34.9117C32.5654 34.847 32.5104 34.7854 32.4573 34.7411C32.2011 34.5271 31.9358 34.3272 31.6638 34.1329C31.1207 33.75 30.5502 33.4064 29.964 33.0967C27.8026 31.9423 25.3513 31.32 22.8957 31.534C21.3327 31.6692 19.8147 32.1394 18.4204 32.8518C17.5833 33.2798 16.791 33.795 16.0445 34.3638C15.9543 34.4329 15.8457 34.5391 15.7282 34.654C15.4769 34.8997 15.1851 35.185 14.9472 35.231L14.925 35.2338Z" fill="#EF5350"/>
</svg>
