<svg width="90" height="90" viewBox="0 0 90 90" fill="none" xmlns="http://www.w3.org/2000/svg">
<path d="M58.425 63L45 54.375L31.575 63L35.625 47.55L23.2875 37.5L39.225 36.525L45 21.75L50.775 36.525L66.7125 37.5L54.375 47.55M75 45C75 43.0109 75.7902 41.1032 77.1967 39.6967C78.6032 38.2902 80.5109 37.5 82.5 37.5V22.5C82.5 20.5109 81.7098 18.6032 80.3033 17.1967C78.8968 15.7902 76.9891 15 75 15H15C13.0109 15 11.1032 15.7902 9.6967 17.1967C8.29018 18.6032 7.5 20.5109 7.5 22.5V37.5C9.48912 37.5 11.3968 38.2902 12.8033 39.6967C14.2098 41.1032 15 43.0109 15 45C15 46.9891 14.2098 48.8968 12.8033 50.3033C11.3968 51.7098 9.48912 52.5 7.5 52.5V67.5C7.5 69.4891 8.29018 71.3968 9.6967 72.8033C11.1032 74.2098 13.0109 75 15 75H75C76.9891 75 78.8968 74.2098 80.3033 72.8033C81.7098 71.3968 82.5 69.4891 82.5 67.5V52.5C80.5109 52.5 78.6032 51.7098 77.1967 50.3033C75.7902 48.8968 75 46.9891 75 45Z" fill="#3F51B5"/>
</svg>
