<svg width="27" height="32" viewBox="0 0 27 32" fill="none" xmlns="http://www.w3.org/2000/svg">
<path d="M9.8808 0.79861C9.91937 0.839094 10.2472 1.20924 10.6201 1.62566C13.9179 5.32137 17.1644 9.71689 19.4144 13.5514C19.5301 13.7538 19.6458 13.9158 19.6715 13.9158C19.6972 13.9158 19.8836 13.5977 20.0894 13.2044C21.5679 10.3704 24.7758 5.2751 26.6915 2.71297L27.0001 2.29656V1.50999V0.729206H18.4115C11.5458 0.729206 9.8358 0.746557 9.8808 0.79861Z" fill="#2E87C8"/>
<path d="M0 16.397V31.7292H13.5H27V31.2376V30.7403L26.2542 29.5488C24.8014 27.2354 23.5543 25.4078 21.825 23.0539C20.6293 21.4345 19.1121 19.4681 18.9 19.2714C18.7907 19.1731 18.7585 19.2078 17.955 20.3703C17.0485 21.6774 15.9428 23.3604 15.1457 24.6328C14.8693 25.0723 14.6314 25.4251 14.6186 25.4078C14.535 25.3384 16.2514 21.1048 17.1964 19.0343L17.7428 17.8371L17.2157 17.224C13.1336 12.4584 8.87142 8.25947 4.01785 4.22253C2.71285 3.141 0.289285 1.22664 0.0835713 1.11096C0.0192857 1.07626 0 4.15313 0 16.397Z" fill="#2E87C8"/>
<path d="M26.5051 9.85C25.3479 11.0356 24.0558 12.47 22.8794 13.8869C22.2558 14.633 21.1051 16.05 21.0022 16.2062C20.9765 16.2466 21.1758 16.6804 21.4458 17.1778C23.3037 20.6479 25.2451 25.2112 26.6722 29.4737L26.9937 30.428L27.0001 19.9134C27.0001 14.1356 26.9872 9.40466 26.9744 9.40466C26.9551 9.40466 26.7429 9.60709 26.5051 9.85Z" fill="#2E87C8"/>
</svg>
