<svg width="28" height="31" viewBox="0 0 28 31" fill="none" xmlns="http://www.w3.org/2000/svg">
<path d="M10.3807 0.0693617C10.4193 0.109846 10.7472 0.479996 11.12 0.896414C14.4179 4.59212 17.6643 8.98764 19.9143 12.8222C20.03 13.0246 20.1457 13.1865 20.1714 13.1865C20.1972 13.1865 20.3836 12.8684 20.5893 12.4751C22.0679 9.64119 25.2757 4.54585 27.1914 1.98373L27.5 1.56731V0.780742V-4.19617e-05H18.9114C12.0457 -4.19617e-05 10.3357 0.0173092 10.3807 0.0693617Z" fill="#2E87C8"/>
<path d="M0.5 15.6677V31H14H27.5V30.5084V30.011L26.7542 28.8196C25.3014 26.5062 24.0543 24.6785 22.325 22.3246C21.1293 20.7052 19.6121 18.7388 19.4 18.5422C19.2907 18.4438 19.2585 18.4785 18.455 19.641C17.5485 20.9481 16.4428 22.6312 15.6457 23.9035C15.3693 24.3431 15.1314 24.6959 15.1186 24.6785C15.035 24.6091 16.7514 20.3756 17.6964 18.305L18.2428 17.1078L17.7157 16.4948C13.6336 11.7291 9.37142 7.53022 4.51785 3.49328C3.21285 2.41175 0.789285 0.497389 0.583571 0.381716C0.519286 0.347015 0.5 3.42388 0.5 15.6677Z" fill="#2E87C8"/>
<path d="M27.0051 9.12075C25.8479 10.3064 24.5558 11.7407 23.3794 13.1577C22.7558 13.9038 21.6051 15.3207 21.5022 15.4769C21.4765 15.5174 21.6758 15.9512 21.9458 16.4485C23.8037 19.9187 25.7451 24.4819 27.1722 28.7444L27.4937 29.6987L27.5001 19.1842C27.5001 13.4064 27.4872 8.67541 27.4744 8.67541C27.4551 8.67541 27.2429 8.87784 27.0051 9.12075Z" fill="#2E87C8"/>
</svg>
