<svg xmlns="http://www.w3.org/2000/svg" width="200" height="134" viewBox="0 0 200 134" fill="none">
  <path d="M58.635 32.6025L28.7148 52.6172L58.1861 96.674L88.1063 76.6593L58.635 32.6025Z" fill="#EEEEEE"/>
  <path d="M72.645 74.5737L72.3063 76.675L57.4316 74.531L57.7703 72.4297L72.645 74.5737Z" fill="#C0C0C0"/>
  <path d="M65.1532 67.0781L67.2865 67.3848L64.9212 82.0301L62.7852 81.7208L65.1532 67.0781Z" fill="#C0C0C0"/>
  <path d="M51.4655 48.4652C51.4869 48.4946 48.4895 50.5399 44.7695 53.0252C41.0495 55.5106 38.0175 57.5052 37.9962 57.4732C37.9749 57.4412 40.9722 55.3986 44.6922 52.9106C48.4122 50.4226 51.4309 48.4332 51.4655 48.4652Z" fill="#C0C0C0"/>
  <path d="M62.4575 45.7034C62.4788 45.7354 57.4922 49.106 51.3215 53.234C45.1508 57.362 40.1215 60.682 40.1055 60.6527C40.0895 60.6234 45.0655 57.2474 51.2442 53.1194C57.4228 48.9914 62.4362 45.6714 62.4575 45.7034Z" fill="#C0C0C0"/>
  <path d="M64.6626 49.0002C64.6839 49.0322 59.6972 52.4056 53.5266 56.5336C47.3559 60.6616 42.3266 63.9816 42.3106 63.9496C42.2946 63.9176 47.2759 60.5469 53.4493 56.4162C59.6226 52.2856 64.6412 48.9682 64.6626 49.0002Z" fill="#C0C0C0"/>
  <path d="M66.8692 52.2971C66.8905 52.3291 61.9039 55.7024 55.7332 59.8278C49.5625 63.9531 44.5332 67.2784 44.5332 67.2464C44.5332 67.2144 49.4959 63.8411 55.6692 59.7131C61.8425 55.5851 66.8479 52.2651 66.8692 52.2971Z" fill="#C0C0C0"/>
  <path d="M69.0661 55.5979C69.0875 55.6299 64.1008 59.0006 57.9302 63.1286C51.7595 67.2565 46.7302 70.5766 46.7168 70.5446C46.7035 70.5126 51.6875 67.1419 57.8662 63.0139C64.0448 58.8859 69.0661 55.5659 69.0661 55.5979Z" fill="#C0C0C0"/>
  <path d="M158.685 62.1244L133.557 78.9336L158.307 115.933L183.435 99.124L158.685 62.1244Z" fill="#EEEEEE"/>
  <path d="M170.452 97.382L170.167 99.1474L157.674 97.3474L157.962 95.582L170.452 97.382Z" fill="#C0C0C0"/>
  <path d="M164.161 91.0859L165.953 91.3446L163.967 103.643L162.172 103.385L164.161 91.0859Z" fill="#C0C0C0"/>
  <path d="M152.655 75.4657C152.676 75.4977 150.161 77.2177 147.036 79.3057C143.911 81.3937 141.361 83.0631 141.34 83.0391C141.319 83.0151 143.836 81.2897 146.959 79.1991C150.081 77.1084 152.633 75.4204 152.655 75.4657Z" fill="#C0C0C0"/>
  <path d="M161.896 73.1331C161.917 73.1651 157.733 76.0024 152.563 79.4664C147.392 82.9304 143.16 85.7197 143.139 85.6877C143.117 85.6557 147.301 82.8184 152.472 79.3518C157.643 75.8851 161.867 73.1011 161.896 73.1331Z" fill="#C0C0C0"/>
  <path d="M163.75 75.9026C163.771 75.9346 159.587 78.7719 154.416 82.2386C149.246 85.7052 145.014 88.4892 144.992 88.4572C144.971 88.4252 149.142 85.6012 154.326 82.1346C159.51 78.6679 163.734 75.8732 163.75 75.9026Z" fill="#C0C0C0"/>
  <path d="M165.599 78.6682C165.621 78.7002 161.434 81.5375 156.266 85.0042C151.098 88.4708 146.863 91.2548 146.842 91.2228C146.821 91.1908 151.005 88.3562 156.175 84.8868C161.346 81.4175 165.581 78.6415 165.599 78.6682Z" fill="#C0C0C0"/>
  <path d="M167.466 81.4417C167.488 81.4737 163.304 84.3083 158.133 87.775C152.962 91.2417 148.73 94.0257 148.709 93.9963C148.688 93.967 152.872 91.127 158.042 87.6603C163.213 84.1937 167.432 81.4097 167.466 81.4417Z" fill="#C0C0C0"/>
  <path d="M118.93 34.2231L91.5117 19.5586L69.9187 59.9308L97.3367 74.5953L118.93 34.2231Z" fill="#EEEEEE"/>
  <path d="M92.6449 61.9658L90.9062 62.5605L86.4902 50.3551L88.2316 49.7578L92.6449 61.9658Z" fill="#C0C0C0"/>
  <path d="M95.3121 53.207L95.9468 54.959L83.8241 59.111L83.1895 57.359L95.3121 53.207Z" fill="#C0C0C0"/>
  <path d="M103.924 35.1985C103.903 35.2385 101.124 33.7931 97.7135 31.9718C94.3029 30.1505 91.5589 28.6385 91.5802 28.5985C91.6015 28.5585 94.3829 30.0038 97.7935 31.8251C101.204 33.6465 103.946 35.1558 103.924 35.1985Z" fill="#C0C0C0"/>
  <path d="M110.505 42.459C110.484 42.499 105.881 40.0777 100.225 37.0537C94.5695 34.0297 90.0041 31.5444 90.0255 31.5044C90.0468 31.4644 94.6468 33.8831 100.303 36.9097C105.959 39.9364 110.527 42.419 110.505 42.459Z" fill="#C0C0C0"/>
  <path d="M108.89 45.4825C108.869 45.5225 104.266 43.1038 98.6102 40.0772C92.9542 37.0505 88.3889 34.5678 88.4102 34.5278C88.4316 34.4878 93.0316 36.9092 98.6876 39.9332C104.344 42.9572 108.912 45.4425 108.89 45.4825Z" fill="#C0C0C0"/>
  <path d="M107.275 48.5035C107.254 48.5435 102.651 46.1248 96.995 43.1008C91.339 40.0768 86.7737 37.5995 86.795 37.5515C86.8163 37.5035 91.4163 39.9301 97.0723 42.9541C102.728 45.9781 107.296 48.4635 107.275 48.5035Z" fill="#C0C0C0"/>
  <path d="M105.658 51.5267C105.636 51.5667 101.034 49.148 95.3778 46.124C89.7218 43.1 85.1538 40.6147 85.1778 40.5747C85.2018 40.5347 89.7992 42.9534 95.4552 45.9774C101.111 49.0014 105.679 51.4867 105.658 51.5267Z" fill="#C0C0C0"/>
  <path d="M176.979 117.288C176.979 117.325 142.512 117.357 100.003 117.357C57.4935 117.357 23.0215 117.333 23.0215 117.288C23.0215 117.243 57.4828 117.219 100.003 117.219C142.523 117.219 176.979 117.248 176.979 117.288Z" fill="#263238"/>
  <path d="M79.7331 62.5401L70.2931 111.02L69.0664 117.367L132 117.063C134.826 117.049 137.333 114.54 138.237 110.812L149.4 65.0441C150.09 62.2148 148.576 59.2708 146.432 59.2734L82.7197 59.3401C81.3331 59.3374 80.0904 60.6494 79.7331 62.5401Z" fill="#0079C0"/>
  <g opacity="0.5">
    <path d="M79.7331 62.5401L70.2931 111.02L69.0664 117.367L132 117.063C134.826 117.049 137.333 114.54 138.237 110.812L149.4 65.0441C150.09 62.2148 148.576 59.2708 146.432 59.2734L82.7197 59.3401C81.3331 59.3374 80.0904 60.6494 79.7331 62.5401Z" fill="black"/>
  </g>
  <path d="M125.971 107.732L119.305 54.0222C119.038 51.8222 117.281 50.1795 115.209 50.1875L100.595 50.2329C100.052 50.239 99.5161 50.3556 99.0196 50.5757C98.5231 50.7958 98.0766 51.1146 97.7073 51.5129L90.7739 58.8915L50.134 59.1102C47.6513 59.1235 45.742 61.4755 46.07 64.1155L52.2593 113.756C52.526 115.953 54.2833 117.593 56.35 117.59L127.19 117.449C135.078 117.612 135.833 115.284 135.833 115.284C126.777 117.286 125.971 107.745 125.971 107.732Z" fill="#0079C0"/>
  <g opacity="0.5">
    <path d="M95.4241 96.9883L93.0348 99.5536L74.6348 82.9989L77.0241 80.4336L95.4241 96.9883Z" fill="white"/>
    <path d="M92.0354 79.8672L94.6754 82.2432L78.0274 100.123L75.3848 97.7472L92.0354 79.8672Z" fill="white"/>
  </g>
  <path d="M136.086 27.6754C136 27.6391 135.926 27.5789 135.873 27.5019C135.819 27.4249 135.789 27.3343 135.785 27.2408L135.678 24.7661C135.675 24.6892 135.689 24.6125 135.72 24.542C135.751 24.4716 135.798 24.4093 135.857 24.3601C135.916 24.311 135.986 24.2763 136.061 24.2588C136.136 24.2413 136.214 24.2415 136.289 24.2594C136.496 24.304 136.709 24.3059 136.916 24.2651C137.124 24.2243 137.32 24.1416 137.494 24.0221C137.655 23.9206 137.793 23.7873 137.9 23.6304C138.006 23.4736 138.08 23.2965 138.116 23.1101C138.14 22.9214 138.126 22.7297 138.075 22.5465C138.023 22.3632 137.936 22.1922 137.817 22.0434C137.692 21.8742 137.535 21.7312 137.355 21.6228C137.174 21.5143 136.975 21.4425 136.766 21.4114C136.347 21.3881 135.932 21.507 135.588 21.749C135.244 21.991 134.993 22.3418 134.873 22.7448C134.833 22.8668 134.748 22.9689 134.635 23.0296C134.522 23.0902 134.389 23.1049 134.266 23.0706C134.142 23.0362 134.036 22.9554 133.97 22.845C133.905 22.7347 133.884 22.6032 133.913 22.4781C134.095 21.8443 134.489 21.2924 135.029 20.915C135.57 20.5377 136.224 20.358 136.881 20.4061C137.223 20.4517 137.553 20.5656 137.85 20.741C138.147 20.9165 138.406 21.1499 138.612 21.4274C138.812 21.6846 138.958 21.9793 139.041 22.294C139.125 22.6087 139.145 22.9369 139.1 23.2594C139.039 23.5814 138.913 23.8876 138.73 24.1591C138.546 24.4306 138.309 24.6617 138.033 24.8381C137.633 25.1074 137.166 25.2598 136.684 25.2781L136.766 27.1874C136.77 27.2713 136.751 27.3546 136.714 27.4296C136.676 27.5047 136.62 27.5689 136.551 27.6165C136.482 27.6641 136.402 27.6935 136.318 27.702C136.235 27.7104 136.15 27.6976 136.073 27.6648L136.086 27.6754Z" fill="#0079C0"/>
  <path d="M136.817 28.6884C136.823 28.7689 136.804 28.8493 136.764 28.9194C136.724 28.9894 136.664 29.046 136.592 29.082C136.52 29.118 136.438 29.1317 136.358 29.1215C136.278 29.1112 136.203 29.0774 136.142 29.0244C136.081 28.9714 136.037 28.9015 136.016 28.8236C135.995 28.7457 135.998 28.6632 136.023 28.5867C136.049 28.5102 136.097 28.443 136.161 28.3937C136.225 28.3444 136.302 28.3152 136.382 28.3097C136.436 28.3057 136.489 28.3124 136.54 28.3293C136.591 28.3462 136.638 28.3731 136.679 28.4083C136.719 28.4435 136.752 28.4864 136.776 28.5345C136.8 28.5826 136.814 28.6349 136.817 28.6884Z" fill="#0079C0"/>
  <path d="M127.518 24.1857C127.529 24.1329 127.537 24.0795 127.542 24.0257C127.542 23.9083 127.571 23.759 127.592 23.5484C127.619 23.2897 127.662 23.0331 127.723 22.7803C127.758 22.631 127.776 22.4657 127.83 22.2977C127.883 22.1297 127.936 21.9484 127.995 21.7644C128.304 20.8527 128.754 19.9951 129.328 19.223C130.082 18.2232 131.036 17.3928 132.131 16.7857C132.754 16.4344 133.418 16.1604 134.107 15.9697C134.851 15.7725 135.617 15.6721 136.387 15.671C136.793 15.6645 137.198 15.6859 137.6 15.735C137.806 15.7564 138.008 15.8097 138.214 15.8444C138.421 15.8799 138.626 15.9298 138.827 15.9937C139.668 16.2286 140.467 16.591 141.198 17.0684C142.822 18.122 144.06 19.6758 144.723 21.495C145.08 22.4695 145.261 23.4998 145.256 24.5377C145.267 25.6069 145.078 26.6687 144.699 27.6683L144.579 27.9723L144.563 28.0123L144.579 28.0524C145.248 29.591 145.912 31.103 146.539 32.567L146.651 32.439L142.651 30.9057L142.603 30.887L142.563 30.9243C141.505 31.9496 140.21 32.6972 138.792 33.1003C137.582 33.4337 136.314 33.5065 135.073 33.3139C133.832 33.1213 132.645 32.6677 131.592 31.983C130.73 31.4175 129.97 30.7096 129.344 29.8897C128.438 28.6928 127.851 27.2852 127.638 25.799C127.606 25.5323 127.579 25.3083 127.555 25.1057C127.531 24.903 127.555 24.7377 127.542 24.5964C127.528 24.455 127.542 24.3617 127.542 24.2843C127.555 24.2823 127.567 24.2754 127.576 24.2648C127.584 24.2543 127.588 24.241 127.587 24.2276C127.586 24.2142 127.58 24.2017 127.57 24.1925C127.56 24.1834 127.547 24.1783 127.534 24.1783C127.52 24.1783 127.507 24.1834 127.498 24.1925C127.488 24.2017 127.482 24.2142 127.481 24.2276C127.48 24.241 127.484 24.2543 127.492 24.2648C127.5 24.2754 127.513 24.2823 127.526 24.2843C127.526 24.3617 127.526 24.4657 127.526 24.5964C127.526 24.727 127.526 24.9084 127.526 25.111C127.526 25.3137 127.571 25.5457 127.598 25.8097C127.686 26.4511 127.838 27.0819 128.054 27.6923C128.359 28.4985 128.77 29.2607 129.275 29.959C129.903 30.7936 130.669 31.515 131.539 32.0923C132.605 32.7941 133.808 33.2612 135.068 33.4626C136.328 33.6639 137.617 33.595 138.848 33.2603C140.283 32.853 141.594 32.0983 142.667 31.063L142.579 31.0817L146.579 32.623L146.779 32.7003L146.691 32.495C146.056 31.031 145.4 29.5217 144.734 27.9803V28.0577L144.856 27.7457C145.246 26.7242 145.439 25.6387 145.427 24.5457C145.436 23.4858 145.255 22.4329 144.894 21.4363C144.216 19.5809 142.951 17.9976 141.291 16.927C140.542 16.4385 139.722 16.0697 138.859 15.8337C138.655 15.7691 138.447 15.7201 138.235 15.687C138.027 15.6497 137.822 15.5964 137.614 15.5777C137.206 15.5271 136.795 15.5039 136.384 15.5084C135.602 15.5117 134.824 15.6175 134.07 15.823C133.371 16.0214 132.699 16.3025 132.067 16.6604C130.962 17.2824 130.001 18.1322 129.248 19.1537C128.676 19.9386 128.232 20.81 127.934 21.735C127.878 21.927 127.824 22.111 127.776 22.2684C127.734 22.4291 127.7 22.592 127.675 22.7564C127.618 23.0109 127.581 23.2694 127.563 23.5297C127.547 23.735 127.536 23.8923 127.528 24.0097C127.517 24.0676 127.514 24.1268 127.518 24.1857Z" fill="#050505"/>
</svg>