<svg width="25" height="24" viewBox="0 0 25 24" fill="none" xmlns="http://www.w3.org/2000/svg">
<path d="M17.5 10.0001C17.6 10.0001 17.69 10.0101 17.78 10.0101L4.89 4.58009C4.23 4.31009 3.5 4.79009 3.5 5.51009V9.22009C3.5 9.68009 3.81 10.0801 4.26 10.1901L11.5 12.0001L4.26 13.8101C3.81 13.9201 3.5 14.3201 3.5 14.7801V18.4901C3.5 19.2101 4.23 19.6901 4.89 19.4101L10.5 17.0501V17.0001C10.5 13.1401 13.64 10.0001 17.5 10.0001Z" fill="#FF4081"/>
<path d="M17.5 12C14.74 12 12.5 14.24 12.5 17C12.5 19.76 14.74 22 17.5 22C20.26 22 22.5 19.76 22.5 17C22.5 14.24 20.26 12 17.5 12ZM18.79 19L17.14 17.35C17.0467 17.2571 16.9929 17.1317 16.99 17V14.5C16.99 14.22 17.21 14 17.49 14C17.77 14 17.99 14.22 17.99 14.5V16.79L19.49 18.29C19.69 18.49 19.69 18.8 19.49 19C19.3 19.2 18.99 19.2 18.79 19Z" fill="#FF4081"/>
</svg>
