<svg width="48" height="48" viewBox="0 0 48 48" fill="none" xmlns="http://www.w3.org/2000/svg">
<path fill-rule="evenodd" clip-rule="evenodd" d="M23.9999 0C10.7451 0 0 10.7446 0 24.0008C0 37.2551 10.7451 48 23.9999 48C37.2547 48 47.9996 37.2551 47.9996 24.0008C47.9996 10.7446 37.2547 0 23.9999 0ZM15.1581 21.157C16.1346 21.157 16.9263 19.8252 16.9263 18.178C16.9263 16.5308 16.1346 15.1962 15.1581 15.1962C14.1813 15.1962 13.3896 16.5308 13.3896 18.178C13.3896 19.8252 14.1813 21.157 15.1581 21.157ZM32.8417 21.157C33.8182 21.157 34.6099 19.8252 34.6099 18.178C34.6099 16.5308 33.8182 15.1962 32.8417 15.1962C31.8649 15.1962 31.0732 16.5308 31.0732 18.178C31.0732 19.8252 31.8649 21.157 32.8417 21.157ZM7.8731 26.2703C8.78707 34.3682 15.6568 40.664 23.9999 40.664C32.343 40.664 39.2127 34.3682 40.1267 26.2703H7.8731Z" fill="#018106"/>
</svg>
