<svg width="110" height="125" viewBox="0 0 110 125" fill="none" xmlns="http://www.w3.org/2000/svg">
<rect width="110" height="125" rx="5" fill="#EF5350" fill-opacity="0.2"/>
<path fill-rule="evenodd" clip-rule="evenodd" d="M55.0013 28C41.7451 28 31.0005 38.7446 31.0005 52.0008C31.0005 65.2551 41.7451 76 55.0013 76C68.2547 76 78.9993 65.2551 78.9993 52.0008C78.9993 38.7446 68.2547 28 55.0013 28ZM47.6298 36.8723C47.8747 36.8047 48.1253 36.7343 48.3844 36.6583C48.4266 36.647 48.4548 36.6104 48.4576 36.5681C48.4632 36.5231 48.4379 36.4837 48.3985 36.464C47.6551 36.112 46.7935 35.96 45.8418 36.0106C45.8253 36.012 45.8088 36.0127 45.7926 36.0134L45.7925 36.0134C45.7756 36.0141 45.7591 36.0148 45.7432 36.0163C44.8901 36.081 44.0454 36.3232 43.288 36.723C42.4855 37.1425 41.7816 37.7395 41.2579 38.449C40.6863 39.2318 40.3597 40.0793 40.3203 40.8987C40.3203 40.9409 40.3428 40.9803 40.3822 41C40.4216 41.0169 40.4695 41.0085 40.5005 40.9775C41.0326 40.4369 41.6127 39.8681 42.2377 39.3838C42.8121 38.9333 43.4091 38.5448 44.0651 38.1956C44.693 37.8662 45.3519 37.5846 46.0896 37.3368C46.5475 37.1763 47.0225 37.0429 47.524 36.902L47.524 36.902L47.6298 36.8723ZM61.6152 36.6583C61.8743 36.7343 62.1248 36.8047 62.3698 36.8723L62.4781 36.9027C62.9787 37.0433 63.4531 37.1766 63.9128 37.3368C64.6477 37.5846 65.3094 37.8662 65.9345 38.1956C66.5905 38.5448 67.1902 38.9333 67.7618 39.3838C68.3869 39.8681 68.967 40.4369 69.5019 40.9775C69.5329 41.0085 69.5779 41.0169 69.6174 41C69.6568 40.9803 69.6821 40.9409 69.6793 40.8987C69.6399 40.0793 69.3161 39.2318 68.7417 38.449C68.218 37.7395 67.5141 37.1425 66.7116 36.723C65.9542 36.3232 65.1095 36.081 64.2591 36.0163C64.2426 36.0149 64.2261 36.0142 64.2099 36.0135L64.2099 36.0135C64.1929 36.0128 64.1764 36.0121 64.1606 36.0106C63.2061 35.96 62.3445 36.112 61.6011 36.464C61.5617 36.4837 61.5392 36.5231 61.542 36.5681C61.5448 36.6104 61.5758 36.647 61.6152 36.6583ZM46.1571 49.157C47.1342 49.157 47.9282 47.8252 47.9282 46.178C47.9282 44.5309 47.1342 43.1962 46.1571 43.1962C45.1829 43.1962 44.3889 44.5309 44.3889 46.178C44.3889 47.8252 45.1829 49.157 46.1571 49.157ZM63.8425 49.157C64.8196 49.157 65.6108 47.8252 65.6108 46.178C65.6108 44.5309 64.8196 43.1962 63.8425 43.1962C62.8655 43.1962 62.0743 44.5309 62.0743 46.178C62.0743 47.8252 62.8655 49.157 63.8425 49.157ZM63.8424 62.6272C63.3299 57.3253 59.5541 53.2144 54.9786 53.2228C50.4059 53.2341 46.647 57.3619 46.1571 62.6638L63.8424 62.6272Z" fill="#DF3734"/>
<path d="M18.3965 96.0312L21.7461 84.7812H25.0078L20.0566 99H17.9082L18.3965 96.0312ZM15.3105 84.7812L18.6504 96.0312L19.1582 99H16.9902L12.0684 84.7812H15.3105ZM30.9937 99.1953C30.1734 99.1953 29.4378 99.0651 28.7867 98.8047C28.1357 98.5378 27.5823 98.1699 27.1266 97.7012C26.6773 97.2324 26.3323 96.6888 26.0914 96.0703C25.8505 95.4453 25.7301 94.7812 25.7301 94.0781V93.6875C25.7301 92.8867 25.844 92.1543 26.0719 91.4902C26.2997 90.8262 26.6253 90.25 27.0484 89.7617C27.4781 89.2734 27.999 88.8991 28.6109 88.6387C29.2229 88.3717 29.913 88.2383 30.6812 88.2383C31.4299 88.2383 32.094 88.362 32.6734 88.6094C33.2529 88.8568 33.7379 89.2083 34.1285 89.6641C34.5257 90.1198 34.8251 90.6667 35.027 91.3047C35.2288 91.9362 35.3297 92.6393 35.3297 93.4141V94.5859H26.9312V92.7109H32.566V92.4961C32.566 92.1055 32.4944 91.7572 32.3512 91.4512C32.2145 91.1387 32.0061 90.8913 31.7262 90.709C31.4462 90.5267 31.0882 90.4355 30.652 90.4355C30.2809 90.4355 29.9618 90.5169 29.6949 90.6797C29.428 90.8424 29.2099 91.0703 29.0406 91.3633C28.8779 91.6562 28.7542 92.0013 28.6695 92.3984C28.5914 92.7891 28.5523 93.2188 28.5523 93.6875V94.0781C28.5523 94.5013 28.6109 94.8919 28.7281 95.25C28.8518 95.6081 29.0243 95.9173 29.2457 96.1777C29.4736 96.4382 29.747 96.64 30.066 96.7832C30.3915 96.9264 30.7594 96.998 31.1695 96.998C31.6773 96.998 32.1493 96.9004 32.5855 96.7051C33.0283 96.5033 33.4091 96.2005 33.7281 95.7969L35.0953 97.2812C34.874 97.6003 34.5712 97.9062 34.1871 98.1992C33.8095 98.4922 33.3538 98.7331 32.8199 98.9219C32.2861 99.1042 31.6773 99.1953 30.9937 99.1953ZM40.1437 90.7383V99H37.3312V88.4336H39.9777L40.1437 90.7383ZM43.3273 88.3652L43.2785 90.9727C43.1418 90.9531 42.9758 90.9368 42.7805 90.9238C42.5917 90.9043 42.4191 90.8945 42.2629 90.8945C41.8658 90.8945 41.5207 90.9466 41.2277 91.0508C40.9413 91.1484 40.7004 91.2949 40.5051 91.4902C40.3163 91.6855 40.173 91.9232 40.0754 92.2031C39.9842 92.4831 39.9322 92.8021 39.9191 93.1602L39.3527 92.9844C39.3527 92.3008 39.4211 91.6725 39.5578 91.0996C39.6945 90.5202 39.8931 90.0156 40.1535 89.5859C40.4204 89.1562 40.746 88.8242 41.1301 88.5898C41.5142 88.3555 41.9536 88.2383 42.4484 88.2383C42.6047 88.2383 42.7642 88.2513 42.927 88.2773C43.0897 88.2969 43.2232 88.3262 43.3273 88.3652ZM48.366 97.8086L51.1688 88.4336H54.1863L49.9383 100.592C49.8471 100.859 49.7234 101.145 49.5672 101.451C49.4174 101.757 49.2124 102.047 48.952 102.32C48.698 102.6 48.3758 102.828 47.9852 103.004C47.601 103.18 47.129 103.268 46.5691 103.268C46.3022 103.268 46.0841 103.251 45.9148 103.219C45.7456 103.186 45.5438 103.141 45.3094 103.082V101.021C45.381 101.021 45.4559 101.021 45.534 101.021C45.6121 101.028 45.687 101.031 45.7586 101.031C46.1297 101.031 46.4324 100.989 46.6668 100.904C46.9012 100.82 47.09 100.689 47.2332 100.514C47.3764 100.344 47.4904 100.123 47.575 99.8496L48.366 97.8086ZM47.1941 88.4336L49.4891 96.0898L49.8895 99.0684L47.9754 99.2734L44.1766 88.4336H47.1941ZM70.4062 96.7148V99H63.248V96.7148H70.4062ZM64.1953 84.7812V99H61.2656V84.7812H64.1953ZM71.8609 93.8242V93.6191C71.8609 92.8444 71.9716 92.1315 72.193 91.4805C72.4143 90.8229 72.7366 90.2533 73.1598 89.7715C73.5829 89.2897 74.1038 88.9154 74.7223 88.6484C75.3408 88.375 76.0504 88.2383 76.8512 88.2383C77.652 88.2383 78.3648 88.375 78.9898 88.6484C79.6148 88.9154 80.1389 89.2897 80.5621 89.7715C80.9918 90.2533 81.3173 90.8229 81.5387 91.4805C81.76 92.1315 81.8707 92.8444 81.8707 93.6191V93.8242C81.8707 94.5924 81.76 95.3053 81.5387 95.9629C81.3173 96.6139 80.9918 97.1836 80.5621 97.6719C80.1389 98.1536 79.6181 98.528 78.9996 98.7949C78.3811 99.0618 77.6715 99.1953 76.8707 99.1953C76.0699 99.1953 75.357 99.0618 74.732 98.7949C74.1135 98.528 73.5895 98.1536 73.1598 97.6719C72.7366 97.1836 72.4143 96.6139 72.193 95.9629C71.9716 95.3053 71.8609 94.5924 71.8609 93.8242ZM74.6734 93.6191V93.8242C74.6734 94.2669 74.7125 94.6803 74.7906 95.0645C74.8688 95.4486 74.9924 95.7871 75.1617 96.0801C75.3375 96.3665 75.5654 96.5911 75.8453 96.7539C76.1253 96.9167 76.4671 96.998 76.8707 96.998C77.2613 96.998 77.5966 96.9167 77.8766 96.7539C78.1565 96.5911 78.3811 96.3665 78.5504 96.0801C78.7197 95.7871 78.8434 95.4486 78.9215 95.0645C79.0061 94.6803 79.0484 94.2669 79.0484 93.8242V93.6191C79.0484 93.1895 79.0061 92.7858 78.9215 92.4082C78.8434 92.0241 78.7164 91.6855 78.5406 91.3926C78.3714 91.0931 78.1467 90.8587 77.8668 90.6895C77.5869 90.5202 77.2483 90.4355 76.8512 90.4355C76.454 90.4355 76.1155 90.5202 75.8355 90.6895C75.5621 90.8587 75.3375 91.0931 75.1617 91.3926C74.9924 91.6855 74.8688 92.0241 74.7906 92.4082C74.7125 92.7858 74.6734 93.1895 74.6734 93.6191ZM87.0168 96.2656L89.2141 88.4336H91.0012L90.425 91.5098L88.2277 99H86.7336L87.0168 96.2656ZM85.9035 88.4336L87.4758 96.2559L87.6223 99H85.8645L83.1887 88.4336H85.9035ZM93.0129 96.1289L94.5461 88.4336H97.2707L94.5949 99H92.8469L93.0129 96.1289ZM91.2453 88.4336L93.4328 96.207L93.7355 99H92.2316L90.0344 91.5195L89.4777 88.4336H91.2453Z" fill="#DF3734"/>
</svg>
