<svg width="110" height="125" viewBox="0 0 110 125" fill="none" xmlns="http://www.w3.org/2000/svg">
<rect width="110" height="125" rx="5" fill="#157519" fill-opacity="0.2"/>
<path fill-rule="evenodd" clip-rule="evenodd" d="M54.9999 28C41.7451 28 31 38.7446 31 52.0008C31 65.2551 41.7451 76 54.9999 76C68.2547 76 78.9996 65.2551 78.9996 52.0008C78.9996 38.7446 68.2547 28 54.9999 28ZM46.1581 49.157C47.1346 49.157 47.9263 47.8252 47.9263 46.178C47.9263 44.5308 47.1346 43.1962 46.1581 43.1962C45.1813 43.1962 44.3896 44.5308 44.3896 46.178C44.3896 47.8252 45.1813 49.157 46.1581 49.157ZM63.8417 49.157C64.8182 49.157 65.6099 47.8252 65.6099 46.178C65.6099 44.5308 64.8182 43.1962 63.8417 43.1962C62.8649 43.1962 62.0732 44.5308 62.0732 46.178C62.0732 47.8252 62.8649 49.157 63.8417 49.157ZM38.8731 54.2703C39.7871 62.3682 46.6568 68.664 54.9999 68.664C63.343 68.664 70.2127 62.3682 71.1267 54.2703H38.8731Z" fill="#018106"/>
<path d="M15.3965 96.0312L18.7461 84.7812H22.0078L17.0566 99H14.9082L15.3965 96.0312ZM12.3105 84.7812L15.6504 96.0312L16.1582 99H13.9902L9.06836 84.7812H12.3105ZM27.9937 99.1953C27.1734 99.1953 26.4378 99.0651 25.7867 98.8047C25.1357 98.5378 24.5823 98.1699 24.1266 97.7012C23.6773 97.2324 23.3323 96.6888 23.0914 96.0703C22.8505 95.4453 22.7301 94.7812 22.7301 94.0781V93.6875C22.7301 92.8867 22.844 92.1543 23.0719 91.4902C23.2997 90.8262 23.6253 90.25 24.0484 89.7617C24.4781 89.2734 24.999 88.8991 25.6109 88.6387C26.2229 88.3717 26.913 88.2383 27.6812 88.2383C28.4299 88.2383 29.094 88.362 29.6734 88.6094C30.2529 88.8568 30.7379 89.2083 31.1285 89.6641C31.5257 90.1198 31.8251 90.6667 32.027 91.3047C32.2288 91.9362 32.3297 92.6393 32.3297 93.4141V94.5859H23.9312V92.7109H29.566V92.4961C29.566 92.1055 29.4944 91.7572 29.3512 91.4512C29.2145 91.1387 29.0061 90.8913 28.7262 90.709C28.4462 90.5267 28.0882 90.4355 27.652 90.4355C27.2809 90.4355 26.9618 90.5169 26.6949 90.6797C26.428 90.8424 26.2099 91.0703 26.0406 91.3633C25.8779 91.6562 25.7542 92.0013 25.6695 92.3984C25.5914 92.7891 25.5523 93.2188 25.5523 93.6875V94.0781C25.5523 94.5013 25.6109 94.8919 25.7281 95.25C25.8518 95.6081 26.0243 95.9173 26.2457 96.1777C26.4736 96.4382 26.747 96.64 27.066 96.7832C27.3915 96.9264 27.7594 96.998 28.1695 96.998C28.6773 96.998 29.1493 96.9004 29.5855 96.7051C30.0283 96.5033 30.4091 96.2005 30.7281 95.7969L32.0953 97.2812C31.874 97.6003 31.5712 97.9062 31.1871 98.1992C30.8095 98.4922 30.3538 98.7331 29.8199 98.9219C29.2861 99.1042 28.6773 99.1953 27.9937 99.1953ZM37.1437 90.7383V99H34.3312V88.4336H36.9777L37.1437 90.7383ZM40.3273 88.3652L40.2785 90.9727C40.1418 90.9531 39.9758 90.9368 39.7805 90.9238C39.5917 90.9043 39.4191 90.8945 39.2629 90.8945C38.8658 90.8945 38.5207 90.9466 38.2277 91.0508C37.9413 91.1484 37.7004 91.2949 37.5051 91.4902C37.3163 91.6855 37.173 91.9232 37.0754 92.2031C36.9842 92.4831 36.9322 92.8021 36.9191 93.1602L36.3527 92.9844C36.3527 92.3008 36.4211 91.6725 36.5578 91.0996C36.6945 90.5202 36.8931 90.0156 37.1535 89.5859C37.4204 89.1562 37.746 88.8242 38.1301 88.5898C38.5142 88.3555 38.9536 88.2383 39.4484 88.2383C39.6047 88.2383 39.7642 88.2513 39.927 88.2773C40.0897 88.2969 40.2232 88.3262 40.3273 88.3652ZM45.366 97.8086L48.1688 88.4336H51.1863L46.9383 100.592C46.8471 100.859 46.7234 101.145 46.5672 101.451C46.4174 101.757 46.2124 102.047 45.952 102.32C45.698 102.6 45.3758 102.828 44.9852 103.004C44.601 103.18 44.129 103.268 43.5691 103.268C43.3022 103.268 43.0841 103.251 42.9148 103.219C42.7456 103.186 42.5438 103.141 42.3094 103.082V101.021C42.381 101.021 42.4559 101.021 42.534 101.021C42.6121 101.028 42.687 101.031 42.7586 101.031C43.1297 101.031 43.4324 100.989 43.6668 100.904C43.9012 100.82 44.09 100.689 44.2332 100.514C44.3764 100.344 44.4904 100.123 44.575 99.8496L45.366 97.8086ZM44.1941 88.4336L46.4891 96.0898L46.8895 99.0684L44.9754 99.2734L41.1766 88.4336H44.1941ZM67.748 90.5723V92.8574H60.3262V90.5723H67.748ZM61.1953 84.7812V99H58.2656V84.7812H61.1953ZM69.8379 84.7812V99H66.918V84.7812H69.8379ZM75.5797 88.4336V99H72.7574V88.4336H75.5797ZM72.5816 85.6797C72.5816 85.2695 72.7249 84.931 73.0113 84.6641C73.2978 84.3971 73.6819 84.2637 74.1637 84.2637C74.6389 84.2637 75.0198 84.3971 75.3063 84.6641C75.5992 84.931 75.7457 85.2695 75.7457 85.6797C75.7457 86.0898 75.5992 86.4284 75.3063 86.6953C75.0198 86.9622 74.6389 87.0957 74.1637 87.0957C73.6819 87.0957 73.2978 86.9622 73.0113 86.6953C72.7249 86.4284 72.5816 86.0898 72.5816 85.6797ZM84.9934 88.4336H87.5422V98.6484C87.5422 99.612 87.3273 100.429 86.8977 101.1C86.4745 101.777 85.882 102.288 85.1203 102.633C84.3586 102.984 83.4732 103.16 82.4641 103.16C82.0214 103.16 81.5526 103.102 81.0578 102.984C80.5695 102.867 80.1008 102.685 79.6516 102.438C79.2089 102.19 78.8378 101.878 78.5383 101.5L79.7785 99.8398C80.104 100.217 80.4816 100.51 80.9113 100.719C81.341 100.934 81.8163 101.041 82.3371 101.041C82.8449 101.041 83.2746 100.947 83.6262 100.758C83.9777 100.576 84.2479 100.305 84.4367 99.9473C84.6255 99.5957 84.7199 99.1693 84.7199 98.668V90.875L84.9934 88.4336ZM77.884 93.8438V93.6387C77.884 92.8314 77.9816 92.099 78.177 91.4414C78.3788 90.7773 78.662 90.2077 79.0266 89.7324C79.3977 89.2572 79.8469 88.8893 80.3742 88.6289C80.9016 88.3685 81.4973 88.2383 82.1613 88.2383C82.8645 88.2383 83.4536 88.3685 83.9289 88.6289C84.4042 88.8893 84.7948 89.2604 85.1008 89.7422C85.4068 90.2174 85.6444 90.7806 85.8137 91.4316C85.9895 92.0762 86.1262 92.7826 86.2238 93.5508V94C86.1262 94.7357 85.9797 95.4193 85.7844 96.0508C85.5891 96.6823 85.3319 97.2357 85.0129 97.7109C84.6939 98.1797 84.2967 98.5443 83.8215 98.8047C83.3527 99.0651 82.7928 99.1953 82.1418 99.1953C81.4908 99.1953 80.9016 99.0618 80.3742 98.7949C79.8534 98.528 79.4074 98.1536 79.0363 97.6719C78.6652 97.1901 78.3788 96.6237 78.177 95.9727C77.9816 95.3216 77.884 94.612 77.884 93.8438ZM80.6965 93.6387V93.8438C80.6965 94.2799 80.7388 94.6868 80.8234 95.0645C80.9081 95.4421 81.0383 95.7773 81.2141 96.0703C81.3964 96.3568 81.621 96.5814 81.8879 96.7441C82.1613 96.9004 82.4836 96.9785 82.8547 96.9785C83.369 96.9785 83.7889 96.8711 84.1145 96.6562C84.44 96.4349 84.6841 96.1322 84.8469 95.748C85.0096 95.3639 85.104 94.9212 85.1301 94.4199V93.1406C85.1171 92.7305 85.0617 92.3626 84.9641 92.0371C84.8664 91.7051 84.7297 91.4219 84.5539 91.1875C84.3781 90.9531 84.1503 90.7708 83.8703 90.6406C83.5904 90.5104 83.2583 90.4453 82.8742 90.4453C82.5031 90.4453 82.1809 90.5299 81.9074 90.6992C81.6405 90.862 81.4159 91.0866 81.2336 91.373C81.0578 91.6595 80.9244 91.998 80.8332 92.3887C80.7421 92.7728 80.6965 93.1895 80.6965 93.6387ZM92.8738 84V99H90.0613V84H92.8738ZM92.4734 93.3457H91.702C91.7085 92.61 91.8061 91.9329 91.9949 91.3145C92.1837 90.6895 92.4539 90.1491 92.8055 89.6934C93.157 89.2311 93.577 88.873 94.0652 88.6191C94.56 88.3652 95.1069 88.2383 95.7059 88.2383C96.2267 88.2383 96.6987 88.3132 97.1219 88.4629C97.5516 88.6061 97.9194 88.8405 98.2254 89.166C98.5379 89.485 98.7788 89.9049 98.948 90.4258C99.1173 90.9466 99.202 91.5781 99.202 92.3203V99H96.3699V92.3008C96.3699 91.832 96.3016 91.4642 96.1648 91.1973C96.0346 90.9238 95.8426 90.7318 95.5887 90.6211C95.3413 90.5039 95.0353 90.4453 94.6707 90.4453C94.2671 90.4453 93.922 90.5202 93.6355 90.6699C93.3556 90.8197 93.131 91.028 92.9617 91.2949C92.7924 91.5553 92.6687 91.8613 92.5906 92.2129C92.5125 92.5645 92.4734 92.9421 92.4734 93.3457Z" fill="#018106"/>
</svg>
