<svg width="123" height="123" viewBox="0 0 123 123" fill="none" xmlns="http://www.w3.org/2000/svg">
<path d="M22.1885 83.7292L25.5381 72.4792H28.7998L23.8486 86.698H21.7002L22.1885 83.7292ZM19.1025 72.4792L22.4424 83.7292L22.9502 86.698H20.7822L15.8604 72.4792H19.1025ZM34.7857 86.8933C33.9654 86.8933 33.2298 86.7631 32.5787 86.5027C31.9277 86.2358 31.3743 85.8679 30.9186 85.3992C30.4693 84.9304 30.1243 84.3868 29.8834 83.7683C29.6425 83.1433 29.5221 82.4792 29.5221 81.7761V81.3855C29.5221 80.5847 29.636 79.8523 29.8639 79.1882C30.0917 78.5242 30.4173 77.948 30.8404 77.4597C31.2701 76.9714 31.791 76.5971 32.4029 76.3367C33.0149 76.0697 33.705 75.9363 34.4732 75.9363C35.2219 75.9363 35.886 76.06 36.4654 76.3074C37.0449 76.5548 37.5299 76.9063 37.9205 77.3621C38.3176 77.8178 38.6171 78.3647 38.8189 79.0027C39.0208 79.6342 39.1217 80.3373 39.1217 81.1121V82.2839H30.7232V80.4089H36.358V80.1941C36.358 79.8035 36.2864 79.4552 36.1432 79.1492C36.0064 78.8367 35.7981 78.5893 35.5182 78.407C35.2382 78.2247 34.8801 78.1335 34.4439 78.1335C34.0729 78.1335 33.7538 78.2149 33.4869 78.3777C33.22 78.5404 33.0019 78.7683 32.8326 79.0613C32.6699 79.3542 32.5462 79.6993 32.4615 80.0964C32.3834 80.4871 32.3443 80.9167 32.3443 81.3855V81.7761C32.3443 82.1993 32.4029 82.5899 32.5201 82.948C32.6438 83.3061 32.8163 83.6153 33.0377 83.8757C33.2656 84.1361 33.539 84.338 33.858 84.4812C34.1835 84.6244 34.5514 84.696 34.9615 84.696C35.4693 84.696 35.9413 84.5984 36.3775 84.4031C36.8202 84.2013 37.2011 83.8985 37.5201 83.4949L38.8873 84.9792C38.666 85.2983 38.3632 85.6042 37.9791 85.8972C37.6015 86.1902 37.1458 86.4311 36.6119 86.6199C36.0781 86.8022 35.4693 86.8933 34.7857 86.8933ZM43.9357 78.4363V86.698H41.1232V76.1316H43.7697L43.9357 78.4363ZM47.1193 76.0632L47.0705 78.6707C46.9338 78.6511 46.7678 78.6348 46.5725 78.6218C46.3837 78.6023 46.2111 78.5925 46.0549 78.5925C45.6577 78.5925 45.3127 78.6446 45.0197 78.7488C44.7333 78.8464 44.4924 78.9929 44.2971 79.1882C44.1083 79.3835 43.965 79.6212 43.8674 79.9011C43.7762 80.1811 43.7242 80.5001 43.7111 80.8582L43.1447 80.6824C43.1447 79.9988 43.2131 79.3705 43.3498 78.7976C43.4865 78.2182 43.6851 77.7136 43.9455 77.2839C44.2124 76.8542 44.538 76.5222 44.9221 76.2878C45.3062 76.0535 45.7456 75.9363 46.2404 75.9363C46.3967 75.9363 46.5562 75.9493 46.7189 75.9753C46.8817 75.9949 47.0152 76.0242 47.1193 76.0632ZM52.158 85.5066L54.9607 76.1316H57.9783L53.7303 88.2898C53.6391 88.5567 53.5154 88.8432 53.3592 89.1492C53.2094 89.4552 53.0044 89.7449 52.7439 90.0183C52.49 90.2983 52.1678 90.5261 51.7771 90.7019C51.393 90.8777 50.921 90.9656 50.3611 90.9656C50.0942 90.9656 49.8761 90.9493 49.7068 90.9167C49.5376 90.8842 49.3357 90.8386 49.1014 90.78V88.7195C49.173 88.7195 49.2479 88.7195 49.326 88.7195C49.4041 88.726 49.479 88.7292 49.5506 88.7292C49.9217 88.7292 50.2244 88.6869 50.4588 88.6023C50.6932 88.5177 50.882 88.3875 51.0252 88.2117C51.1684 88.0424 51.2824 87.821 51.367 87.5476L52.158 85.5066ZM50.9861 76.1316L53.2811 83.7878L53.6814 86.7664L51.7674 86.9714L47.9686 76.1316H50.9861ZM74.54 78.2703V80.5554H67.1182V78.2703H74.54ZM67.9873 72.4792V86.698H65.0576V72.4792H67.9873ZM76.6299 72.4792V86.698H73.71V72.4792H76.6299ZM82.3717 76.1316V86.698H79.5494V76.1316H82.3717ZM79.3736 73.3777C79.3736 72.9675 79.5169 72.629 79.8033 72.3621C80.0898 72.0951 80.4739 71.9617 80.9557 71.9617C81.4309 71.9617 81.8118 72.0951 82.0982 72.3621C82.3912 72.629 82.5377 72.9675 82.5377 73.3777C82.5377 73.7878 82.3912 74.1264 82.0982 74.3933C81.8118 74.6602 81.4309 74.7937 80.9557 74.7937C80.4739 74.7937 80.0898 74.6602 79.8033 74.3933C79.5169 74.1264 79.3736 73.7878 79.3736 73.3777ZM91.7854 76.1316H94.3342V86.3464C94.3342 87.31 94.1193 88.127 93.6897 88.7976C93.2665 89.4747 92.674 89.9858 91.9123 90.3308C91.1506 90.6824 90.2652 90.8582 89.2561 90.8582C88.8133 90.8582 88.3446 90.7996 87.8498 90.6824C87.3615 90.5652 86.8928 90.3829 86.4436 90.1355C86.0008 89.8881 85.6298 89.5756 85.3303 89.198L86.5705 87.5378C86.896 87.9154 87.2736 88.2084 87.7033 88.4167C88.133 88.6316 88.6083 88.739 89.1291 88.739C89.6369 88.739 90.0666 88.6446 90.4182 88.4558C90.7697 88.2735 91.0399 88.0033 91.2287 87.6453C91.4175 87.2937 91.5119 86.8673 91.5119 86.366V78.573L91.7854 76.1316ZM84.676 81.5417V81.3367C84.676 80.5294 84.7736 79.797 84.9689 79.1394C85.1708 78.4753 85.454 77.9057 85.8186 77.4304C86.1897 76.9552 86.6389 76.5873 87.1662 76.3269C87.6936 76.0665 88.2893 75.9363 88.9533 75.9363C89.6564 75.9363 90.2456 76.0665 90.7209 76.3269C91.1962 76.5873 91.5868 76.9584 91.8928 77.4402C92.1988 77.9154 92.4364 78.4786 92.6057 79.1296C92.7814 79.7742 92.9182 80.4806 93.0158 81.2488V81.698C92.9182 82.4337 92.7717 83.1173 92.5764 83.7488C92.3811 84.3803 92.1239 84.9337 91.8049 85.4089C91.4859 85.8777 91.0887 86.2423 90.6135 86.5027C90.1447 86.7631 89.5848 86.8933 88.9338 86.8933C88.2828 86.8933 87.6936 86.7598 87.1662 86.4929C86.6454 86.226 86.1994 85.8516 85.8283 85.3699C85.4572 84.8881 85.1708 84.3217 84.9689 83.6707C84.7736 83.0196 84.676 82.31 84.676 81.5417ZM87.4885 81.3367V81.5417C87.4885 81.9779 87.5308 82.3848 87.6154 82.7625C87.7001 83.1401 87.8303 83.4753 88.0061 83.7683C88.1883 84.0548 88.413 84.2794 88.6799 84.4421C88.9533 84.5984 89.2756 84.6765 89.6467 84.6765C90.161 84.6765 90.5809 84.5691 90.9064 84.3542C91.232 84.1329 91.4761 83.8302 91.6389 83.446C91.8016 83.0619 91.896 82.6192 91.9221 82.1179V80.8386C91.9091 80.4285 91.8537 80.0606 91.7561 79.7351C91.6584 79.4031 91.5217 79.1199 91.3459 78.8855C91.1701 78.6511 90.9423 78.4688 90.6623 78.3386C90.3824 78.2084 90.0503 78.1433 89.6662 78.1433C89.2951 78.1433 88.9729 78.2279 88.6994 78.3972C88.4325 78.56 88.2079 78.7846 88.0256 79.071C87.8498 79.3575 87.7163 79.696 87.6252 80.0867C87.5341 80.4708 87.4885 80.8875 87.4885 81.3367ZM99.6658 71.698V86.698H96.8533V71.698H99.6658ZM99.2654 81.0437H98.4939C98.5005 80.308 98.5981 79.6309 98.7869 79.0125C98.9757 78.3875 99.2459 77.8471 99.5975 77.3914C99.949 76.9291 100.369 76.571 100.857 76.3171C101.352 76.0632 101.899 75.9363 102.498 75.9363C103.019 75.9363 103.491 76.0111 103.914 76.1609C104.344 76.3041 104.711 76.5385 105.017 76.864C105.33 77.183 105.571 77.6029 105.74 78.1238C105.909 78.6446 105.994 79.2761 105.994 80.0183V86.698H103.162V79.9988C103.162 79.53 103.094 79.1622 102.957 78.8953C102.827 78.6218 102.635 78.4298 102.381 78.3191C102.133 78.2019 101.827 78.1433 101.463 78.1433C101.059 78.1433 100.714 78.2182 100.428 78.3679C100.148 78.5177 99.923 78.726 99.7537 78.9929C99.5844 79.2533 99.4607 79.5593 99.3826 79.9109C99.3045 80.2625 99.2654 80.6401 99.2654 81.0437Z" fill="#212121"/>
<path d="M0.791992 61.099C0.791994 44.8945 7.22919 29.3538 18.6875 17.8955C30.1457 6.4372 45.6865 1.73849e-06 61.891 0C78.0954 -1.73848e-06 93.6362 6.43719 105.094 17.8955C116.553 29.3537 122.99 44.8945 122.99 61.099L91.7715 61.099C91.7715 53.1742 88.6234 45.5739 83.0197 39.9702C77.416 34.3665 69.8158 31.2184 61.891 31.2184C53.9661 31.2184 46.3659 34.3665 40.7622 39.9702C35.1585 45.5739 32.0104 53.1742 32.0104 61.099H0.791992Z" fill="#D9D9D9"/>
<path opacity="0.5" d="M0.791992 61.099C0.791993 48.1961 4.87676 35.6245 12.4609 25.1859C20.045 14.7473 30.739 6.97759 43.0103 2.9904L52.6574 32.6809C46.6561 34.6308 41.4261 38.4306 37.7171 43.5356C34.0081 48.6406 32.0104 54.7888 32.0104 61.099H0.791992Z" fill="#EF5350"/>
<path opacity="0.5" d="M42.9778 3.00099C55.2469 -0.993084 68.4655 -1.00049 80.739 2.97982L71.1086 32.6757C65.1062 30.7291 58.6417 30.7328 52.6414 32.6861L42.9778 3.00099Z" fill="#FFC107"/>
<path opacity="0.5" d="M80.6538 2.95226C92.9332 6.91459 103.643 14.6626 111.248 25.0858L86.0292 43.4867C82.3098 38.3892 77.0722 34.6 71.067 32.6622L80.6538 2.95226Z" fill="#00E676"/>
<path opacity="0.5" d="M111.218 25.0451C118.832 35.462 122.953 48.022 122.99 60.9247L91.7714 61.0138C91.7534 54.7036 89.7382 48.5612 86.0146 43.4668L111.218 25.0451Z" fill="#00C853"/>
<path opacity="0.5" d="M0.791992 61.099C0.791993 48.1961 4.87676 35.6245 12.4609 25.1859L37.7171 43.5356C34.0081 48.6406 32.0104 54.7888 32.0104 61.099H0.791992Z" fill="#D32F2F"/>
<path fill-rule="evenodd" clip-rule="evenodd" d="M67.714 60.2309L95.3576 51.0676L66.246 50.2835C64.8918 49.3738 63.2077 48.9461 61.4668 49.2031C57.7547 49.7512 55.1898 53.2046 55.7378 56.9167C56.2859 60.6287 59.7393 63.1936 63.4513 62.6456C65.192 62.3886 66.6805 61.4927 67.714 60.2309Z" fill="#393939"/>
</svg>
