<svg width="123" height="123" viewBox="0 0 123 123" fill="none" xmlns="http://www.w3.org/2000/svg">
<path d="M24.3965 83.7292L27.7461 72.4792H31.0078L26.0566 86.698H23.9082L24.3965 83.7292ZM21.3105 72.4792L24.6504 83.7292L25.1582 86.698H22.9902L18.0684 72.4792H21.3105ZM36.9937 86.8933C36.1734 86.8933 35.4378 86.7631 34.7867 86.5027C34.1357 86.2358 33.5823 85.8679 33.1266 85.3992C32.6773 84.9304 32.3323 84.3868 32.0914 83.7683C31.8505 83.1433 31.7301 82.4792 31.7301 81.7761V81.3855C31.7301 80.5847 31.844 79.8523 32.0719 79.1882C32.2997 78.5242 32.6253 77.948 33.0484 77.4597C33.4781 76.9714 33.999 76.5971 34.6109 76.3367C35.2229 76.0697 35.913 75.9363 36.6812 75.9363C37.4299 75.9363 38.094 76.06 38.6734 76.3074C39.2529 76.5548 39.7379 76.9063 40.1285 77.3621C40.5257 77.8178 40.8251 78.3647 41.027 79.0027C41.2288 79.6342 41.3297 80.3373 41.3297 81.1121V82.2839H32.9312V80.4089H38.566V80.1941C38.566 79.8035 38.4944 79.4552 38.3512 79.1492C38.2145 78.8367 38.0061 78.5893 37.7262 78.407C37.4462 78.2247 37.0882 78.1335 36.652 78.1335C36.2809 78.1335 35.9618 78.2149 35.6949 78.3777C35.428 78.5404 35.2099 78.7683 35.0406 79.0613C34.8779 79.3542 34.7542 79.6993 34.6695 80.0964C34.5914 80.4871 34.5523 80.9167 34.5523 81.3855V81.7761C34.5523 82.1993 34.6109 82.5899 34.7281 82.948C34.8518 83.3061 35.0243 83.6153 35.2457 83.8757C35.4736 84.1361 35.747 84.338 36.066 84.4812C36.3915 84.6244 36.7594 84.696 37.1695 84.696C37.6773 84.696 38.1493 84.5984 38.5855 84.4031C39.0283 84.2013 39.4091 83.8985 39.7281 83.4949L41.0953 84.9792C40.874 85.2983 40.5712 85.6042 40.1871 85.8972C39.8095 86.1902 39.3538 86.4311 38.8199 86.6199C38.2861 86.8022 37.6773 86.8933 36.9937 86.8933ZM46.1437 78.4363V86.698H43.3312V76.1316H45.9777L46.1437 78.4363ZM49.3273 76.0632L49.2785 78.6707C49.1418 78.6511 48.9758 78.6348 48.7805 78.6218C48.5917 78.6023 48.4191 78.5925 48.2629 78.5925C47.8658 78.5925 47.5207 78.6446 47.2277 78.7488C46.9413 78.8464 46.7004 78.9929 46.5051 79.1882C46.3163 79.3835 46.173 79.6212 46.0754 79.9011C45.9842 80.1811 45.9322 80.5001 45.9191 80.8582L45.3527 80.6824C45.3527 79.9988 45.4211 79.3705 45.5578 78.7976C45.6945 78.2182 45.8931 77.7136 46.1535 77.2839C46.4204 76.8542 46.746 76.5222 47.1301 76.2878C47.5142 76.0535 47.9536 75.9363 48.4484 75.9363C48.6047 75.9363 48.7642 75.9493 48.927 75.9753C49.0897 75.9949 49.2232 76.0242 49.3273 76.0632ZM54.366 85.5066L57.1688 76.1316H60.1863L55.9383 88.2898C55.8471 88.5567 55.7234 88.8432 55.5672 89.1492C55.4174 89.4552 55.2124 89.7449 54.952 90.0183C54.698 90.2983 54.3758 90.5261 53.9852 90.7019C53.601 90.8777 53.129 90.9656 52.5691 90.9656C52.3022 90.9656 52.0841 90.9493 51.9148 90.9167C51.7456 90.8842 51.5438 90.8386 51.3094 90.78V88.7195C51.381 88.7195 51.4559 88.7195 51.534 88.7195C51.6121 88.726 51.687 88.7292 51.7586 88.7292C52.1297 88.7292 52.4324 88.6869 52.6668 88.6023C52.9012 88.5177 53.09 88.3875 53.2332 88.2117C53.3764 88.0424 53.4904 87.821 53.575 87.5476L54.366 85.5066ZM53.1941 76.1316L55.4891 83.7878L55.8895 86.7664L53.9754 86.9714L50.1766 76.1316H53.1941ZM76.4062 84.4128V86.698H69.248V84.4128H76.4062ZM70.1953 72.4792V86.698H67.2656V72.4792H70.1953ZM77.8609 81.5222V81.3171C77.8609 80.5424 77.9716 79.8295 78.193 79.1785C78.4143 78.5209 78.7366 77.9513 79.1598 77.4695C79.5829 76.9877 80.1038 76.6134 80.7223 76.3464C81.3408 76.073 82.0504 75.9363 82.8512 75.9363C83.652 75.9363 84.3648 76.073 84.9898 76.3464C85.6148 76.6134 86.1389 76.9877 86.5621 77.4695C86.9918 77.9513 87.3173 78.5209 87.5387 79.1785C87.76 79.8295 87.8707 80.5424 87.8707 81.3171V81.5222C87.8707 82.2904 87.76 83.0033 87.5387 83.6609C87.3173 84.3119 86.9918 84.8816 86.5621 85.3699C86.1389 85.8516 85.6181 86.226 84.9996 86.4929C84.3811 86.7598 83.6715 86.8933 82.8707 86.8933C82.0699 86.8933 81.357 86.7598 80.732 86.4929C80.1135 86.226 79.5895 85.8516 79.1598 85.3699C78.7366 84.8816 78.4143 84.3119 78.193 83.6609C77.9716 83.0033 77.8609 82.2904 77.8609 81.5222ZM80.6734 81.3171V81.5222C80.6734 81.9649 80.7125 82.3783 80.7906 82.7625C80.8688 83.1466 80.9924 83.4851 81.1617 83.7781C81.3375 84.0645 81.5654 84.2891 81.8453 84.4519C82.1253 84.6147 82.4671 84.696 82.8707 84.696C83.2613 84.696 83.5966 84.6147 83.8766 84.4519C84.1565 84.2891 84.3811 84.0645 84.5504 83.7781C84.7197 83.4851 84.8434 83.1466 84.9215 82.7625C85.0061 82.3783 85.0484 81.9649 85.0484 81.5222V81.3171C85.0484 80.8875 85.0061 80.4838 84.9215 80.1062C84.8434 79.7221 84.7164 79.3835 84.5406 79.0906C84.3714 78.7911 84.1467 78.5567 83.8668 78.3875C83.5869 78.2182 83.2483 78.1335 82.8512 78.1335C82.454 78.1335 82.1155 78.2182 81.8355 78.3875C81.5621 78.5567 81.3375 78.7911 81.1617 79.0906C80.9924 79.3835 80.8688 79.7221 80.7906 80.1062C80.7125 80.4838 80.6734 80.8875 80.6734 81.3171ZM93.0168 83.9636L95.2141 76.1316H97.0012L96.425 79.2078L94.2277 86.698H92.7336L93.0168 83.9636ZM91.9035 76.1316L93.4758 83.9539L93.6223 86.698H91.8645L89.1887 76.1316H91.9035ZM99.0129 83.8269L100.546 76.1316H103.271L100.595 86.698H98.8469L99.0129 83.8269ZM97.2453 76.1316L99.4328 83.905L99.7355 86.698H98.2316L96.0344 79.2175L95.4777 76.1316H97.2453Z" fill="#212121"/>
<path d="M0 61.099C1.41664e-06 44.8945 6.4372 29.3538 17.8955 17.8955C29.3538 6.4372 44.8945 1.73849e-06 61.099 0C77.3034 -1.73848e-06 92.8442 6.43719 104.302 17.8955C115.761 29.3537 122.198 44.8945 122.198 61.099L90.9795 61.099C90.9795 53.1742 87.8314 45.5739 82.2277 39.9702C76.624 34.3665 69.0238 31.2184 61.099 31.2184C53.1742 31.2184 45.5739 34.3665 39.9702 39.9702C34.3665 45.5739 31.2184 53.1742 31.2184 61.099H0Z" fill="#D9D9D9"/>
<path opacity="0.5" d="M0 61.099C1.128e-06 48.1961 4.08477 35.6245 11.6689 25.1859C19.253 14.7473 29.947 6.97759 42.2183 2.9904L51.8654 32.6809C45.8641 34.6308 40.6341 38.4306 36.9251 43.5356C33.2161 48.6406 31.2184 54.7888 31.2184 61.099H0Z" fill="#EF5350"/>
<path opacity="0.5" d="M42.1858 3.00099C54.4549 -0.993084 67.6735 -1.00049 79.947 2.97982L70.3166 32.6757C64.3142 30.7291 57.8497 30.7328 51.8495 32.6861L42.1858 3.00099Z" fill="#FFC107"/>
<path opacity="0.5" d="M79.8618 2.95226C92.1412 6.91459 102.851 14.6626 110.456 25.0858L85.2372 43.4867C81.5179 38.3892 76.2802 34.6 70.275 32.6622L79.8618 2.95226Z" fill="#00E676"/>
<path opacity="0.5" d="M110.426 25.0451C118.04 35.462 122.161 48.022 122.198 60.9247L90.9794 61.0138C90.9614 54.7036 88.9462 48.5612 85.2227 43.4668L110.426 25.0451Z" fill="#00C853"/>
<path opacity="0.5" d="M0 61.099C1.128e-06 48.1961 4.08477 35.6245 11.6689 25.1859L36.9251 43.5356C33.2161 48.6406 31.2184 54.7888 31.2184 61.099H0Z" fill="#D32F2F"/>
<path fill-rule="evenodd" clip-rule="evenodd" d="M57.1249 48.6484L28.0306 49.9385L55.8286 58.6197C56.8839 59.8637 58.388 60.7339 60.1332 60.9606C63.8542 61.4441 67.2625 58.8195 67.746 55.0985C68.2294 51.3775 65.6048 47.9691 61.8838 47.4857C60.139 47.259 58.4629 47.7157 57.1249 48.6484Z" fill="#393939"/>
</svg>
