<svg width="48" height="48" viewBox="0 0 48 48" fill="none" xmlns="http://www.w3.org/2000/svg">
<path fill-rule="evenodd" clip-rule="evenodd" d="M24.0013 0C10.7451 0 0.000488281 10.7446 0.000488281 24.0008C0.000488281 37.2551 10.7451 48 24.0013 48C37.2547 48 47.9993 37.2551 47.9993 24.0008C47.9993 10.7446 37.2547 0 24.0013 0ZM16.6298 8.87226C16.8747 8.80469 17.1253 8.73428 17.3844 8.65825C17.4266 8.64699 17.4548 8.61038 17.4576 8.56815C17.4632 8.5231 17.4379 8.4837 17.3985 8.46399C16.6551 8.11203 15.7935 7.95997 14.8418 8.01065C14.8253 8.01203 14.8088 8.01273 14.7926 8.01342L14.7925 8.01342C14.7756 8.01414 14.7591 8.01485 14.7432 8.01629C13.8901 8.08105 13.0454 8.32318 12.288 8.72301C11.4855 9.14255 10.7816 9.73949 10.2579 10.449C9.6863 11.2318 9.35969 12.0793 9.32027 12.8987C9.32027 12.9409 9.3428 12.9803 9.38222 13C9.42164 13.0169 9.46951 13.0085 9.50048 12.9775C10.0326 12.4369 10.6127 11.8681 11.2377 11.3838C11.8121 10.9333 12.4091 10.5448 13.0651 10.1956C13.693 9.8662 14.3519 9.58463 15.0896 9.33685C15.5475 9.17633 16.0225 9.04287 16.524 8.90198L16.524 8.90197L16.6298 8.87226ZM30.6152 8.65825C30.8743 8.73428 31.1248 8.80469 31.3698 8.87226L31.4781 8.90271C31.9787 9.04333 32.4531 9.17661 32.9128 9.33685C33.6477 9.58463 34.3094 9.8662 34.9345 10.1956C35.5905 10.5448 36.1902 10.9333 36.7618 11.3838C37.3869 11.8681 37.967 12.4369 38.5019 12.9775C38.5329 13.0085 38.5779 13.0169 38.6174 13C38.6568 12.9803 38.6821 12.9409 38.6793 12.8987C38.6399 12.0793 38.3161 11.2318 37.7417 10.449C37.218 9.73949 36.5141 9.14255 35.7116 8.72301C34.9542 8.32318 34.1095 8.08105 33.2591 8.01629C33.2426 8.01491 33.2261 8.0142 33.2099 8.01351L33.2099 8.01351C33.1929 8.01279 33.1764 8.01209 33.1606 8.01065C32.2061 7.95997 31.3445 8.11203 30.6011 8.46399C30.5617 8.4837 30.5392 8.5231 30.542 8.56815C30.5448 8.61038 30.5758 8.64699 30.6152 8.65825ZM15.1571 21.157C16.1342 21.157 16.9282 19.8252 16.9282 18.178C16.9282 16.5309 16.1342 15.1962 15.1571 15.1962C14.1829 15.1962 13.3889 16.5309 13.3889 18.178C13.3889 19.8252 14.1829 21.157 15.1571 21.157ZM32.8425 21.157C33.8196 21.157 34.6108 19.8252 34.6108 18.178C34.6108 16.5309 33.8196 15.1962 32.8425 15.1962C31.8655 15.1962 31.0743 16.5309 31.0743 18.178C31.0743 19.8252 31.8655 21.157 32.8425 21.157ZM32.8424 34.6272C32.3299 29.3253 28.5541 25.2144 23.9786 25.2228C19.4059 25.2341 15.647 29.3619 15.1571 34.6638L32.8424 34.6272Z" fill="#DF3734"/>
</svg>
