<svg width="86" height="86" viewBox="0 0 86 86" fill="none" xmlns="http://www.w3.org/2000/svg">
<path d="M42.9868 82.9395C21.017 82.9395 3.14307 65.0655 3.14307 43.0957C3.14307 21.1259 21.017 3.25195 42.9868 3.25195C64.9567 3.25195 82.8306 21.1259 82.8306 43.0957C82.8306 65.0655 64.9567 82.9395 42.9868 82.9395ZM42.9868 8.56445C23.9468 8.56445 8.45557 24.0557 8.45557 43.0957C8.45557 62.1357 23.9468 77.627 42.9868 77.627C62.0268 77.627 77.5181 62.1357 77.5181 43.0957C77.5181 24.0557 62.0268 8.56445 42.9868 8.56445ZM39.5523 55.5987L63.4585 31.6924C63.7052 31.4458 63.9008 31.153 64.0343 30.8308C64.1677 30.5086 64.2364 30.1632 64.2364 29.8145C64.2364 29.4657 64.1677 29.1203 64.0343 28.7981C63.9008 28.4759 63.7052 28.1831 63.4585 27.9365C63.2119 27.6899 62.9191 27.4942 62.5969 27.3608C62.2747 27.2273 61.9293 27.1586 61.5806 27.1586C61.2318 27.1586 60.8864 27.2273 60.5642 27.3608C60.242 27.4942 59.9492 27.6899 59.7026 27.9365L37.6743 49.9648L28.9273 41.2177C28.6807 40.9711 28.3879 40.7755 28.0657 40.642C27.7434 40.5085 27.3981 40.4399 27.0493 40.4399C26.7005 40.4399 26.3552 40.5085 26.033 40.642C25.7107 40.7755 25.418 40.9711 25.1713 41.2177C24.9247 41.4644 24.7291 41.7571 24.5956 42.0794C24.4622 42.4016 24.3935 42.7469 24.3935 43.0957C24.3935 43.4445 24.4622 43.7898 24.5956 44.1121C24.7291 44.4343 24.9247 44.7271 25.1713 44.9737L35.7963 55.5987C36.0425 55.8462 36.3351 56.0426 36.6574 56.1767C36.9797 56.3107 37.3253 56.3797 37.6743 56.3797C38.0234 56.3797 38.369 56.3107 38.6913 56.1767C39.0136 56.0426 39.3062 55.8462 39.5523 55.5987Z" fill="url(#paint0_linear_7230_2934)"/>
<defs>
<linearGradient id="paint0_linear_7230_2934" x1="23.0676" y1="77.5951" x2="62.906" y2="8.59633" gradientUnits="userSpaceOnUse">
<stop stop-color="#3CACB6"/>
<stop offset="1" stop-color="#8CCEAD"/>
</linearGradient>
</defs>
</svg>
